<?xml version="1.0" encoding="UTF-8"?>
<svg id="Layer_1" data-name="Layer 1" xmlns="http://www.w3.org/2000/svg" width="46.1mm" height="13.2mm" viewBox="0 0 130.68 37.42">
  <path d="M50.54,14.49l-3.79,8.45h1.73l.72-1.59h4.43l.71,1.59h1.75l-3.79-8.45h-1.75ZM49.84,19.85l1.57-3.6,1.57,3.6h-3.14Z" fill="#fff"/>
  <path d="M63.86,17.29c0-1.46-1.06-2.79-3.05-2.8-1.34,0-2.68-.02-4.02-.02v8.46h1.59v-2.82h1.53l2.47,2.82h1.9v-.11l-2.56-2.87c1.6-.33,2.13-1.5,2.13-2.66ZM58.39,18.66v-2.7h2.43c.99,0,1.45.67,1.45,1.34s-.42,1.36-1.45,1.36h-2.43Z" fill="#fff"/>
  <path d="M94.61,19.95c1.6-.33,2.13-1.5,2.13-2.66,0-1.46-1.06-2.79-3.05-2.8-1.34,0-2.68-.02-4.02-.02v8.46h1.59v-2.82h1.53l2.47,2.82h1.9v-.11l-2.56-2.87ZM91.26,18.66v-2.7h2.43c1.01,0,1.45.67,1.45,1.34s-.42,1.36-1.45,1.36h-2.43Z" fill="#fff"/>
  <polygon points="82.09 22.93 88.42 22.93 88.42 21.36 83.68 21.36 83.68 19.46 88.26 19.46 88.26 17.98 83.68 17.98 83.68 16.04 88.42 16.04 88.42 14.49 82.09 14.49 82.09 22.93" fill="#fff"/>
  <path d="M69.18,21.61c-2.08,0-2.89-1.46-2.91-2.86-.02-1.41.86-2.93,2.91-2.93.74,0,1.5.25,2.05.79l1.06-1.02c-.86-.85-1.96-1.29-3.1-1.29-3.07,0-4.5,2.24-4.48,4.44.02,2.19,1.34,4.36,4.48,4.36,1.22,0,2.35-.39,3.21-1.25l-1.09-1.09c-.55.56-1.39.86-2.12.85Z" fill="#fff"/>
  <polygon points="79.04 18.05 74.88 18.05 74.88 14.49 73.29 14.49 73.29 22.95 74.88 22.95 74.88 19.53 79.04 19.53 79.04 22.95 80.63 22.95 80.63 14.49 79.04 14.49 79.04 18.05" fill="#fff"/>
  <polygon points="33.51 14.49 42.03 22.97 46.26 18.72 42.03 14.49 33.51 14.49" fill="#fff"/>
  <polygon points="33.51 22.97 41.78 22.97 37.61 18.82 33.51 22.97" fill="#fff"/>
</svg>