<?xml version="1.0" encoding="UTF-8"?>
<svg id="Layer_1" data-name="Layer 1" xmlns="http://www.w3.org/2000/svg" width="46.1mm" height="13.2mm" viewBox="0 0 130.68 37.42">
  <path d="M62.26,18.36c.05.19.12.34.19.39.07.07.19.1.36.1h.83c.17,0,.32-.02.39-.1.1-.07.15-.19.19-.39l1.51-6.27,1.51,6.27c.05.19.12.32.19.39s.19.1.39.1h.83c.17,0,.29-.05.36-.1.07-.07.15-.19.19-.39l2.36-7.53c.05-.1.07-.19.07-.24.02-.05.02-.1.02-.15,0-.17-.1-.24-.24-.24h-.9c-.19,0-.32.05-.39.1-.07.07-.15.19-.19.39l-1.68,6.51-1.53-6.51c-.05-.19-.12-.34-.19-.39-.07-.07-.19-.1-.39-.1h-.78c-.17,0-.32.05-.39.1-.1.07-.15.19-.19.39l-1.51,6.44-1.63-6.44c-.05-.19-.12-.34-.19-.39-.07-.07-.19-.1-.39-.1h-.95c-.17,0-.24.1-.24.24,0,.07.05.19.1.39l2.28,7.53Z" fill="#fff" fill-rule="evenodd"/>
  <path d="M56.21,13.79c-.34-.05-.68-.07-1.02-.07-1,0-1.8.27-2.38.75-.58.49-.87,1.17-.87,1.99,0,.78.24,1.41.73,1.87.49.46,1.12.7,1.94.7,1.17,0,2.11-.44,2.87-1.34.1.24.19.41.29.58s.19.32.34.46c.1.1.19.15.29.15.07,0,.15-.05.24-.1l.61-.41c.15-.1.19-.19.19-.29,0-.07-.02-.15-.07-.22-.15-.27-.24-.49-.32-.7-.05-.22-.1-.51-.1-.87l-.02-3.13c0-1.09-.27-1.87-.8-2.41-.56-.51-1.38-.78-2.55-.78-.53,0-1.02.07-1.51.19-.46.12-.87.27-1.21.44-.12.05-.22.12-.27.19-.05.07-.07.19-.07.34v.49c0,.19.05.29.19.29.02,0,.07-.02.15-.02.07-.02.19-.07.34-.12.34-.15.68-.24,1.04-.34.36-.07.7-.12,1.04-.12.75,0,1.26.15,1.58.44.32.29.46.83.46,1.55v.7c-.39-.1-.75-.17-1.12-.22ZM57.38,15.08v.41c0,.34-.05.61-.1.85-.07.24-.19.44-.34.63-.27.29-.58.51-.92.63-.34.12-.68.17-1,.17-.46,0-.8-.1-1.04-.39-.24-.22-.36-.56-.36-1.02,0-.49.17-.85.49-1.12.34-.27.8-.39,1.46-.39.32,0,.61,0,.92.05.32.05.61.1.9.17Z" fill="#fff" fill-rule="evenodd"/>
  <path d="M72.71,18.53c.24.15.63.27,1.12.39.49.12,1,.17,1.51.17s.95-.05,1.43-.24c.41-.12.78-.29,1.07-.53.29-.22.53-.51.7-.85.15-.32.24-.7.24-1.12,0-.51-.15-.97-.44-1.36-.29-.39-.8-.7-1.51-.92l-1.38-.44c-.51-.17-.87-.34-1.07-.53-.19-.17-.29-.41-.29-.68,0-.41.17-.7.46-.87.29-.17.73-.27,1.29-.27.7,0,1.31.15,1.87.39.17.07.29.12.36.12.15,0,.22-.12.22-.32v-.46c0-.12-.05-.24-.1-.32-.05-.1-.15-.17-.29-.24-.1-.05-.24-.12-.41-.17-.17-.05-.36-.1-.56-.15-.19-.02-.41-.07-.63-.1-.22-.05-.44-.05-.66-.05-.41,0-.83.05-1.21.17-.39.12-.73.29-1.02.51-.29.22-.53.51-.7.8-.17.29-.27.66-.27,1.07,0,.51.17.97.49,1.41.32.44.85.78,1.55,1l1.41.44c.46.17.8.32.97.51.17.19.27.41.27.68,0,.39-.17.7-.51.92-.32.22-.8.32-1.41.32-.39,0-.78-.05-1.17-.12-.39-.07-.73-.19-1.07-.34-.1-.05-.19-.07-.24-.1-.05-.02-.12-.02-.17-.02-.15,0-.22.1-.22.29v.49c0,.07.05.19.07.27.02.07.15.17.29.27Z" fill="#fff" fill-rule="evenodd"/>
  <path d="M76.72,23.07c-3.6,1.53-7.51,2.26-11.05,2.26-5.27,0-10.35-1.43-14.48-3.84-.36-.19-.63.17-.34.44,3.81,3.45,8.87,5.51,14.48,5.51,3.98,0,8.65-1.26,11.86-3.62.51-.39.05-.97-.46-.75Z" fill="#fff" fill-rule="evenodd"/>
  <path d="M79.85,21.27c-.34-.44-3.35-.8-5.17.49-.29.19-.24.49.07.44,1.04-.12,3.33-.41,3.74.12.41.51-.44,2.67-.83,3.64-.12.29.12.41.39.19,1.7-1.43,2.14-4.45,1.8-4.88Z" fill="#fff" fill-rule="evenodd"/>
</svg>