<?xml version="1.0" encoding="UTF-8"?>
<svg id="Layer_1" data-name="Layer 1" xmlns="http://www.w3.org/2000/svg" width="46.1mm" height="13.2mm" viewBox="0 0 130.68 37.42">
  <path d="M52.54,18.57c0-2.73-1.69-4.42-4.41-4.42-2.91,0-4.79,1.81-4.79,4.62s1.65,4.5,4.42,4.5c2.95,0,4.78-1.8,4.78-4.7h0ZM47.91,22.66c-1.98,0-3.2-1.52-3.2-3.97s1.23-3.94,3.2-3.94,3.26,1.48,3.26,3.97-1.22,3.94-3.26,3.94" fill="#fff"/>
  <path d="M67.58,14.71l1.89.33.21,5.74-5.28-6.45h-2.66v.37l1.43.33-.05,7.34-1.27.31c-.36-.1-.93-.25-1.69-1.2,0,0-1.97-2.44-2.22-2.75.78-.22,2.05-.79,2.05-2.27,0-.97-.53-2.12-3.04-2.12h-3.92v.37l1.42.33v7.34l-1.42.33v.37h3.89v-.37l-1.26-.33v-7.39c.38-.06.75-.1,1-.1,1.39,0,2.07.52,2.07,1.59,0,1.66-1.34,1.9-1.89,1.97-.19.02-.41.03-.6.03v.37l.49.16,2.06,2.67c.69.89,1.19,1.4,3.52,1.4h3.44v-.37l-1.71-.33-.21-6.9,6.29,7.78h.17l.11-8.23,1.15-.33v-.36h-3.95" fill="#fff"/>
  <polyline points="81.19 22.7 79.48 22.37 79.27 15.48 85.56 23.26 85.72 23.26 85.83 15.03 86.99 14.7 86.99 14.34 83.04 14.34 83.04 14.71 84.93 15.04 85.14 20.78 79.87 14.34 77.21 14.34 77.21 14.71 78.63 15.03 78.58 22.38 77.21 22.71 77.21 23.07 81.19 23.07" fill="#fff"/>
  <path d="M41.52,20.59c-.27.89-.67,2.07-2.69,2.07-1.92,0-3.19-1.62-3.2-3.91-.01-2.42,1.18-4,3.29-4,1.78,0,2.31,1.09,2.5,2.24h.44v-2.19c-.49-.28-1.83-.66-2.96-.66-2.77,0-4.66,1.88-4.63,4.66.04,2.69,1.7,4.46,4.45,4.46,1.56,0,2.41-.41,3.22-.82,0,0,.2-2.34.2-2.34h-.46" fill="#fff"/>
  <path d="M95.3,19.69l1.12-.33v-.36h-4v.37l1.67.33v2.26c-.59.47-1.24.74-2.26.71-1.82-.06-3.11-1.62-3.11-3.91,0-2.52,1.18-4.01,3.34-4.01,1.9,0,2.42,1.23,2.61,2.23h.41v-2.16c-.57-.32-1.79-.68-3.2-.68-2.77,0-4.54,1.82-4.52,4.66.01,2.64,1.74,4.41,4.4,4.46,1.83.03,2.79-.48,3.54-.93,0,0,0-2.65,0-2.65" fill="#fff"/>
  <polyline points="76.39 22.71 74.97 22.38 74.97 15.03 76.39 14.71 76.39 14.34 72.34 14.34 72.34 14.71 73.76 15.03 73.76 22.38 72.34 22.71 72.34 23.07 76.39 23.07" fill="#fff"/>
</svg>