<?xml version="1.0" encoding="UTF-8"?>
<svg id="Layer_1" data-name="Layer 1" xmlns="http://www.w3.org/2000/svg" width="46.1mm" height="13.2mm" viewBox="0 0 130.68 37.42">
  <path d="M44.1,23.87c-.71,0-1.41,0-2.12,0h-.16v3.06h.15c.62,0,1.23,0,1.85,0,.25,0,.49.01.73-.11.41-.22.65-.54.65-1,0-.36.02-.73-.04-1.09-.09-.51-.55-.86-1.07-.86ZM44.28,25.95c-.01.22-.28.43-.52.44-.33,0-.66,0-1.01,0v-1.95c.39,0,.78-.02,1.16,0,.2.02.35.21.36.4.03.37.02.74,0,1.11Z" fill="#fff"/>
  <path d="M41.43,25.01h-1.85v.58h.92c0,.07,0,.14,0,.19.04.27-.18.54-.48.6-.19.03-.39.04-.58,0-.29-.06-.49-.28-.48-.59.01-.28,0-.56,0-.84,0-.16.05-.32.2-.39.13-.07.28-.13.42-.14.58-.02,1.16,0,1.74,0,.03-.27-.21-.54-.47-.54-.57,0-1.13,0-1.7,0-.59,0-1.14.54-1.13,1.13,0,.28,0,.55,0,.83,0,.54.43,1.06.99,1.1.5.04,1.01.02,1.51-.03.39-.04.66-.31.81-.67.16-.39.07-.8.09-1.21Z" fill="#fff"/>
  <path d="M32.57,24.78c-.44.05-.85.24-1.2.57v-1.47h-.91v3.04h.93c-.06-.48.08-.89.42-1.21.33-.32.76-.43,1.22-.44v1.64h.9v-2.03c0-.06,0-.1,0-.17-.46.02-.91,0-1.35.06Z" fill="#fff"/>
  <path d="M34.35,24.4h1.26v2.51h.93v-2.52h1.24v-.53h-3.44v.53Z" fill="#fff"/>
  <path d="M33.02,23.86c0,.14,0,.27,0,.39,0,.07,0,.12.1.12.24,0,.49.02.74.03,0-.17,0-.31,0-.46-.02-.04-.04-.09-.06-.09-.26,0-.52,0-.79,0Z" fill="#fff"/>
  <polygon points="45.61 10.48 38.63 18.23 41.25 22.03 45.61 10.48" fill="#fff"/>
  <polygon points="36.92 10.48 32 22.03 37.73 18.24 36.92 10.48" fill="#fff"/>
  <path d="M25.55,20.77c.83-1.95,6.23-2.82,6.23-2.82v-.42c-2.66.33-7.88,1.44-8.98,3.63-1.5,3.15,6.16,4.67,6.74,4.8v-2.26s-4.81-1.03-3.99-2.92Z" fill="#fff"/>
  <path d="M49.44,18.85c-1.78-.66-3.78-1.05-4.82-1.2v.47c.19.02,4.65.86,5.45,2.63.81,1.9-3.94,2.93-3.94,2.93v2.26c.89-.2,5.21-1.12,6.5-2.92.38-.53.52-1.15.21-1.84-.5-.99-1.86-1.77-3.4-2.35Z" fill="#fff"/>
  <path d="M74.39,23.86s-.06-.06-.08-.1c-.92-1.84-1.84-3.67-2.76-5.51-.05-.1-.11-.13-.21-.13-.31,0-.62,0-.93,0h-.54v7.17h1.42v-5.6c.06.04.09.08.11.13.9,1.81,1.8,3.61,2.7,5.42.04.09.09.12.19.12.2,0,.4,0,.6,0h.88v-7.23h-1.39v5.72Z" fill="#fff"/>
  <path d="M100.12,23.89h-.03c-.96-1.91-1.92-3.83-2.88-5.75h-1.61v7.16h1.41v-5.57c.06.04.09.09.11.14.9,1.8,1.8,3.59,2.69,5.39.04.08.08.11.17.11.46,0,.91,0,1.37,0,.04,0,.08,0,.12,0v-7.22h-1.36v5.75Z" fill="#fff"/>
  <path d="M62.08,21.16c-1-.32-1.99-.32-3.01-.01v-3.01h-1.49v7.22h1.47v-.17c0-1.03,0-2.05,0-3.08,0-.05.03-.14.06-.16.4-.17.82-.27,1.25-.27.23,0,.46.01.68.03.36.02.69.14,1.04.28v3.37h1.43v-7.22h-1.44v3.02Z" fill="#fff"/>
  <path d="M93.96,18.69c-.43-.38-.95-.54-1.51-.56-.47-.02-.94.02-1.4.02-.39,0-.75.14-1.07.36-.7.47-1.08,1.14-1.08,2,0,.83,0,1.66,0,2.49,0,.14,0,.29.03.43.13.63.46,1.14.99,1.51.42.29.89.41,1.4.42.36,0,.72,0,1.08,0,.2,0,.39-.03.58-.08.5-.11.92-.37,1.25-.76.21-.25.37-.54.46-.87.03-.17.08-.33.08-.49,0-.9,0-1.79,0-2.69,0-.73-.28-1.31-.83-1.79ZM92.37,24.61c-.47.12-.94.13-1.36-.15-.38-.25-.57-.62-.57-1.06,0-1.09,0-2.18,0-3.27.03-.68.39-1.18,1.05-1.29.42-.07.88-.07,1.26.22.31.24.51.55.51.95,0,1.14,0,2.27,0,3.41,0,.53-.37,1.07-.89,1.2Z" fill="#fff"/>
  <path d="M104.41,22.07h2.12c0,.47,0,.93,0,1.39-.01.47-.25.81-.64,1.06-.28.17-.59.15-.9.16-.72,0-1.26-.58-1.27-1.27-.01-1.11,0-2.21,0-3.32,0-.25.07-.49.23-.71.15-.25.36-.39.61-.49.25-.1.51-.08.76-.07.48.01.84.24,1.06.65.11.21.14.47.21.72h1.48s-.03-.05-.03-.08c-.08-.58-.36-1.04-.8-1.42-.45-.39-.98-.55-1.55-.56-.46-.01-.92.01-1.37.03-.49.02-.92.21-1.28.52-.57.48-.85,1.1-.85,1.85,0,.81,0,1.62,0,2.43,0,.19.02.37.06.56.11.52.38.96.79,1.3.49.41,1.07.56,1.69.55.32,0,.63,0,.95,0,.2,0,.4-.03.6-.08.54-.12.97-.4,1.31-.83.3-.39.49-.82.49-1.32,0-.52,0-1.03,0-1.55v-.15h-3.65v.63Z" fill="#fff"/>
  <path d="M82.39,21.44h-3.68v.63h2.15c0,.45,0,.88,0,1.32,0,.71-.58,1.31-1.29,1.29-.1,0-.18,0-.27,0-.68.02-1.26-.57-1.26-1.26,0-1.12,0-2.23,0-3.35,0-.53.35-1.04.87-1.18.23-.06.48-.05.72-.07.46-.03,1.01.35,1.15.83.05.18.08.36.12.55h1.47s0-.08,0-.11c-.02-.09-.03-.17-.06-.26-.28-.84-.83-1.4-1.7-1.61-.2-.05-.41-.08-.61-.08-.48,0-.97-.01-1.45.03-.56.05-1.02.31-1.41.72-.47.5-.65,1.09-.63,1.76.02.82,0,1.63,0,2.45,0,.19.04.39.09.58.19.65.61,1.11,1.19,1.43.35.19.74.24,1.13.26.34.01.69,0,1.04,0,.15,0,.3,0,.44-.03.52-.1.97-.32,1.34-.71.42-.44.64-.97.65-1.58,0-.49,0-.97,0-1.46v-.15Z" fill="#fff"/>
  <path d="M66.78,18.13c-.11,0-.23,0-.34.03-.57.11-1.06.36-1.43.81-.34.41-.54.87-.55,1.4,0,.88,0,1.75,0,2.63,0,.14,0,.29.03.43.12.6.42,1.09.92,1.46.46.35.98.46,1.54.47.27,0,.53,0,.81,0h1.49v-.69c-.69,0-1.36,0-2.04,0-.63,0-1.23-.57-1.23-1.23,0-.44,0-.87,0-1.31,0-.04,0-.09,0-.14h2.74v-.65h-2.72c0-.52-.03-1.02,0-1.52.05-.55.63-1.01,1.18-1.01.63,0,1.26,0,1.89,0h.15v-.68s-.03-.01-.05-.01c-.81,0-1.62,0-2.43,0Z" fill="#fff"/>
  <path d="M83.03,18.82h1.97v6.53h1.48v-6.54h2.03v-.67h-5.48v.69Z" fill="#fff"/>
</svg>