<?xml version="1.0" encoding="UTF-8"?>
<svg id="Layer_1" data-name="Layer 1" xmlns="http://www.w3.org/2000/svg" width="46.1mm" height="13.2mm" viewBox="0 0 130.68 37.42">
  <polygon points="59.05 19.26 55.19 19.26 55.19 15.85 53.47 15.85 53.47 24.29 55.19 24.29 55.19 20.87 59.05 20.87 59.05 24.29 60.76 24.29 60.76 15.85 59.05 15.85 59.05 19.26" fill="#fff"/>
  <path d="M68.7,20.68h0c0,1.38-.68,2.11-1.92,2.11s-1.93-.75-1.93-2.16v-4.76h-1.71v4.83c0,2.38,1.32,3.73,3.62,3.73s3.65-1.38,3.65-3.81v-4.76h-1.71v4.83Z" fill="#fff"/>
  <polygon points="88.48 21.65 86.57 15.85 85.16 15.85 83.25 21.65 81.38 15.86 79.57 15.86 82.51 24.29 83.92 24.29 85.84 18.75 87.75 24.29 89.19 24.29 92.12 15.86 90.35 15.86 88.48 21.65" fill="#fff"/>
  <polygon points="95.19 20.66 98.3 20.66 98.3 19.13 95.19 19.13 95.19 17.4 99.71 17.4 99.71 15.86 93.5 15.86 93.5 24.28 99.87 24.28 99.87 22.75 95.19 22.75 95.19 20.66" fill="#fff"/>
  <rect x="101.91" y="15.85" width="1.68" height="8.42" fill="#fff"/>
  <path d="M74.99,15.85l-3.71,8.43h1.74l.77-1.76h3.86l.76,1.76h1.8l-3.7-8.43h-1.51ZM74.42,21.01l1.29-3.02,1.3,3.02h-2.59Z" fill="#fff"/>
  <path d="M30.48,13.29s-1.93,1.77-1.81,3.68c.06,1.38,1.12,2.24,1.12,2.24,1.7,1.63,5.75,3.71,6.74,4.2.04.02.07,0,.1,0,.03-.03.03-.07,0-.1-2.59-5.68-6.17-10-6.17-10Z" fill="#fff"/>
  <path d="M27.28,18.95c-.51,1.56.15,2.91.15,2.91.75,1.65,2.2,2.11,2.2,2.11.65.25,1.18.27,1.18.27.1.02,4.17.02,5.24,0,.04,0,.07-.03.07-.06,0-.06-.02-.08-.04-.1-3-2.02-8.8-5.14-8.8-5.14Z" fill="#fff"/>
  <path d="M35.48,10.55c-1.81.45-2.25,2.11-2.25,2.11-.32.87,0,2.16,0,2.16.6,2.67,3.56,7.05,4.21,7.99.03.04.06.05.09.04.03,0,.05-.03.06-.07.98-9.83-1.04-12.43-1.04-12.43-.55.07-1.08.21-1.08.21Z" fill="#fff"/>
  <path d="M35.93,24.75c-1.7.06-6.84.23-6.84.23,1.53,2.63,3.29,2.03,3.29,2.03.95-.27,2.94-1.66,3.59-2.12.04-.03.03-.08.02-.1,0-.03-.05-.04-.07-.04Z" fill="#fff"/>
  <path d="M40.29,24.09s-.05.05-.04.09c0,.03.04.06.07.06,1.08,0,5.14,0,5.24,0,0,0,.52-.02,1.18-.27,0,0,1.45-.46,2.2-2.11,0,0,.67-1.34.15-2.9,0,0-5.8,3.12-8.8,5.14Z" fill="#fff"/>
  <path d="M43.15,12.66s-.45-1.67-2.25-2.11c0,0-.52-.13-1.08-.21,0,0-2.02,2.6-1.04,12.43,0,.06.04.07.06.07.04,0,.07,0,.09-.04.65-.94,3.6-5.32,4.21-7.99,0,0,.33-1.3,0-2.17Z" fill="#fff"/>
  <path d="M40.38,24.79s-.02.07.02.1c.65.47,2.64,1.85,3.59,2.12,0,0,1.77.6,3.29-2.03,0,0-5.13-.18-6.84-.23-.02,0-.06,0-.07.04Z" fill="#fff"/>
  <path d="M47.69,16.98c.12-1.91-1.8-3.68-1.8-3.68,0,0-3.56,4.32-6.17,10,0,.03-.02.08,0,.1.02.02.06.03.1,0,.97-.49,5.02-2.57,6.74-4.2,0,0,1.06-.86,1.11-2.24Z" fill="#fff"/>
</svg>