<?xml version="1.0" encoding="UTF-8"?>
<svg id="Layer_1" data-name="Layer 1" xmlns="http://www.w3.org/2000/svg" width="46.1mm" height="13.2mm" viewBox="0 0 130.68 37.42">
  <path d="M48.41,9.52h.08l1.55-3.65,3.02,7.06c.11.26.38.42.69.42h0c.52,0,.83-.48.64-.91l-3.74-8.46h0c-.23-.53-.99-.53-1.23,0l-1.9,4.35c-.27.66.16,1.19.88,1.19Z" fill="#fff"/>
  <path d="M49.11,10.21c0,.51.41.92.92.92s.92-.41.92-.92-.41-.92-.92-.92-.92.41-.92.92Z" fill="#fff"/>
  <path d="M60.47,12.72c0,.35.29.64.64.64h.06c.33-.03.58-.3.58-.64V4.19c0-.34-.28-.62-.62-.62h-.03c-.35,0-.63.28-.63.62v2.95c-.79-.72-1.49-1.06-2.52-1.06s-1.88.36-2.56,1.08c-.68.72-1.02,1.58-1.02,2.63s.34,1.94,1.02,2.65c.68.72,1.56,1.08,2.59,1.08s1.71-.36,2.49-1.07v.26ZM59.76,11.56c-.44.48-1.01.72-1.72.72s-1.28-.24-1.72-.72c-.44-.48-.65-1.09-.65-1.77s.22-1.27.65-1.75c.44-.48,1.01-.72,1.72-.72s1.28.24,1.72.72c.44.48.65,1.04.65,1.75s-.22,1.29-.65,1.77Z" fill="#fff"/>
  <path d="M67.94,13.35c.33-.03.58-.3.58-.63v-3.08c0-.76.23-1.38.6-1.77.37-.39.79-.58,1.36-.58.05,0,.1,0,.16,0,.33.02.62-.22.66-.55v-.06c0-.32-.25-.59-.57-.61-.07,0-.14,0-.21,0h0c-.91,0-1.66.45-2.06,1.09v-.3c0-.33-.27-.6-.61-.6h-.06c-.31.03-.55.29-.55.6v5.86c0,.35.29.64.64.64h.06Z" fill="#fff"/>
  <path d="M77.72,13.35c.34,0,.61-.27.61-.61v-5.88c0-.34-.28-.61-.61-.61h-.06c-.31.03-.56.29-.56.61v.28c-.75-.7-1.51-1.06-2.53-1.06h0c-1.03,0-1.89.35-2.57,1.04-.68.69-1.02,1.56-1.02,2.63s.34,1.96,1.02,2.69c.68.72,1.52,1.09,2.56,1.09s1.87-.4,2.53-1.08v.3c0,.34.28.61.61.61ZM76.37,11.56c-.44.48-1.02.72-1.72.72s-1.28-.24-1.71-.72c-.43-.48-.65-1.07-.65-1.76s.22-1.28.65-1.76c.43-.48,1-.72,1.71-.72s1.28.24,1.72.72c.44.48.66,1.04.66,1.75s-.22,1.29-.66,1.77Z" fill="#fff"/>
  <path d="M66.57,12.47h0c-.13-.27-.45-.39-.73-.28-.28.11-.55.17-.81.17-.78,0-1.16-.47-1.16-1.4v-3.61h1.8c.3,0,.55-.24.55-.54s-.25-.54-.55-.54h-1.8v-2.05c0-.34-.28-.62-.63-.62s-.63.28-.63.62v2.05s-.01,1.09-.01,1.09v3.52c0,.85.19,1.5.57,1.97.38.46.95.7,1.71.7.53,0,1.01-.1,1.42-.3.28-.14.4-.48.26-.76Z" fill="#fff"/>
  <path d="M84.68,6.84c-.54-.51-1.22-.77-2.02-.77-1.06,0-1.73.37-2.27,1.05v-.25c0-.34-.28-.61-.61-.61h-.03c-.34,0-.61.27-.61.61v5.88h0c0,.34.28.61.61.61h.05c.34,0,.61-.27.61-.61v-3.28c0-.64.23-1.2.6-1.61.37-.41.84-.61,1.42-.61.54,0,.94.19,1.27.56.34.38.51.91.51,1.6v3.34c0,.34.28.61.61.61h.04c.34,0,.61-.27.61-.61v-3.69c0-.96-.27-1.7-.82-2.21Z" fill="#fff"/>
  <path d="M46.32,13.35c.3,0,.58-.17.69-.42l.93-2.03h-.91c-.41,0-.8.3-.95.68l-.39.87c-.2.44.11.92.64.92Z" fill="#fff"/>
  <path d="M51.84,20.59v5.61s5.74-3.32,5.74-3.32l-2.84-1.66-1.93-1.17c-.42-.25-.96.05-.97.54Z" fill="#fff"/>
  <path d="M51.49,19.75c0-.23-.12-.44-.32-.55l-2.84-1.64h0s-2.2-1.27-2.2-1.27c-.42-.25-.96.06-.96.55v13.2l6.31-3.64v-6.64Z" fill="#fff"/>
  <path d="M54.73,24.81l-2.84,1.62-.39.23-3.16,1.82-3.16,1.82,3.16,1.82,2.84,1.64c.2.11.44.11.64,0l2.84-1.64,2.84-1.64c.2-.11.32-.32.32-.55v-6.92l-3.07,1.8h0Z" fill="#fff"/>
  <polygon points="61.16 26.09 61.66 26.09 61.66 23.69 62.45 23.69 62.45 23.24 60.37 23.24 60.37 23.69 61.16 23.69 61.16 26.09" fill="#fff"/>
  <path d="M63.71,24.05c-.57,0-1.01.43-1.01,1.05s.43,1.05,1.04,1.05c.42,0,.73-.2.9-.52l-.39-.18c-.11.17-.25.3-.51.3-.3,0-.55-.22-.57-.5h1.54c0-.06,0-.11,0-.14,0-.6-.42-1.05-.99-1.05ZM63.17,24.89c.03-.23.24-.46.53-.46s.5.2.53.46h-1.07Z" fill="#fff"/>
  <path d="M66.4,26.14c.2,0,.38-.05.55-.14v-.47c-.14.1-.31.18-.5.18-.36,0-.62-.27-.62-.61s.26-.61.62-.61c.17,0,.33.06.49.18v-.47c-.16-.09-.33-.14-.53-.14h0c-.62,0-1.05.44-1.05,1.05s.43,1.05,1.05,1.05Z" fill="#fff"/>
  <polygon points="68.2 26.09 68.2 26.09 68.2 26.09 68.2 26.09" fill="#fff"/>
  <path d="M68.81,24.05c-.28,0-.48.12-.61.31v-1.12h-.47v2.85h.47v-1.05c0-.34.18-.56.47-.56s.44.19.44.5v1.11h.47v-1.2c0-.52-.28-.84-.77-.84Z" fill="#fff"/>
  <polygon points="70.95 26.09 70.95 26.09 70.95 26.09 70.95 26.09" fill="#fff"/>
  <path d="M71.56,24.05c-.28,0-.48.12-.61.31v-.26h-.47v2h.47v-1.05c0-.34.18-.56.47-.56s.44.19.44.5v1.11h.47v-1.2c0-.52-.28-.84-.77-.84Z" fill="#fff"/>
  <path d="M74.15,24.05c-.61,0-1.06.46-1.06,1.05s.45,1.05,1.06,1.05,1.06-.46,1.06-1.05-.45-1.05-1.06-1.05ZM74.15,25.71c-.33,0-.59-.27-.59-.61s.26-.61.59-.61.59.27.59.61-.26.61-.59.61Z" fill="#fff"/>
  <rect x="76" y="23.24" width=".47" height="2.85" fill="#fff"/>
  <path d="M79.38,25.09c0-.59-.45-1.05-1.06-1.05s-1.06.46-1.06,1.05.45,1.05,1.06,1.05,1.06-.46,1.06-1.05ZM77.72,25.09c0-.34.26-.61.59-.61s.59.27.59.61-.26.61-.59.61-.59-.27-.59-.61Z" fill="#fff"/>
  <path d="M81.66,24.36c-.13-.2-.38-.32-.66-.32-.54,0-.96.45-.96,1.02s.42,1.01.96,1.01c.28,0,.52-.13.66-.32v.22c0,.39-.22.62-.58.62-.26,0-.46-.12-.59-.35l-.37.24c.18.33.52.53.97.53.65,0,1.04-.42,1.04-1.04v-1.87h-.46v.27ZM81.1,25.66c-.33,0-.58-.27-.58-.6s.25-.59.58-.59.58.26.58.59-.25.6-.58.6Z" fill="#fff"/>
  <path d="M83.85,25.53l-.55-1.44h-.5l.8,1.97-.09.21c-.09.23-.2.31-.37.31-.08,0-.15-.01-.21-.04v.4h0c.07.03.15.06.28.06.34,0,.56-.19.75-.66l.92-2.24h-.48l-.56,1.44Z" fill="#fff"/>
  <path d="M62.08,28.51c.19-.06.43-.26.43-.6,0-.4-.31-.67-.76-.67h-.79v2.7h0s.85,0,.85,0c.51,0,.86-.29.86-.74,0-.41-.29-.62-.6-.7ZM61.08,28.47v-1.11h.67c.37,0,.64.24.64.56s-.25.55-.58.55h-.73ZM61.82,29.84h-.74v-1.27h.73c.43,0,.75.27.75.64s-.3.62-.74.62Z" fill="#fff"/>
  <path d="M67,28.11v1.01c0,.39-.28.76-.69.76s-.68-.28-.68-.73v-1.05h-.11v1.06c0,.5.3.82.78.82.36,0,.62-.24.71-.47v.43h.11v-1.84h-.11Z" fill="#fff"/>
  <path d="M70.93,28.08h-.05c-.34,0-.61.26-.69.52v-.49h-.11v1.84h.11v-.94c0-.47.3-.82.68-.82h.05,0v-.11Z" fill="#fff"/>
  <path d="M74.31,28.07c-.52,0-.9.4-.9.96s.38.96.91.96c.35,0,.64-.19.79-.49h0s-.1-.04-.1-.04c-.14.26-.38.43-.69.43-.45,0-.8-.35-.8-.82h0s1.67,0,1.67,0c0-.02,0-.03,0-.04,0-.54-.36-.95-.88-.95ZM73.52,28.95c.02-.44.36-.78.79-.78s.75.33.77.78h-1.55Z" fill="#fff"/>
  <path d="M79.66,28.6c-.09-.25-.4-.53-.83-.53-.52,0-.94.42-.94.96s.42.96.94.96c.43,0,.74-.3.83-.54v.5h.11v-1.84h-.11v.49ZM78.83,29.88c-.46,0-.83-.37-.83-.85s.37-.85.83-.85c.51,0,.83.44.83.85s-.32.85-.83.85Z" fill="#fff"/>
  <path d="M84.2,28.11v1.01c0,.39-.28.76-.69.76s-.68-.28-.68-.73v-1.05h-.11v1.06c0,.5.3.82.78.82.36,0,.62-.24.71-.47v.43h.11v-1.84h-.11Z" fill="#fff"/>
</svg>