<?xml version="1.0" encoding="UTF-8"?>
<svg id="Layer_1" data-name="Layer 1" xmlns="http://www.w3.org/2000/svg" width="46.1mm" height="13.2mm" viewBox="0 0 130.68 37.42">
  <path d="M69.53,1.45h-4.22v4.74h-5.47V1.45h-4.22v4.74h-6.45v.99h6.45v5.86h-5.46v-3.75h2.26v2.6h.99v-3.59h-4.24v5.73h9.68v4.74h4.23v-4.74h16.16v-7.84h-9.71V1.45ZM65.31,13.04h-3.22v4.74h-2.25v-4.74h-3.23V2.44h2.24v9.46h.99v-4.72h5.47v5.86ZM78.25,7.18v5.86h-5.49v-3.75h2.26v2.6h.99v-3.59h-4.24v4.74h-2.23v-4.74h-.99v4.74h-2.24V2.44h2.24v4.74h9.71Z" fill="#fff"/>
  <rect x="62.09" y="8.3" width=".99" height="3.6" fill="#fff"/>
  <path d="M80.66,6.24c-.47,0-.85.38-.85.84s.38.85.85.85.84-.38.84-.85-.38-.84-.84-.84ZM80.66,7.81c-.41,0-.71-.32-.71-.74s.3-.73.71-.73.71.32.71.73-.3.74-.71.74Z" fill="#fff"/>
  <path d="M81.09,6.86c0-.16-.08-.25-.33-.25h-.41v.94h.12v-.43h.21l.27.43h.14l-.29-.43c.17,0,.3-.07.3-.26ZM80.64,7.02h-.18v-.33h.27c.12,0,.24.02.24.16,0,.19-.2.17-.33.17Z" fill="#fff"/>
  <polygon points="51.47 28.6 55.96 28.6 56.32 26.57 53.72 26.57 54.1 24.37 56.45 24.37 56.81 22.33 54.46 22.33 54.79 20.46 57.23 20.46 57.59 18.42 53.26 18.42 51.47 28.6" fill="#fff"/>
  <path d="M57.16,23.38l-.86,5.23h1.28l.61-3.73c.05-.27.19-.42.42-.43.24-.02.29.19.27.43l-.61,3.73h1.28l.7-4.28c.12-.71-.36-1.09-.96-1.09-.4,0-.84.4-1.02.8h-.02l.11-.65h-1.19Z" fill="#fff"/>
  <path d="M62.35,23.22c-.95.01-1.72.45-1.92,1.79l-.32,2.13c-.18,1.2.52,1.63,1.41,1.62,1.07-.02,1.76-.63,1.91-1.98h-1.22c-.09.44-.12.93-.57.91-.27-.02-.34-.26-.29-.55l.14-.92h2.07l.23-1.49c.17-1.13-.56-1.52-1.42-1.51ZM62.54,24.73l-.08.51h-.85l.05-.34c.06-.36.19-.7.54-.7.32,0,.36.34.34.53Z" fill="#fff"/>
  <path d="M65.53,23.35h-1.25l-.85,5.23h1.34l.53-3.22c.09-.43.26-.51.64-.51.13,0,.27.01.4.04l.27-1.68c-.55,0-.94.38-1.19.94h-.02l.13-.79h0Z" fill="#fff"/>
  <polygon points="75.65 24.93 75.65 24.93 75.65 24.93 75.65 24.93" fill="#fff"/>
  <path d="M78.44,24.56c-.86.34-1.71.69-2.57,1.03-.21-.14-.45-.27-.69-.41-.16-.11-.33-.25-.29-.53.05-.31.24-.44.47-.44.38,0,.32.37.29.72h1.13c.22-1.16-.41-1.71-1.29-1.71s-1.65.49-1.81,1.62c-.06.38,0,.69.16.98.1.17.23.3.37.42-.52.21-1.04.42-1.56.63l1.16-3.51h-1.21l-.95,3.38h-.01l.11-3.38h-1.23l.11,4.32c-.61.25-1.23.49-1.84.74.5-.34.83-.94.96-1.79.13-.85.02-1.32-.23-1.67-.25-.35-.64-.6-1.07-.99-.23-.22-.36-.44-.26-.86.08-.31.26-.49.53-.47.42.04.33.6.28,1.01h1.21c.26-1.32-.18-2.27-1.31-2.27-1.01,0-1.75.67-1.95,1.99-.09.62-.02,1.05.16,1.4.19.35.49.62.85.92.3.26.66.48.56,1.07-.06.36-.24.7-.55.7-.41,0-.46-.35-.4-.75l.08-.49h0s-1.22,0-1.22,0l-.12.75c-.14.93.24,1.76,1.43,1.76.13,0,.26-.01.38-.03-1.98.79-3.96,1.59-5.93,2.38-1.69.68-3.37,1.36-5.06,2.04-1.6.65-3.2,1.3-4.8,1.95-.51.21-1.02.42-1.53.63-.21.09-.42.18-.62.26h-.04v.02c.39-.08.78-.16,1.17-.25.98-.2,1.95-.4,2.92-.59.74-.15,1.5-.31,2.26-.41.49-.07.98-.18,1.48-.23.3-.04.61-.08.92-.09.12,0,.34.05.42.02.45-.26.89-.53,1.34-.79,1.06-.61,2.12-1.23,3.19-1.82,1.28-.7,2.57-1.4,3.86-2.08.45-.24.91-.47,1.36-.7.53-.27,1.07-.54,1.6-.81.01.24.03.56,0,.77-.03.2-.28.29-.41.26-.08-.02-.16-.03-.24-.04l-.17,1.1c.12,0,.26.05.48.05,1.34,0,1.51-1.1,2.04-2.52l.18-.53c.44-.21.88-.43,1.33-.64.19-.09.38-.18.57-.27.27.18.57.33.81.51.08.09.12.25.1.4-.05.34-.25.49-.51.49-.36,0-.39-.42-.32-.79h-1.15c-.24,1.26.36,1.77,1.32,1.77.89,0,1.68-.49,1.86-1.67.11-.77-.15-1.16-.53-1.45.11-.05.22-.1.33-.15.23-.1.46-.2.69-.31.3-.13.6-.26.9-.39.2-.08.39-.16.58-.25,0-.03-.02-.02-.05-.02Z" fill="#fff"/>
  <path d="M77.38,28.2c0-.09-.06-.14-.18-.14h-.18v.48h.08v-.21h.07l.12.21h.09l-.13-.21c.07,0,.13-.04.13-.13ZM77.1,28.27v-.14h.09s.11,0,.11.07c0,.07-.05.08-.11.08h0s-.09,0-.09,0Z" fill="#fff"/>
  <path d="M77.18,27.86c-.23,0-.43.17-.43.44,0,.25.18.44.43.44.23,0,.42-.17.42-.44s-.2-.44-.42-.44ZM77.18,28.66c-.21,0-.33-.16-.33-.36,0-.21.14-.36.33-.36s.33.15.33.36-.15.36-.33.36Z" fill="#fff"/>
</svg>