<?xml version="1.0" encoding="UTF-8"?>
<svg id="Layer_1" data-name="Layer 1" xmlns="http://www.w3.org/2000/svg" width="46.1mm" height="13.2mm" viewBox="0 0 130.68 37.42">
  <path d="M85.99,15.08s.06,0,.1,0l.65-.43-1.31-.07.86-.5-1.39-.13-.94.47-1.15-.21.99-.43-1.09-.23-1.11.39.86.21-.76.29-.87-.22.77-.28-1.23-.37,1.05-.35-1.04-.33-1.1.29.8.31-.82.25-.86-.33.86-.22-1.19-.52,1.02-.28-1.12-.54-1.02.23-.98-.6.99-.21s-.55-.34-.76-.48c-.28.04-1.2.15-1.73.17-1.05.04-2.03.04-3.31-.13-1.89-.25-4.66-.89-7.67-2.92,2.9,2.67,7.02,5.02,11.17,6.2,3.89,1.1,7.42,1.38,11.31,1.02ZM83.94,14.41l.76.1-.57.28-.77-.1.58-.28ZM72.99,11.76l-.34-.23.46-.05.3.22-.42.06ZM74.66,12.62l-.56-.35.65-.13.55.34-.63.15ZM74.94,11.66l-.48-.35.61-.09.47.31-.59.13ZM76.69,13.67l-.66-.31.63-.14.62.3-.59.15ZM76.82,12.63l-.7-.38.83-.2.74.39-.87.19ZM78.87,14.41l-.54-.18.48-.16.53.18-.47.16Z" fill="#fff"/>
  <path d="M51.66,14.67s-.08,0-.12,0c0,0,.04,0,.12,0Z" fill="#fff"/>
  <path d="M66.11,11.25c-2.06-1.4-3.22-2.47-3.22-2.47-4.13,5.59-10.31,5.88-11.23,5.89,2.74.02,4.99-.27,6.83-.66,1.56-.33,2.82-.73,3.86-1.1,1.22-.43,2.11-.84,2.78-1.16.57-.27.99-.49.98-.5Z" fill="#fff"/>
  <polygon points="79.23 11.53 78.18 11.05 77.35 11.23 78.33 11.74 79.23 11.53" fill="#fff"/>
  <polygon points="81.7 12.38 80.49 12.01 79.5 12.26 80.58 12.67 81.7 12.38" fill="#fff"/>
  <polygon points="84.04 12.9 82.93 12.68 81.85 13.04 82.88 13.32 84.04 12.9" fill="#fff"/>
  <polygon points="86.33 13.15 85.26 13.06 84.13 13.54 85.22 13.69 86.33 13.15" fill="#fff"/>
  <polygon points="88.74 13.18 87.62 13.2 86.54 13.8 87.75 13.84 88.74 13.18" fill="#fff"/>
  <polygon points="90.97 12.98 89.93 13.1 89.13 13.72 90.23 13.65 90.97 12.98" fill="#fff"/>
  <path d="M86.74,14.63h1.35s.65-.52.65-.52c-.57.02-1.25.02-1.25.02l-.76.51Z" fill="#fff"/>
  <path d="M90.1,14.02l-.55.5c.41-.09.8-.19,1.15-.28l.3-.32c-.27.03-.57.07-.9.1Z" fill="#fff"/>
  <polygon points="92.79 13.6 92.79 13.6 92.79 13.6 92.79 13.6" fill="#fff"/>
  <polygon points="91.91 13.29 92.66 13.16 93.18 12.56 92.44 12.73 91.91 13.29" fill="#fff"/>
  <polygon points="79.18 10.75 78.67 10.52 78.19 10.62 78.69 10.85 79.18 10.75" fill="#fff"/>
  <polygon points="81.66 11.64 80.88 11.43 80.02 11.6 80.81 11.86 81.66 11.64" fill="#fff"/>
  <polygon points="84.01 12.1 83.22 11.98 82.22 12.24 83.04 12.41 84.01 12.1" fill="#fff"/>
  <polygon points="86.41 12.29 85.58 12.26 84.55 12.64 85.42 12.72 86.41 12.29" fill="#fff"/>
  <polygon points="88.71 12.22 87.87 12.27 86.94 12.76 87.8 12.74 88.71 12.22" fill="#fff"/>
  <polygon points="91.07 11.88 90.25 12.02 89.37 12.61 90.27 12.49 91.07 11.88" fill="#fff"/>
  <polygon points="91.75 12.2 92.6 11.98 93.22 11.34 92.45 11.56 91.75 12.2" fill="#fff"/>
  <polygon points="94.73 10.87 94.28 11.38 94.85 11.17 95.26 10.65 94.73 10.87" fill="#fff"/>
  <path d="M37.82,18.54c-.49,0-.96.09-1.39.26v-2.22h-1.01v7.15c.69.15,1.44.22,2.26.22,1.9,0,2.85-.94,2.85-2.82,0-1.73-.9-2.6-2.71-2.6ZM37.63,23.16c-.47,0-.87-.05-1.2-.15v-3.37c.4-.19.86-.28,1.38-.28,1.15,0,1.73.58,1.73,1.74,0,1.37-.64,2.06-1.91,2.06Z" fill="#fff"/>
  <path d="M42.35,18.54h-.68v5.42h1.01v-3.94c.42-.46.98-.69,1.66-.69v-.79c-.71,0-1.31.23-1.81.69l-.18-.69Z" fill="#fff"/>
  <path d="M47.57,18.54c-1.82,0-2.72.9-2.72,2.71,0,1.8.92,2.7,2.72,2.7s2.72-.9,2.72-2.7-.91-2.71-2.72-2.71ZM47.57,23.18c-1.14,0-1.72-.65-1.72-1.96s.57-1.91,1.72-1.91,1.72.64,1.72,1.91-.57,1.96-1.72,1.96Z" fill="#fff"/>
  <path d="M53.44,18.54c-.59,0-1.19.09-1.81.26v.77c.62-.17,1.22-.26,1.81-.26,1.03,0,1.54.29,1.54.88v.51c-.43-.07-.92-.1-1.49-.1-1.55,0-2.32.56-2.32,1.67s.72,1.69,2.15,1.69c.67,0,1.26-.13,1.75-.38l.4.38h.51v-3.68c0-1.16-.85-1.73-2.55-1.73ZM54.98,22.76c-.41.28-.96.42-1.66.42-.76,0-1.14-.31-1.14-.93,0-.58.44-.88,1.31-.88.6,0,1.09.03,1.49.1v1.28Z" fill="#fff"/>
  <path d="M59.68,23.96c1.02,0,1.87-.11,2.57-.32v-7.05h-1.01v2.22c-.44-.17-.91-.26-1.4-.26-1.81,0-2.71.87-2.71,2.6,0,1.88.85,2.82,2.56,2.82ZM59.85,19.37c.52,0,.99.09,1.4.28v3.32c-.41.13-.87.2-1.4.2-1.15,0-1.73-.69-1.73-2.06,0-1.16.58-1.74,1.73-1.74Z" fill="#fff"/>
  <path d="M68.77,21.12c0-1.72-.92-2.57-2.75-2.57-.81,0-1.59.07-2.35.22v7.16h1.01v-2.22c.43.17.87.26,1.33.26,1.85,0,2.77-.95,2.77-2.84ZM65.99,23.13c-.49,0-.93-.09-1.32-.28v-3.39c.38-.08.83-.12,1.34-.12,1.18,0,1.77.59,1.77,1.77,0,1.35-.59,2.03-1.78,2.03Z" fill="#fff"/>
  <path d="M72.38,18.54c-1.83,0-2.74.88-2.74,2.65s.96,2.77,2.89,2.77c.72,0,1.34-.05,1.84-.15v-.77c-.51.1-1.01.16-1.52.16-1.47,0-2.21-.55-2.21-1.66h3.85c.34-1.99-.37-2.98-2.12-2.98ZM70.64,20.73c.07-.95.59-1.42,1.57-1.42s1.41.47,1.36,1.42h-2.93Z" fill="#fff"/>
  <path d="M77.9,20.61c-1.55,0-2.32.56-2.32,1.67s.72,1.69,2.15,1.69c.67,0,1.26-.13,1.75-.38l.4.38h.51v-3.68c0-1.16-.85-1.73-2.55-1.73-.59,0-1.19.09-1.81.26v.77c.62-.17,1.22-.26,1.81-.26,1.03,0,1.54.29,1.54.88v.51c-.43-.07-.92-.1-1.49-.1ZM79.39,22.76c-.41.28-.96.42-1.66.42-.76,0-1.14-.31-1.14-.93,0-.58.44-.88,1.31-.88.6,0,1.09.03,1.49.1v1.28Z" fill="#fff"/>
  <path d="M83.55,20.99c.88-.32,2.11-.93,3.06-2.04l-.73-.41c-.99,1.13-2.42,1.65-3.05,1.84v-3.8h-1.01v7.38h1.01v-2.38l2.78,2.38h1.29l-3.35-2.97Z" fill="#fff"/>
  <polygon points="57.16 27.35 57.75 27.35 57.75 29.05 58 29.05 58 27.35 58.59 27.35 58.59 27.16 57.16 27.16 57.16 27.35" fill="#fff"/>
  <path d="M59.56,27.66c-.17,0-.31.05-.43.15v-.65h-.24v1.89h.24v-1.01c.13-.12.26-.18.4-.18.21,0,.31.1.31.31v.88h.24v-.87c0-.34-.17-.52-.52-.52Z" fill="#fff"/>
  <rect x="60.52" y="27.66" width=".24" height="1.39" fill="#fff"/>
  <rect x="60.52" y="27.16" width=".24" height=".23" fill="#fff"/>
  <path d="M61.79,28.24h-.2c-.15,0-.22-.06-.22-.19,0-.13.12-.2.35-.2.17,0,.33.03.49.08v-.21c-.16-.04-.33-.07-.49-.07-.39,0-.58.13-.58.4s.15.41.45.41h.2c.15,0,.23.06.23.19,0,.13-.11.2-.33.2-.17,0-.33-.03-.49-.08v.21c.16.04.33.07.49.07.38,0,.58-.13.58-.4s-.16-.41-.48-.41Z" fill="#fff"/>
  <rect x="63.33" y="27.66" width=".24" height="1.39" fill="#fff"/>
  <rect x="63.33" y="27.16" width=".24" height=".23" fill="#fff"/>
  <path d="M64.6,28.24h-.2c-.15,0-.22-.06-.22-.19,0-.13.12-.2.35-.2.17,0,.33.03.49.08v-.21c-.16-.04-.33-.07-.49-.07-.39,0-.58.13-.58.4s.15.41.45.41h.2c.15,0,.23.06.23.19,0,.13-.11.2-.33.2-.17,0-.33-.03-.49-.08v.21c.16.04.33.07.49.07.38,0,.58-.13.58-.4s-.16-.41-.48-.41Z" fill="#fff"/>
  <path d="M66.69,28.24h-.2c-.15,0-.22-.06-.22-.19,0-.13.12-.2.35-.2.17,0,.33.03.49.08v-.21c-.16-.04-.33-.07-.49-.07-.39,0-.58.13-.58.4s.15.41.45.41h.2c.15,0,.23.06.23.19,0,.13-.11.2-.33.2-.17,0-.33-.03-.49-.08v.21c.16.04.33.07.49.07.38,0,.58-.13.58-.4s-.16-.41-.48-.41Z" fill="#fff"/>
  <path d="M67.67,27.43h-.15v1.24c0,.25.12.37.35.37h.23v-.2h-.17c-.11,0-.17-.06-.17-.19v-.8h.34v-.2h-.38l-.05-.22Z" fill="#fff"/>
  <path d="M68.6,27.66h-.17v1.39h.24v-1.01c.1-.12.24-.18.4-.18v-.2c-.17,0-.32.06-.44.18l-.04-.18Z" fill="#fff"/>
  <path d="M69.92,27.66c-.43,0-.64.23-.64.68s.24.71.72.71c.18,0,.32-.02.45-.05v-.2c-.12.04-.26.05-.42.05-.33,0-.5-.14-.5-.43h.97c0-.06.01-.12.01-.18,0-.39-.2-.59-.59-.59ZM69.53,28.22c.02-.24.15-.36.39-.36.23,0,.35.12.36.36h-.75Z" fill="#fff"/>
  <path d="M71.35,27.66c-.14,0-.29.02-.44.07v.2c.15-.04.3-.07.44-.07.25,0,.37.08.37.24v.13c-.12-.02-.24-.03-.36-.03-.38,0-.56.14-.56.43s.17.42.5.42c.16,0,.31-.05.45-.14l.08.14h.14v-.96c0-.29-.21-.43-.62-.43ZM71.72,28.71c-.12.09-.26.13-.43.13s-.25-.07-.25-.22.11-.22.32-.22c.12,0,.24,0,.36.03v.29Z" fill="#fff"/>
  <path d="M73.9,27.66c-.16,0-.31.06-.46.19-.07-.13-.21-.19-.41-.19-.16,0-.3.06-.43.17l-.04-.17h-.17v1.39h.24v-1c.11-.12.23-.18.37-.18.17,0,.26.11.26.31v.87h.24v-1c.11-.12.24-.18.37-.18.17,0,.26.1.26.31v.87h.24v-.86c0-.35-.16-.53-.48-.53Z" fill="#fff"/>
  <rect x="74.82" y="27.66" width=".24" height="1.39" fill="#fff"/>
  <rect x="74.82" y="27.16" width=".24" height=".23" fill="#fff"/>
  <path d="M76.19,27.66c-.17,0-.33.06-.47.18l-.04-.18h-.17v1.39h.24v-1.01c.13-.12.26-.18.4-.18.21,0,.31.1.31.31v.88h.24v-.87c0-.34-.17-.52-.52-.52Z" fill="#fff"/>
  <path d="M77.06,28.34c0,.47.22.7.66.7.12,0,.23-.02.34-.07v.07c0,.2-.13.3-.39.3-.17,0-.32-.02-.46-.07v.2c.13.04.28.07.45.07.43,0,.64-.17.64-.5v-1.33c-.18-.04-.36-.06-.54-.06-.46,0-.69.23-.69.69ZM78.05,28.76c-.1.05-.21.07-.33.07-.28,0-.42-.16-.42-.49s.15-.48.44-.48c.12,0,.23.01.31.03v.87Z" fill="#fff"/>
  <path d="M79.88,27.66c-.14,0-.29.02-.44.07v.2c.15-.04.3-.07.44-.07.25,0,.37.08.37.24v.13c-.12-.02-.24-.03-.36-.03-.38,0-.56.14-.56.43s.17.42.5.42c.16,0,.31-.05.45-.14l.08.14h.14v-.96c0-.29-.21-.43-.62-.43ZM80.26,28.71c-.12.09-.26.13-.43.13s-.25-.07-.25-.22.11-.22.32-.22c.12,0,.24,0,.36.03v.29Z" fill="#fff"/>
  <path d="M81.07,27.43h-.15v1.24c0,.25.12.37.35.37h.23v-.2h-.17c-.11,0-.17-.06-.17-.19v-.8h.34v-.2h-.38l-.05-.22Z" fill="#fff"/>
  <rect x="82.54" y="27.16" width=".24" height=".23" fill="#fff"/>
  <rect x="82.54" y="27.66" width=".24" height="1.39" fill="#fff"/>
  <path d="M83.39,27.43h-.15v1.24c0,.25.12.37.35.37h.23v-.2h-.17c-.11,0-.17-.06-.17-.19v-.8h.34v-.2h-.38l-.05-.22Z" fill="#fff"/>
  <path d="M84.73,28.24h-.2c-.15,0-.22-.06-.22-.19,0-.13.12-.2.35-.2.17,0,.33.03.49.08v-.21c-.16-.04-.33-.07-.49-.07-.39,0-.58.13-.58.4s.15.41.45.41h.2c.15,0,.23.06.23.19,0,.13-.11.2-.33.2-.17,0-.33-.03-.49-.08v.21c.16.04.33.07.49.07.38,0,.58-.13.58-.4s-.16-.41-.48-.41Z" fill="#fff"/>
  <path d="M86.81,27.66c-.2,0-.39.02-.57.06v1.83h.24v-.57c.1.04.21.07.32.07.45,0,.67-.24.67-.73,0-.44-.22-.66-.67-.66ZM86.8,28.84c-.12,0-.23-.02-.32-.07v-.87c.09-.02.2-.03.32-.03.29,0,.43.15.43.45,0,.35-.14.52-.43.52Z" fill="#fff"/>
  <path d="M88.4,27.66c-.43,0-.64.23-.64.68s.24.71.72.71c.18,0,.32-.02.45-.05v-.2c-.12.04-.26.05-.42.05-.33,0-.5-.14-.5-.43h.97c0-.06.01-.12.01-.18,0-.39-.2-.59-.59-.59ZM88.01,28.22c.02-.24.15-.36.39-.36.23,0,.35.12.36.36h-.75Z" fill="#fff"/>
  <path d="M89.83,27.66c-.14,0-.29.02-.44.07v.2c.15-.04.3-.07.44-.07.25,0,.37.08.37.24v.13c-.12-.02-.24-.03-.36-.03-.38,0-.56.14-.56.43s.17.42.5.42c.16,0,.31-.05.45-.14l.08.14h.14v-.96c0-.29-.21-.43-.62-.43ZM90.2,28.71c-.12.09-.26.13-.43.13s-.25-.07-.25-.22.11-.22.32-.22c.12,0,.24,0,.36.03v.29Z" fill="#fff"/>
  <path d="M92.09,27.77l-.19-.11c-.25.29-.62.42-.78.47v-.97h-.26v1.89h.26v-.61l.71.61h.33l-.86-.76c.22-.08.54-.24.78-.52Z" fill="#fff"/>
</svg>