<?xml version="1.0" encoding="UTF-8"?>
<svg id="Layer_1" data-name="Layer 1" xmlns="http://www.w3.org/2000/svg" width="46.1mm" height="13.2mm" viewBox="0 0 130.68 37.42">
  <path d="M74.3,16.52c-.29-.05-.78-.07-1.52-.07-.83,0-1.42.02-1.81.12-.44.12-.76.34-.93.69-.1.17-.15.37-.17.56-.05.2-.05.51-.05.93,0,.54.05.93.12,1.2.05.27.22.49.42.64s.47.27.81.32c.34.07.81.1,1.44.1.76,0,1.32-.02,1.71-.1.39-.07.69-.22.88-.39.22-.2.37-.54.42-1h-1.62c-.02.12-.07.22-.07.24-.05.07-.2.12-.37.15-.17.05-.44.05-.81.05-.59,0-.93-.05-1.1-.17-.1-.07-.15-.15-.17-.24-.05-.07-.05-.24-.05-.47h4.24v-.44c0-.71-.1-1.22-.29-1.52-.2-.29-.56-.51-1.08-.59ZM71.39,18.16c.02-.29.12-.49.29-.59.17-.1.54-.15,1.08-.15.61,0,.98.07,1.13.22.05.05.1.12.1.17,0,.07.02.18.02.34h-2.62Z" fill="#fff"/>
  <path d="M59.81,16.88c-.2-.2-.39-.32-.66-.37s-.76-.07-1.47-.07c-.95,0-1.66.05-2.06.15-.42.1-.71.29-.91.56-.12.17-.2.42-.22.76h1.62c.02-.2.1-.32.24-.39.15-.05.49-.07,1.08-.07.51,0,.81.05.93.12.15.1.2.29.2.64v.22h-.07c-.12-.15-.27-.22-.42-.27-.17-.02-.44-.05-.81-.05-.88,0-1.47.02-1.79.07-.34.05-.59.17-.78.34-.24.24-.37.61-.37,1.1s.1.78.32.98c.15.15.34.24.56.29s.56.07,1,.07c.54,0,.93,0,1.18-.02s.44-.07.59-.12c.24-.12.44-.29.56-.54h.07v.59h1.57v-2.6c0-.39-.02-.69-.07-.88-.05-.2-.15-.37-.29-.51ZM58.22,19.9c-.2.07-.59.1-1.15.1-.44,0-.73-.05-.88-.1-.17-.07-.24-.2-.24-.37s.1-.29.24-.37c.12-.07.47-.1,1-.1.61,0,.98.02,1.08.07.2.07.27.2.27.37,0,.2-.12.32-.32.39Z" fill="#fff"/>
  <path d="M66.44,16.86c-.2-.15-.47-.27-.78-.32-.32-.07-.73-.1-1.27-.1s-.95.05-1.2.15c-.27.1-.47.27-.64.54h-.07v-2.35h-1.57v6.1h1.52v-.56h.07c.12.2.24.34.37.42.29.2.81.27,1.57.27s1.3-.05,1.66-.2c.37-.12.61-.37.73-.71.07-.17.1-.34.12-.54.02-.2.02-.47.02-.83,0-.54-.05-.95-.12-1.22-.05-.27-.2-.49-.42-.64ZM65.27,19.31c-.02.12-.1.24-.2.29-.17.12-.56.17-1.13.17-.51,0-.86-.05-1.08-.12-.15-.05-.27-.15-.32-.27s-.07-.32-.07-.64c0-.29.02-.51.07-.64.05-.12.12-.24.24-.29.2-.1.56-.15,1.13-.15.49,0,.83.05,1.03.15.15.05.24.15.29.27s.07.32.07.61c0,.27-.02.47-.05.61Z" fill="#fff"/>
  <path d="M49.87,17.77c.2-.07.51-.12,1-.12s.81.05,1,.15c.2.1.32.27.34.51h1.64c-.02-.39-.05-.71-.12-.91s-.2-.37-.37-.51c-.2-.17-.49-.29-.86-.34-.37-.07-.91-.1-1.62-.1s-1.27.05-1.62.1c-.34.05-.61.17-.83.34-.2.17-.32.37-.39.64-.07.27-.1.66-.1,1.18,0,.56.05,1,.17,1.22.05.27.22.49.42.64.2.17.49.27.81.32.32.05.83.07,1.49.07.83,0,1.44-.05,1.79-.1.34-.05.64-.2.83-.42.15-.12.24-.29.29-.49.05-.17.1-.44.1-.81h-1.64c-.05.24-.15.42-.34.49-.17.07-.51.12-.98.12-.44,0-.78-.02-.98-.12-.15-.07-.24-.17-.29-.29-.05-.12-.07-.34-.07-.61s.02-.49.07-.64c.05-.15.12-.27.24-.32Z" fill="#fff"/>
  <rect x="67.57" y="14.78" width="1.62" height="6.1" fill="#fff"/>
  <path d="M89.88,17.72c.2-.07.51-.12,1-.12s.81.05,1,.15c.2.1.32.27.34.51h1.64c-.02-.39-.05-.71-.12-.91-.07-.2-.2-.37-.37-.51-.2-.17-.49-.27-.86-.34-.37-.07-.91-.1-1.62-.1s-1.27.05-1.62.1c-.34.05-.61.17-.83.34-.2.17-.32.37-.39.64-.07.27-.1.66-.1,1.18,0,.56.05,1,.12,1.27.05.27.22.49.42.64.2.17.49.27.81.32.32.05.83.07,1.49.07.83,0,1.42-.02,1.79-.1.34-.05.64-.2.83-.42.15-.12.24-.29.29-.49.05-.17.1-.44.1-.81h-1.64c-.02.24-.12.42-.29.44-.17.07-.51.12-.98.12-.44,0-.78-.02-.98-.12-.15-.07-.24-.17-.29-.29-.05-.12-.07-.34-.07-.61s.02-.49.07-.64c.05-.15.12-.27.24-.32Z" fill="#fff"/>
  <path d="M99.79,16.98c-.17-.2-.42-.34-.71-.42-.29-.1-.69-.12-1.15-.12-.51,0-.91.05-1.2.17-.29.12-.51.32-.64.59h-.07v-2.42h-1.62v6.12s1.62,0,1.62,0v-1.86c0-.34.02-.59.05-.73.05-.15.1-.27.2-.37.17-.17.56-.27,1.13-.27s.93.07,1.08.24c.07.07.12.17.15.29s.02.29.02.56v2.11h1.64v-2.11c0-.51-.05-.88-.1-1.13-.07-.24-.2-.47-.39-.66Z" fill="#fff"/>
  <path d="M79.69,19.43c0,.07-.02.12-.05.17-.07.15-.27.22-.59.22-.29,0-.49-.07-.56-.22-.05-.1-.07-.29-.07-.64v-1.25h2.55v-1.15h-2.55v-1h-1.62v.98h-.86v1.15h.86v1.96c.02.24.05.44.1.56.05.12.12.27.24.37.17.15.37.27.61.32.24.05.64.07,1.15.07.56,0,1-.05,1.27-.12.27-.07.49-.22.66-.42.12-.15.2-.32.24-.51.05-.2.07-.49.07-.91h-1.47v.42Z" fill="#fff"/>
  <path d="M86.08,16.52c-.29-.05-.78-.07-1.52-.07-.83,0-1.42.02-1.81.12-.44.12-.76.34-.93.69-.1.17-.15.37-.17.56-.05.2-.05.51-.05.93,0,.54.05.93.12,1.2.07.27.22.49.42.64.2.15.47.27.81.32.34.07.81.1,1.44.1.76,0,1.32-.02,1.71-.1.39-.07.69-.22.88-.39.22-.2.37-.54.42-1h-1.62c-.02.12-.07.22-.07.24-.05.07-.2.12-.37.15-.17.05-.44.05-.81.05-.59,0-.93-.05-1.1-.17-.1-.07-.15-.15-.17-.24-.05-.07-.05-.24-.05-.47h4.24v-.44c0-.71-.1-1.22-.29-1.52-.2-.29-.56-.51-1.08-.59ZM83.19,18.16c.02-.29.12-.49.29-.59.17-.1.54-.15,1.08-.15.61,0,.98.07,1.13.22.05.05.1.12.1.17,0,.07.02.18.02.34h-2.62Z" fill="#fff"/>
  <path d="M38.7,15.56l-1.96,1.96,1.03,1.03.83-.83,1,1,1.1-1.13c.64-.61,1.64-.64,2.25,0s.61,1.64,0,2.25c-.64.61-1.64.61-2.25,0l-1.84,1.84-.17.17c1.74,1.74,4.55,1.74,6.29,0,1.74-1.74,1.74-4.55,0-6.29s-4.55-1.74-6.29,0Z" fill="#fff"/>
  <path d="M37.4,18.89l-1-1-1.96,1.96c-.64.61-1.64.61-2.25,0-.61-.64-.64-1.64,0-2.25.64-.61,1.64-.61,2.25,0l.1-.1,1.84-1.84.1-.1c-1.74-1.74-4.55-1.74-6.29,0-1.74,1.74-1.74,4.55,0,6.29,1.74,1.74,4.55,1.74,6.29,0l1.1-1.13-1-1,.83-.83Z" fill="#fff"/>
  <path d="M101.46,17.08s.05-.07.05-.12c0-.07-.02-.12-.05-.15-.05-.05-.1-.05-.17-.05h-.24v.64h.1v-.27h.12l.17.29h.1l-.2-.29s.1-.02.12-.05ZM101.16,17.03v-.2h.12s.07.02.1.02c.02.02.02.05.02.07,0,.05,0,.07-.02.07-.02.02-.07.02-.12.02h-.1Z" fill="#fff"/>
  <path d="M101.63,16.69c-.1-.12-.24-.17-.39-.17s-.29.07-.39.17c-.12.1-.17.24-.17.39,0,.17.05.29.17.39.1.12.24.17.39.17s.27-.07.39-.17c.12-.1.17-.24.17-.39s-.07-.29-.17-.39ZM101.58,17.42c-.07.07-.2.12-.32.12-.15,0-.27-.05-.34-.12-.07-.1-.12-.2-.12-.34s.05-.24.12-.34c.1-.07.22-.12.34-.12s.24.02.32.12c.07.1.12.2.12.34s-.05.24-.12.34Z" fill="#fff"/>
</svg>