<?xml version="1.0" encoding="UTF-8"?>
<svg id="Layer_1" data-name="Layer 1" xmlns="http://www.w3.org/2000/svg" width="46.1mm" height="13.2mm" viewBox="0 0 130.68 37.42">
  <polygon points="46.19 11.89 46.91 11.04 46.69 9.93 45.7 9.42 44.68 9.88 44.4 10.97 45.08 11.86 46.19 11.89" fill="#fff"/>
  <path d="M41.2,18.67l1.3.11c.05,2.33,1.91,4.21,4.23,4.29l.11,1.3.11-1.3c2.37-.03,4.28-1.93,4.32-4.3l1.29-.1-1.29-.1c-.06-2.34-1.97-4.23-4.32-4.26l-.1-1.28-.1,1.28c-2.31.08-4.17,1.95-4.23,4.26l-1.3.11ZM44.42,16.65l.94-.45.94.45.23,1.02-.65.82h-1.04l-.65-.82.23-1.02Z" fill="#fff"/>
  <path d="M48.85,26.02c-4.73.69-7.83-1.94-8.85-5.06-1.04-3.21.09-6.75,2.87-8.63-.27-.4-.35-.73-.4-1.19-4.03,2.49-4.78,6.8-3.4,10.19,1.57,3.88,5.75,5.85,9.77,4.69Z" fill="#fff"/>
  <path d="M43.72,27.95c-3.98-1.17-7.43-5-6.72-11.02-1.33,5.14,1.32,10.35,6.29,12.21,4.35,1.62,9.74.61,12.76-4.58-.58-.04-1.03-.13-1.55-.46-2.28,3.58-6.68,5.06-10.78,3.86Z" fill="#fff"/>
  <path d="M84.46,16.58c.42-.49,1-.94,1.32-1.63.4-.85.49-2.41.18-3.36-.39-1.22-1.41-1.74-2.17-.78-.66.83-.57,2.09-.57,3.33,0,.75-.03,3.38.03,3.93.23,2.11,2,2.79,2.7.72.2-.6.19-1.13.19-1.79l-.84.46c.02,1.6-1.35,1.62-1.22-.33.01-.23.16-.27.39-.54ZM84.06,12.87c0-1.57,1.28-1.53,1.22.12-.02.55-.11,1.09-.36,1.46-.13.19-.7.84-.85.91v-2.5Z" fill="#fff"/>
  <path d="M81.44,17.48c.03.32.06,1.12-.39,1.13-.39,0-.46-.7-.46-1.09v-5.81h1.34v-1.39h-1.34v-2.74l-.84.49v2.25s-.53,0-.53,0v1.38h.53v5.79c0,.75.21,2.49,1.29,2.49,1.06,0,1.4-1.82,1.25-3l-.84.49Z" fill="#fff"/>
  <path d="M77.67,10.32c-.33,0-.48.28-.67.52l-.23-.52h-.55s0,9.7,0,9.7h.87l-.03-7.19c0-.52.25-1.13.6-1.14.17,0,.27.13.41.35l.6-.77c-.14-.36-.47-.96-1-.94Z" fill="#fff"/>
  <path d="M88.13,18c-.1-.35-.04-2.24-.05-2.93-.01-.63-.03-2.72.1-2.88.1-.26.29-.48.52-.48.54,0,.67.72.65,1.42h.8c0-.89-.04-1.48-.46-2.17-.35-.56-1.05-.98-1.7-.35-.43.41-.71,1.01-.71,1.7l-.04,5.19c0,.53.11,1.03.25,1.44.48,1.18,1.54,1.51,2.25.31.4-.67.41-1.42.41-2.28l-.85.46c.08,1.32-.92,1.51-1.17.55Z" fill="#fff"/>
  <path d="M92.6,10.32c-.29,0-.54.27-.66.37v-3.12s-.84.49-.84.49v11.95h.84v-6.68c0-.59-.01-1.62.64-1.63.6,0,.6,1.02.6,1.41v6.9h.84v-7.12c0-1.23-.49-2.58-1.42-2.58Z" fill="#fff"/>
  <polygon points="69.67 16.16 69.1 10.32 68.23 10.32 69.27 20.02 70.01 20.02 71.09 10.32 70.18 10.34 69.67 16.16" fill="#fff"/>
  <path d="M61.62,10.32c-.94,0-1.44,1.39-1.44,2.48v4.65c0,.91.35,2.57,1.44,2.57s1.46-1.65,1.46-2.59v-4.66c0-.86-.42-2.45-1.47-2.45ZM61.74,18.59c-.32.11-.51-.16-.61-.36-.14-.29-.14-.54-.14-.87v-4.05c0-.64-.04-1.31.47-1.54.29-.13.51.12.61.32.14.28.15.55.15.9v4.05c0,.57.03,1.37-.48,1.54Z" fill="#fff"/>
  <path d="M57.02,17.4c0-2.42-.03-4.93,0-7.32.02-1.4,1-1.26,1.15-.57l.08.87.84.02c.03-1.03-.1-1.72-.62-2.37-.51-.65-1.33-.62-1.87.27-.47.78-.43,1.57-.43,2.57v6.02c0,1-.01,1.77.48,2.51.54.8,1.33.84,1.88.09.51-.69.54-1.49.55-2.5l-.85.46c.03,1.5-1.23,1.63-1.22-.06Z" fill="#fff"/>
  <path d="M66.71,11.12c-.17-.3-.42-.64-.78-.76-.57-.18-.73.13-1.02.45l-.18-.5h-.56s0,9.71,0,9.71h.82c.07-.28.02-5.84.02-6.64,0-.34-.03-.72.05-1.04.2-.77.85-.84,1.1-.09.14.42.08,2.75.08,3.29v4.47s.83,0,.83,0c.04-.35.01-5.67.01-6.16,0-.96.06-1.98-.37-2.73Z" fill="#fff"/>
  <path d="M73.44,16.58c.42-.49,1-.95,1.32-1.63.54-1.13.6-3.84-.64-4.51-.57-.31-1.08.03-1.35.37-.67.85-.57,2.08-.57,3.33,0,.74-.03,3.4.03,3.93.24,2.13,2.01,2.77,2.7.72.21-.61.19-1.13.19-1.79l-.85.46c.03,1.57-1.35,1.64-1.22-.33.01-.24.15-.25.39-.54ZM74.27,12.99c-.02.55-.11,1.09-.36,1.46-.13.19-.7.84-.85.91v-2.5c-.01-1.57,1.27-1.53,1.21.12Z" fill="#fff"/>
</svg>