<?xml version="1.0" encoding="UTF-8"?>
<svg id="Layer_1" data-name="Layer 1" xmlns="http://www.w3.org/2000/svg" width="46.1mm" height="13.2mm" viewBox="0 0 130.68 37.42">
  <g>
    <path d="M28.22,21.74v-6.03h4.47v1.02h-3.25v1.34h3.03v1.02h-3.03v1.64h3.37v1.02h-4.58Z" fill="#fff"/>
    <path d="M33.78,21.74v-5.98h1.22v4.96h3.03v1.02h-4.24Z" fill="#fff"/>
    <path d="M38.73,21.74v-6.03h4.47v1.02h-3.25v1.34h3.03v1.02h-3.03v1.64h3.37v1.02h-4.58Z" fill="#fff"/>
    <path d="M48,19.52l1.18.37c-.18.66-.48,1.15-.9,1.47-.42.32-.95.48-1.6.48-.8,0-1.46-.27-1.97-.82-.52-.55-.77-1.29-.77-2.24,0-1,.26-1.78.78-2.34.52-.55,1.2-.83,2.04-.83.74,0,1.34.22,1.8.65.27.26.48.63.62,1.11l-1.2.29c-.07-.31-.22-.56-.45-.74s-.5-.27-.82-.27c-.45,0-.81.16-1.09.48-.28.32-.42.84-.42,1.56,0,.76.14,1.3.41,1.63.27.32.63.49,1.07.49.32,0,.6-.1.83-.31.23-.21.4-.53.5-.97Z" fill="#fff"/>
    <path d="M51.44,21.74v-5.01h-1.79v-1.02h4.79v1.02h-1.78v5.01h-1.22Z" fill="#fff"/>
    <path d="M55.12,21.74v-6.03h2.56c.64,0,1.11.05,1.4.16.29.11.53.3.7.58.18.28.26.59.26.95,0,.45-.13.83-.4,1.12-.27.29-.66.48-1.19.56.26.15.48.32.65.51.17.18.4.51.69.98l.74,1.18h-1.46l-.88-1.31c-.31-.47-.53-.76-.64-.89-.12-.12-.24-.21-.37-.25-.13-.05-.33-.07-.61-.07h-.25v2.52h-1.22ZM56.33,18.26h.9c.58,0,.95-.02,1.09-.07.15-.05.26-.13.34-.25.08-.12.12-.27.12-.45,0-.2-.05-.37-.16-.49-.11-.12-.26-.2-.46-.24-.1-.01-.39-.02-.89-.02h-.95v1.53Z" fill="#fff"/>
    <path d="M60.72,18.76c0-.61.09-1.13.28-1.55.14-.31.32-.58.56-.83.24-.24.5-.42.78-.54.38-.16.81-.24,1.3-.24.89,0,1.6.28,2.13.83.53.55.8,1.32.8,2.3s-.26,1.73-.79,2.28c-.53.55-1.24.82-2.12.82s-1.61-.27-2.14-.82c-.53-.55-.79-1.3-.79-2.26ZM61.97,18.72c0,.68.16,1.2.47,1.55.32.35.72.53,1.2.53s.88-.17,1.19-.52c.31-.35.47-.87.47-1.57s-.15-1.21-.45-1.55c-.3-.34-.71-.51-1.21-.51s-.91.17-1.21.52c-.31.34-.46.86-.46,1.56Z" fill="#fff"/>
    <path d="M67.12,19.78l1.18-.12c.07.4.22.69.43.88.22.19.51.28.88.28.39,0,.69-.08.89-.25.2-.17.3-.36.3-.58,0-.14-.04-.26-.13-.36-.08-.1-.23-.19-.44-.26-.14-.05-.47-.14-.97-.26-.65-.16-1.11-.36-1.37-.6-.37-.33-.55-.74-.55-1.21,0-.31.09-.59.26-.86.17-.27.42-.47.75-.61.33-.14.72-.21,1.19-.21.76,0,1.33.17,1.71.5.38.33.58.77.6,1.33l-1.22.05c-.05-.31-.16-.53-.34-.67-.17-.14-.43-.2-.77-.2s-.63.07-.83.22c-.13.09-.19.22-.19.37,0,.14.06.26.18.37.15.13.53.26,1.12.4.59.14,1.03.28,1.31.43.28.15.51.35.67.61.16.26.24.58.24.96,0,.35-.1.67-.29.97-.19.3-.46.53-.81.67-.35.15-.79.22-1.31.22-.76,0-1.35-.18-1.76-.53-.41-.35-.65-.87-.73-1.54Z" fill="#fff"/>
    <path d="M72.65,18.76c0-.61.09-1.13.28-1.55.14-.31.32-.58.56-.83.24-.24.5-.42.78-.54.38-.16.81-.24,1.3-.24.89,0,1.6.28,2.13.83.53.55.8,1.32.8,2.3s-.26,1.73-.79,2.28c-.53.55-1.24.82-2.12.82s-1.61-.27-2.14-.82c-.53-.55-.79-1.3-.79-2.26ZM73.9,18.72c0,.68.16,1.2.47,1.55.32.35.72.53,1.2.53s.88-.17,1.19-.52c.31-.35.47-.87.47-1.57s-.15-1.21-.45-1.55c-.3-.34-.71-.51-1.21-.51s-.91.17-1.21.52c-.31.34-.46.86-.46,1.56Z" fill="#fff"/>
    <path d="M79.4,21.74v-6.03h1.18l2.47,4.02v-4.02h1.13v6.03h-1.22l-2.43-3.93v3.93h-1.13Z" fill="#fff"/>
  </g>
  <g>
    <path d="M42.92,26.19v-2.64h-.99v-.35h2.38v.35h-.99v2.64h-.4Z" fill="#fff"/>
    <path d="M44.67,26.19v-3h2.17v.35h-1.77v.92h1.66v.35h-1.66v1.02h1.84v.35h-2.24Z" fill="#fff"/>
    <path d="M47.35,26.19v-3h.4v2.64h1.48v.35h-1.87Z" fill="#fff"/>
    <path d="M49.61,26.19v-3h2.17v.35h-1.77v.92h1.66v.35h-1.66v1.02h1.84v.35h-2.24Z" fill="#fff"/>
    <path d="M54.38,25.13l.4.1c-.08.33-.23.57-.45.75-.22.17-.48.26-.79.26s-.59-.07-.79-.2c-.2-.13-.36-.32-.46-.57-.11-.25-.16-.52-.16-.8,0-.31.06-.58.18-.82.12-.23.29-.41.51-.53.22-.12.46-.18.73-.18.3,0,.55.08.76.23s.35.37.43.64l-.39.09c-.07-.22-.17-.38-.3-.48-.13-.1-.3-.15-.5-.15-.23,0-.42.06-.58.17-.15.11-.26.26-.33.44-.06.19-.09.38-.09.58,0,.25.04.48.11.67.07.19.19.33.35.43.16.09.33.14.51.14.22,0,.41-.06.56-.19.15-.13.26-.32.31-.57Z" fill="#fff"/>
    <path d="M55.08,24.73c0-.5.13-.89.4-1.17.27-.28.61-.42,1.03-.42.28,0,.53.07.75.2.22.13.39.32.51.55.12.24.17.5.17.8s-.06.58-.18.82c-.12.24-.3.42-.52.55-.22.12-.47.19-.73.19-.28,0-.53-.07-.76-.2-.22-.14-.39-.32-.51-.56-.11-.24-.17-.49-.17-.75ZM55.49,24.73c0,.36.1.65.29.85.19.21.44.31.73.31s.54-.1.74-.31c.19-.21.29-.51.29-.89,0-.24-.04-.46-.12-.64-.08-.18-.2-.32-.36-.42-.16-.1-.34-.15-.53-.15-.28,0-.52.1-.72.29-.2.19-.3.52-.3.97Z" fill="#fff"/>
    <path d="M58.43,26.19v-3h.6l.71,2.12c.07.2.11.35.14.44.03-.11.09-.27.16-.48l.72-2.09h.53v3h-.38v-2.51l-.87,2.51h-.36l-.87-2.55v2.55h-.38Z" fill="#fff"/>
    <path d="M63.88,23.19h.4v1.73c0,.3-.03.54-.1.72-.07.18-.19.32-.37.43-.18.11-.41.17-.7.17s-.51-.05-.69-.15c-.18-.1-.31-.24-.38-.42-.08-.18-.11-.43-.11-.75v-1.73h.4v1.73c0,.26.02.45.07.58.05.12.13.22.25.29.12.07.26.1.43.1.29,0,.5-.07.62-.2.12-.13.19-.39.19-.76v-1.73Z" fill="#fff"/>
    <path d="M64.91,26.19v-3h.41l1.57,2.35v-2.35h.38v3h-.41l-1.57-2.36v2.36h-.38Z" fill="#fff"/>
    <path d="M67.95,26.19v-3h.4v3h-.4Z" fill="#fff"/>
    <path d="M71.13,25.13l.4.1c-.08.33-.23.57-.45.75-.22.17-.48.26-.79.26s-.59-.07-.79-.2c-.2-.13-.36-.32-.46-.57-.11-.25-.16-.52-.16-.8,0-.31.06-.58.18-.82.12-.23.29-.41.51-.53.22-.12.46-.18.73-.18.3,0,.55.08.76.23s.35.37.43.64l-.39.09c-.07-.22-.17-.38-.3-.48-.13-.1-.3-.15-.5-.15-.23,0-.42.06-.58.17-.15.11-.26.26-.33.44-.06.19-.09.38-.09.58,0,.25.04.48.11.67.07.19.19.33.35.43.16.09.33.14.51.14.22,0,.41-.06.56-.19.15-.13.26-.32.31-.57Z" fill="#fff"/>
    <path d="M71.6,26.19l1.15-3h.43l1.23,3h-.45l-.35-.91h-1.25l-.33.91h-.42ZM72.46,24.95h1.02l-.31-.83c-.1-.25-.17-.46-.21-.62-.04.19-.09.38-.16.57l-.33.88Z" fill="#fff"/>
    <path d="M76.69,25.13l.4.1c-.08.33-.23.57-.45.75-.22.17-.48.26-.79.26s-.59-.07-.79-.2c-.2-.13-.36-.32-.46-.57-.11-.25-.16-.52-.16-.8,0-.31.06-.58.18-.82.12-.23.29-.41.51-.53.22-.12.46-.18.73-.18.3,0,.55.08.76.23s.35.37.43.64l-.39.09c-.07-.22-.17-.38-.3-.48-.13-.1-.3-.15-.5-.15-.23,0-.42.06-.58.17-.15.11-.26.26-.33.44-.06.19-.09.38-.09.58,0,.25.04.48.11.67.07.19.19.33.35.43.16.09.33.14.51.14.22,0,.41-.06.56-.19.15-.13.26-.32.31-.57Z" fill="#fff"/>
    <path d="M77.56,26.19v-3h.4v3h-.4Z" fill="#fff"/>
    <path d="M78.48,24.73c0-.5.13-.89.4-1.17.27-.28.61-.42,1.03-.42.28,0,.53.07.75.2.22.13.39.32.51.55.12.24.17.5.17.8s-.06.58-.18.82c-.12.24-.3.42-.52.55-.22.12-.47.19-.73.19-.28,0-.53-.07-.76-.2-.22-.14-.39-.32-.51-.56-.11-.24-.17-.49-.17-.75ZM78.89,24.73c0,.36.1.65.29.85.19.21.44.31.73.31s.54-.1.74-.31c.19-.21.29-.51.29-.89,0-.24-.04-.46-.12-.64-.08-.18-.2-.32-.36-.42-.16-.1-.34-.15-.53-.15-.28,0-.52.1-.72.29-.2.19-.3.52-.3.97ZM79.67,23l.27-.57h.48l-.45.57h-.3Z" fill="#fff"/>
    <path d="M81.84,26.19v-3h.41l1.57,2.35v-2.35h.38v3h-.41l-1.57-2.36v2.36h-.38Z" fill="#fff"/>
  </g>
  <g>
    <rect x="93.45" y="14.44" width="1.57" height="1.57" fill="#fff"/>
    <rect x="95.93" y="14.44" width="1.57" height="1.57" fill="#fff"/>
    <rect x="98.41" y="14.44" width="1.57" height="1.57" fill="#fff"/>
    <path d="M100.89,16.01h1.57v-1.57c-1.35-1.97-3.62-3.26-6.19-3.26-4.15,0-7.51,3.36-7.51,7.51s3.36,7.51,7.51,7.51c2.57,0,4.84-1.29,6.19-3.26v-1.57h-1.57v1.57h.97c-1.28,1.69-3.31,2.78-5.6,2.78-1.26,0-2.44-.33-3.46-.91v-12.23c1.02-.58,2.2-.91,3.46-.91,2.29,0,4.32,1.09,5.6,2.78h-.97v1.57ZM90.31,14.95v7.47c-.68-1.08-1.08-2.36-1.08-3.74s.39-2.65,1.08-3.74ZM90.79,23.1v-8.82c.16-.2.34-.4.52-.58v9.98c-.19-.18-.36-.38-.52-.58ZM92.32,24.51c-.18-.12-.36-.25-.52-.39v-10.85c.17-.14.34-.27.52-.39v11.64Z" fill="#fff"/>
    <rect x="93.45" y="17.9" width="1.57" height="1.57" fill="#fff"/>
    <rect x="95.93" y="17.9" width="1.57" height="1.57" fill="#fff"/>
    <rect x="93.45" y="21.36" width="1.57" height="1.57" fill="#fff"/>
    <rect x="95.93" y="21.36" width="1.57" height="1.57" fill="#fff"/>
    <rect x="98.41" y="21.36" width="1.57" height="1.57" fill="#fff"/>
  </g>
</svg>