<?xml version="1.0" encoding="UTF-8"?>
<svg id="Layer_1" data-name="Layer 1" xmlns="http://www.w3.org/2000/svg" width="46.1mm" height="13.2mm" viewBox="0 0 130.68 37.42">
  <path d="M50.87,13.16h-5.15l-.74,7.42h2.22s.23-2.32.23-2.32h3.06c1.54-.09,2.39-.95,2.56-2.56.17-1.62-.56-2.47-2.18-2.55M51.11,15.71c-.06.39-.3.59-.7.59h-2.75s.13-1.28.13-1.28h2.75c.45.07.64.3.58.69Z" fill="#fff" fill-rule="evenodd"/>
  <path d="M58.3,12.49l2.82-4.2-2.21,4.2h-.61ZM50.01,19l1.54,3.54,2.12-3.16c.34.23.74.36,1.18.36h.24l-3.76,7.14-3.31-7.89h1.98Z" fill="#fff" fill-rule="evenodd"/>
  <polygon points="90.87 13.16 90.7 14.62 88.79 14.61 88.35 19.19 86.51 19.21 86.95 14.62 85.3 14.61 85.45 13.16 90.87 13.16" fill="#fff" fill-rule="evenodd"/>
  <path d="M84.69,19.21h-4.27c-1.23-.07-1.74-1.08-1.56-3.03.19-1.95.95-2.95,2.27-3.02h4.15s-.15,1.48-.15,1.48h-3.67c-.27,0-.47.1-.6.29-.29.75-.41,1.5-.35,2.25.03.24.18.39.43.46h3.89s-.15,1.58-.15,1.58Z" fill="#fff" fill-rule="evenodd"/>
  <path d="M78.35,19.21h-4.26c-1.22-.07-1.74-1.08-1.55-3.02.19-1.94.95-2.95,2.27-3.01h4.14l-.15,1.47h-3.67c-.31,0-.5.07-.56.24l-.15.52h4.31s-.15,1.46-.15,1.46l-4.27-.02v.34c.02.29.12.44.32.47h3.88s-.16,1.56-.16,1.56Z" fill="#fff" fill-rule="evenodd"/>
  <path d="M65.9,19.23l.37-3.79c.13-1.45.86-2.2,2.19-2.27h4.17s-.15,1.48-.15,1.48h-3.69c-.31-.01-.54.14-.68.44l-.03.32h4.33s-.15,1.45-.15,1.45h-4.31s-.24,2.37-.24,2.37h-1.82Z" fill="#fff" fill-rule="evenodd"/>
  <path d="M64.35,15.24h0c-.05.32-.24.49-.59.49h-2.23s.1-1.05.1-1.05h2.24c.36.05.51.24.46.56M65.96,15.22c.06-1.16-.54-1.85-1.81-2.06h-4.19l-.61,6.05h1.81s.19-1.89.19-1.89h1.6l.82,1.91h2.02l-.85-1.99c.66-.5.99-1.17,1.01-2.02Z" fill="#fff" fill-rule="evenodd"/>
  <path d="M59.05,19.21h-4.26c-1.22-.07-1.74-1.08-1.55-3.02.19-1.94.95-2.95,2.27-3.01h4.14l-.15,1.47h-3.67c-.31,0-.5.07-.56.24l-.15.52h4.31s-.15,1.46-.15,1.46l-4.27-.02v.34c.02.29.12.44.32.47h3.88s-.16,1.56-.16,1.56Z" fill="#fff" fill-rule="evenodd"/>
  <polygon points="55.71 19.74 57.44 19.74 56.85 25.65 55.08 25.65 55.71 19.74" fill="#fff" fill-rule="evenodd"/>
  <path d="M63.02,21.28h-3.27c-.22,0-.39.01-.51.03-.12.02-.22.11-.31.26.03.19.1.3.23.32.12.02.32.04.58.04h1.6c.64.04,1.09.22,1.35.56.26.33.35.8.3,1.4-.1.6-.31,1.04-.63,1.33-.33.29-.86.43-1.62.45h-3.57l.15-1.52h3.4c.29,0,.52,0,.67-.03.15-.02.26-.13.31-.34-.02-.16-.1-.26-.23-.29-.14-.03-.37-.05-.69-.05h-1.55c-.68,0-1.16-.17-1.45-.5-.28-.33-.39-.79-.34-1.38.11-.62.33-1.06.67-1.34.33-.28.87-.43,1.59-.47h3.49l-.15,1.54Z" fill="#fff" fill-rule="evenodd"/>
  <polygon points="63.44 19.74 65.16 19.74 64.58 25.65 62.81 25.65 63.44 19.74" fill="#fff" fill-rule="evenodd"/>
  <path d="M69.71,22.61h0c-.05.6-.15.98-.28,1.14-.11.22-.31.35-.58.38h-1.63c-.26-.04-.43-.2-.51-.47-.05-.11-.05-.43,0-.96.06-.53.14-.87.24-1.02.15-.32.41-.5.77-.53h1.26c.28.02.48.13.61.3.14.17.18.55.13,1.15M69.63,19.66h-2.29c-1.32,0-2.08,1.03-2.27,3.06-.21,2.01.31,3.01,1.56,3h2.8c1.21-.03,1.86-1.07,1.95-3.12.22-1.99-.36-2.97-1.74-2.94Z" fill="#fff" fill-rule="evenodd"/>
  <path d="M71.2,25.67l.6-5.94h4.02c1.16-.02,1.71.6,1.64,1.89l-.41,4.05h-1.58l.4-3.71c.07-.38-.07-.56-.43-.54h-2.19l-.42,4.25h-1.63Z" fill="#fff" fill-rule="evenodd"/>
  <path d="M50.08,8.6c2.99,0,5.67,1.28,7.55,3.31h-1.82c-1.56-1.28-3.55-2.05-5.73-2.05-4.98,0-9.01,4.03-9.01,9.01s4.03,9.01,9.01,9.01c1.57,0,3.05-.4,4.34-1.11h2.22c-1.78,1.48-4.06,2.37-6.56,2.37-5.67,0-10.27-4.6-10.27-10.27s4.6-10.27,10.27-10.27" fill="#fff" fill-rule="evenodd"/>
  <path d="M78.07,24.59c.1,0,.19.03.29.08.09.05.17.12.22.22.05.09.08.19.08.29s-.03.2-.08.29c-.05.09-.12.16-.22.22s-.19.08-.29.08-.2-.03-.29-.08c-.09-.05-.16-.12-.22-.22-.05-.09-.08-.19-.08-.29s.03-.2.08-.29c.05-.09.12-.16.22-.22.09-.05.19-.08.29-.08ZM78.07,24.69c-.08,0-.16.02-.24.06-.08.04-.14.1-.18.18-.04.08-.07.16-.07.24s.02.16.06.24c.04.08.1.14.18.18.08.04.16.06.24.06s.16-.02.24-.06c.08-.04.14-.1.18-.18.04-.08.06-.16.06-.24s-.02-.17-.07-.24c-.04-.08-.1-.14-.18-.18-.08-.04-.16-.06-.24-.06ZM77.82,25.49v-.63h.22c.07,0,.13,0,.16.02.03.01.06.03.08.06.02.03.03.06.03.09,0,.05-.02.09-.05.12-.03.03-.08.05-.13.06.02,0,.04.02.05.03.03.02.06.07.09.12l.08.12h-.12l-.06-.1c-.04-.08-.08-.13-.11-.15-.02-.01-.05-.02-.08-.02h-.06v.27h-.1ZM77.92,25.14h.12c.06,0,.1,0,.12-.03s.03-.04.03-.07c0-.02,0-.04-.02-.05-.01-.01-.02-.03-.04-.03s-.05-.01-.1-.01h-.11v.19Z" fill="#fff"/>
</svg>