<?xml version="1.0" encoding="UTF-8"?>
<svg id="Layer_1" data-name="Layer 1" xmlns="http://www.w3.org/2000/svg" width="46.1mm" height="13.2mm" viewBox="0 0 130.68 37.42">
  <path d="M53.47,10.62h-13.48c-.72,0-1.32.59-1.32,1.32v13.23c0,.72.59,1.32,1.32,1.32h13.48c.72,0,1.32-.59,1.32-1.32v-13.23c0-.72-.59-1.32-1.32-1.32ZM40.7,12.46h-.54s0,0,0,0c-.11,0-.19-.09-.19-.19s.09-.19.19-.19h0s.55,0,.55,0v.38ZM41.29,12.94c-.24,0-.34-.42-.34-.73s.22-.73.4-.73h4.14s-.55.4-.69.77c-.14.38-.16.69-.16.69h-3.35ZM46.33,16.43c-.06.12-.5.69-.64.75-.14.06-.25-.08-.35-.18-.27-.27-.3-.8-.28-1.13.03-.38.34-.89.34-.89,0,0,1.17-1.31,1.39-1.57.12-.14.55-.26.75-.24.2.02.32.1.44.32.12.22.2.57-.11.89-.18.18-1.27,1.32-1.35,1.43-.08.11-.15.26-.17.36-.02.1.04.14-.02.26ZM45.28,18.23c.36-.5,1.66-2.11,1.98-2.5s.59-.25.71-.11c.12.14.21.4.25.61.04.22-.04.65-.26.95-.22.3-1.08,1.34-1.31,1.57-.24.24-.26.57-.26.57,0,0,.04.16-.02.28-.06.12-.33.6-.57.86-.24.26-.48-.09-.56-.19-.08-.1-.17-.17-.28-.44-.16-.42-.14-.97.32-1.61ZM46.47,24.39c.28.08.31-.37.31-.63s-.08-.42-.07-.51c.04-.36.53-1.32.65-1.41.12-.1.24-.15.38.03s.29.5.38.83c.07.25.38,2.17-.7,2.81-.87.52-1.56.36-2.07-.16s-.83-1.49-.38-2.55c.36-.86,1.41-2.57,1.66-2.92.1-.14.08-.45.16-.61.08-.16.32-.42.55-.63.11-.1.5-.28.77.21.34.65,0,1.45-.56,2.3-.83,1.25-1.18,1.9-1.24,2.19-.05.29-.11.98.17,1.06ZM49.54,16.58h-.54s0,0,0,0c-.11,0-.19-.09-.19-.19s.09-.19.19-.19h0s.55,0,.55,0v.38ZM53.22,15.28c0,.97-.67,1.76-1.9,1.76h-1.15c-.28,0-.38-.34-.38-.69s.14-.73.42-.73h.93c.42,0,.63-.28.63-.5v-1.64c0-.3-.46-.54-.89-.54h-3.8c-.34,0-.59.22-.83.55-.07.1-.26.3-.55.54-.17.14-.34.04-.44-.1-.1-.14-.4-.55-.24-1.25.22-.97,1.11-1.21,1.59-1.21h4.64c1.98,0,1.98,1.57,1.98,2.12v1.68Z" fill="#fff"/>
  <path d="M56.97,18.02h2.42c-.11-.34-.14-.65-.14-.98v-1.6h3.26c1.19,0,1.76-.46,1.76-1.5v-1.73c0-1.04-.57-1.5-1.76-1.5h-5.55c.11.34.14.65.14.98v5.34c0,.33-.02.64-.14.98ZM59.25,11.65h2.39c.45,0,.56.14.56.67v1.52c0,.54-.11.66-.56.66h-2.39v-2.85Z" fill="#fff"/>
  <path d="M66.08,18.02h3.72c.91,0,1.35-.44,1.35-1.44v-2.49c0-.99-.43-1.44-1.35-1.44h-3.72c-.91,0-1.35.45-1.35,1.44v2.49c0,.99.43,1.44,1.35,1.44ZM66.72,13.89c0-.29.08-.39.34-.39h1.76c.26,0,.34.1.34.39v2.9c0,.29-.08.39-.34.39h-1.76c-.26,0-.34-.1-.34-.39v-2.9Z" fill="#fff"/>
  <path d="M72.71,18.02h2.1l1.05-4.34h.02s1.19,4.34,1.19,4.34h2.07l.73-2.88c.53-2.05.59-2.34.73-2.49h-1.1s.02.11.02.19c0,.09-.02.21-.08.47l-.76,3.22h-.02l-1.08-3.88h-2.31l-.95,3.88h-.02c-.55-2.07-.92-2.99-.92-3.52,0-.16.01-.25.03-.37h-2.32c.22.37.35.75.56,1.51l1.06,3.86Z" fill="#fff"/>
  <path d="M85.6,12.65h-3.72c-.91,0-1.35.45-1.35,1.44v2.49c0,.99.43,1.44,1.35,1.44h4.91l.16-.91c-.24.05-.46.07-.63.07h-3.46c-.26,0-.34-.1-.34-.39v-.96h4.43v-1.73c0-.99-.43-1.44-1.35-1.44ZM84.97,14.98h-2.44v-1.1c0-.29.08-.39.34-.39h1.76c.26,0,.34.1.34.39v1.1Z" fill="#fff"/>
  <path d="M90.39,12.65c-.62,0-.87.15-.92.58h-.02l-.08-.58h-1.91c.07.25.11.57.11,1.21v2.94c0,.64-.05.96-.11,1.21h2.21c-.07-.25-.11-.57-.11-1.21v-2.8c0-.18.13-.29.34-.29h.75c.76,0,1,.05,1.36.11v-1.19h-1.62Z" fill="#fff"/>
  <path d="M73.86,19.89h1.12c.32,0,.79.02,1.13.17l-.18-1.11h-6.2s-.06-.01-.1-.01c-.23,0-.23.23-.35.45-.24.44-.66.62-1.34.62-.79,0-1.59-.26-2.37-.26s-1.39.27-1.84.79l.3.41c.23-.17.47-.26.72-.26.95,0,1.96,1.13,1.96,2.4,0,.41-.12.77-.38,1.07-3.46-3.02-5.12-5.06-5.12-5.93,0-.62.39-.98,1.13-.98.51,0,1.01.24,1.24.56.17.23.03.57.36.57.18,0,.24-.11.27-.32l.17-1.01c-.62-.27-1.31-.41-2.04-.41-1.77,0-2.99,1.16-2.99,2.4,0,.48.18.98.54,1.49-1.57.41-2.48,1.49-2.48,2.9,0,1.96,1.68,3.35,4.39,3.35,1.15,0,2.2-.26,3.26-.8.66.53,1.28.8,1.98.8.88,0,1.59-.56,2.73-1.28l-.27-.42c-.44.23-.77.33-1.01.33-.35,0-.95-.24-1.6-.82.62-.71.94-1.4.94-2.13s-.32-1.36-.94-1.96c.91.35,1.6.59,2.14.59.48,0,.82-.32.82-.86v-.29c.26-.05.52-.06.73-.06h1.12v5.39c0,.33-.02.64-.14.98h2.42c-.11-.34-.14-.65-.14-.98v-5.39ZM62.91,25.94c-2.02,0-3.23-1.25-3.23-3.4,0-.69.18-1.22.51-1.54,1.15,1.65,2.6,3.11,4.32,4.53-.41.26-.97.41-1.6.41Z" fill="#fff"/>
  <path d="M80.02,20.9h-3.72c-.91,0-1.35.44-1.35,1.44v2.49c0,.99.43,1.44,1.35,1.44h4.91l.16-.91c-.24.05-.46.07-.63.07h-3.46c-.26,0-.34-.1-.34-.39v-.96h4.43v-1.73c0-.99-.43-1.44-1.35-1.44ZM79.38,23.23h-2.44v-1.1c0-.29.08-.39.34-.39h1.76c.26,0,.34.1.34.39v1.1Z" fill="#fff"/>
  <path d="M84.1,18.96h-2.1c.07.25.11.57.11,1.21v4.88c0,.64-.05.96-.11,1.21h2.21c-.07-.25-.11-.57-.11-1.21v-6.09Z" fill="#fff"/>
  <path d="M85.77,25.23c0-.19-.11-.27-.34-.27h-.36v.96h.14v-.41h.17l.25.41h.16l-.27-.42c.14-.02.25-.09.25-.26ZM85.22,25.38v-.3h.2c.1,0,.21.02.21.14,0,.15-.11.16-.23.16h-.17Z" fill="#fff"/>
  <path d="M85.39,24.61c-.46,0-.84.35-.84.83s.39.83.84.83.84-.35.84-.83-.39-.83-.84-.83ZM85.39,26.12c-.38,0-.67-.29-.67-.69s.3-.69.67-.69.67.3.67.69-.3.69-.67.69Z" fill="#fff"/>
  <path d="M49.18,16.39c0-.11-.09-.19-.19-.19v.38h0c.1,0,.18-.09.18-.19Z" fill="#fff"/>
  <path d="M40.34,12.27c0-.11-.09-.19-.19-.19v.38h0c.1,0,.18-.09.18-.19Z" fill="#fff"/>
</svg>