<?xml version="1.0" encoding="UTF-8"?>
<svg id="Layer_1" data-name="Layer 1" xmlns="http://www.w3.org/2000/svg" width="46.1mm" height="13.2mm" viewBox="0 0 130.68 37.42">
  <path d="M45.04,24.16c-.21-.18-.5-.34-.85-.49l-1.52-.66c-.28-.12-.45-.24-.52-.34s-.1-.21-.1-.33c0-.19.09-.33.26-.41.17-.08.47-.12.9-.12.28,0,.53.02.77.05.23.03.5.09.79.16.25.07.41.05.46-.05.05-.1.08-.23.08-.4v-.16c0-.25-.05-.41-.14-.48-.1-.07-.23-.12-.41-.18-.47-.13-.98-.2-1.52-.2-.86,0-1.5.15-1.9.44-.4.29-.6.74-.6,1.34,0,.36.08.68.24.98.16.29.51.56,1.06.81l1.42.63c.39.17.63.32.71.43.08.11.12.23.12.35,0,.21-.09.36-.28.44-.19.08-.5.12-.94.12-.64,0-1.28-.08-1.91-.25-.25-.06-.4-.04-.45.06-.05.1-.07.23-.07.4v.17c0,.25.05.41.14.48.09.07.22.12.39.16.55.15,1.15.22,1.79.22.92,0,1.59-.15,2.01-.45.42-.3.64-.76.64-1.39,0-.24-.04-.49-.12-.73-.08-.24-.22-.45-.44-.63Z" fill="#fff"/>
  <path d="M62.5,25.96c-.42.08-.76.12-1.01.12-.56,0-.96-.07-1.2-.22-.24-.14-.4-.33-.48-.54-.08-.22-.12-.47-.12-.76v-1.23c0-.54.13-.93.38-1.16.25-.23.69-.35,1.32-.35.18,0,.37.02.56.05.19.03.33.06.41.09.21.06.35.06.43,0s.12-.21.12-.43v-.17c0-.26-.05-.43-.14-.49s-.22-.12-.39-.16c-.35-.09-.69-.13-1.02-.13-.5,0-.94.07-1.32.2-.38.13-.7.32-.96.56-.25.24-.44.53-.56.87-.12.34-.18.72-.18,1.13v1.28c0,.92.25,1.6.75,2.06.5.46,1.28.69,2.33.69.34,0,.69-.04,1.06-.13.26-.06.42-.14.47-.25.05-.1.08-.24.08-.41v-.16c0-.17-.02-.29-.07-.38-.05-.09-.2-.11-.47-.07Z" fill="#fff"/>
  <path d="M74.95,24.16c-.21-.18-.5-.34-.85-.49l-1.52-.66c-.28-.12-.45-.24-.52-.34s-.1-.21-.1-.33c0-.19.09-.33.26-.41.17-.08.47-.12.9-.12.28,0,.53.02.77.05.23.03.5.09.79.16.25.07.41.05.46-.05.05-.1.08-.23.08-.4v-.16c0-.25-.05-.41-.14-.48-.1-.07-.23-.12-.41-.18-.47-.13-.98-.2-1.52-.2-.86,0-1.5.15-1.9.44-.4.29-.6.74-.6,1.34,0,.36.08.68.24.98.16.29.51.56,1.06.81l1.42.63c.39.17.63.32.71.43.08.11.12.23.12.35,0,.21-.09.36-.28.44-.19.08-.5.12-.94.12-.64,0-1.28-.08-1.91-.25-.25-.06-.4-.04-.45.06-.05.1-.07.23-.07.4v.17c0,.25.05.41.14.48.09.07.22.12.39.16.55.15,1.15.22,1.79.22.92,0,1.59-.15,2.01-.45.42-.3.64-.76.64-1.39,0-.24-.04-.49-.12-.73-.08-.24-.22-.45-.44-.63Z" fill="#fff"/>
  <path d="M50.66,25.96c-.31.08-.67.12-1.06.12-.68,0-1.02-.38-1.02-1.14v-5.46c0-.23-.04-.36-.13-.41-.09-.04-.2-.07-.34-.07h-.17c-.23,0-.37.04-.43.13-.06.09-.09.2-.11.34l-.16,1.23-.69.13c-.21.04-.34.11-.38.2-.04.09-.07.2-.07.34v.13c0,.22.04.35.12.39.08.04.19.07.33.07h.68v2.96c0,1.61.79,2.41,2.36,2.41.36,0,.71-.04,1.06-.1.22-.04.36-.11.43-.2.07-.09.1-.24.1-.46v-.16c0-.27-.05-.42-.15-.46-.1-.03-.23-.03-.39,0Z" fill="#fff"/>
  <path d="M49.15,21.97h1.26c.26,0,.42-.05.47-.15.05-.1.08-.23.08-.4v-.16c0-.26-.05-.42-.15-.47-.1-.05-.23-.08-.4-.08h-1.01c-.22,0-.39.18-.39.39v.71c0,.08.07.15.15.15Z" fill="#fff"/>
  <path d="M54.68,20.56c-1.94,0-2.91.95-2.91,2.84v1.14c0,.99.26,1.7.79,2.14.52.44,1.34.66,2.44.66.61,0,1.18-.07,1.7-.21.26-.07.42-.15.47-.25.05-.1.07-.23.07-.39v-.17c0-.23-.04-.37-.11-.44-.07-.07-.22-.07-.43-.02-.6.14-1.17.21-1.7.21-.66,0-1.14-.1-1.43-.31-.29-.21-.44-.55-.44-1.02v-1.72c0-.43.13-.75.39-.97.26-.22.64-.33,1.13-.33s.87.11,1.14.33c.14.12.25.26.32.44.01.03.05.13.04.23-.01.09-.07.18-.12.2-.4.18-1.44.59-2.01.81-.23.09-.39.19-.4.45v.4c0,.11.01.22.06.31,0,0,0,0,0,0,.05.12.14.2.27.21.15,0,.31-.06.39-.08.65-.19,2.19-.81,2.29-.86.57-.25.68-.4.71-.72.06-.89-.1-1.73-.57-2.19-.47-.46-1.16-.69-2.07-.69Z" fill="#fff"/>
  <path d="M64.64,18.04h-.17c-.28,0-.45.05-.5.16-.06.11-.09.25-.09.43v7.99c0,.28.05.45.16.5.11.06.25.09.43.09h.17c.28,0,.45-.05.5-.16.06-.11.09-.25.09-.43v-7.99c0-.28-.05-.45-.16-.5-.11-.06-.25-.09-.43-.09Z" fill="#fff"/>
  <path d="M68.54,20.83c-.34-.18-.77-.25-1.28-.27-.46-.02-.8,0-1.11.15-.17.08-.31.2-.49.48-.14.25-.14.7-.07.88.04.09.11.1.15.06.16-.14.3-.19.38-.22.2-.07.44-.1.71-.1.48,0,.83.1,1.05.29.22.19.33.5.33.93v3.58c0,.28.05.45.16.5.11.06.25.09.43.09h.17c.28,0,.45-.05.5-.16.06-.11.09-.25.09-.43v-3.79c0-.49-.09-.9-.26-1.23-.17-.33-.43-.59-.77-.77Z" fill="#fff"/>
  <path d="M88.65,15.99l-3.16-3.16c-.11-.11-.23-.22-.35-.31,1.5,1.87,1.39,4.62-.35,6.36l-5.94,5.94c-.14.14-.14.35,0,.49l.84.84c1.53,1.53,4.02,1.53,5.55,0l3.41-3.41c1.86-1.86,1.86-4.88,0-6.75Z" fill="#fff"/>
  <path d="M81.03,16.63l2.52,2.52c1.19-1.19,1.88-1.79,2.1-3.6.11-.88-.1-1.83-.36-2.37-.06-.13-.32-.56-.66-.84-.31-.25-.73-.4-.99-.46-1.28-.31-2.7-.04-3.7.97l-1.11,1.11c-.14.14-.14.35,0,.49l2.2,2.2Z" fill="#fff"/>
  <path d="M73.58,18.16c.06.06.13.12.2.17-.84-1.05-.78-2.58.2-3.55l3.32-3.32c.08-.08.08-.2,0-.27l-.47-.47c-.86-.86-2.25-.86-3.1,0l-1.91,1.91c-1.04,1.04-1.04,2.73,0,3.77l1.77,1.77Z" fill="#fff"/>
  <path d="M76.08,16.04l-1.41-1.41c-.66.66-1.05,1-1.17,2.01-.06.49.06,1.02.2,1.33.03.07.18.32.37.47.17.14.41.22.55.26.72.17,1.51.02,2.07-.54l.62-.62c.08-.08.08-.2,0-.27l-1.23-1.23Z" fill="#fff"/>
</svg>