<?xml version="1.0" encoding="UTF-8"?>
<svg id="Layer_1" xmlns="http://www.w3.org/2000/svg" version="1.1" viewBox="0 0 130.7 37.4">
  <!-- Generator: Adobe Illustrator 29.6.0, SVG Export Plug-In . SVG Version: 2.1.1 Build 207)  -->
  <defs>
    <style>
      .st0 {
        fill: #fff;
      }
    </style>
  </defs>
  <path class="st0" d="M46.6,12.9c-.5-.5-1.1-.7-1.7-.7h0c-.6,0-1.2.3-1.7.7l-4,4.1c-.9.9-.9,2.5,0,3.4l4,4.1c.5.5,1.1.7,1.7.7h0c.6,0,1.2-.3,1.7-.7l4-4.1c.9-.9.9-2.5,0-3.4l-4-4.1ZM45.7,18.7c.5.9,1,1.5,1.3,1.9.5.5,1,.7,1.6.7h.2s-.9.9-.9.9c-.2.2-.5.2-.7.1-.3-.1-.5-.3-.7-.5-.4-.3-.9-.9-1.3-1.5,0,0-.1-.6,0-1,.2-.4-.4.7-.4.7h0c-.5.8-1.1,1.4-1.6,1.8-.3.2-.6.4-.9.5-.2,0-.5,0-.7-.2l-.9-1h.4c.5,0,1.1-.1,1.6-.6.4-.4.8-1,1.4-1.8h0c-.3-.4-.5-.8-.7-1.1-.2-.3-.4-.6-.6-.8-.5-.5-1-.7-1.6-.7h-.3s.9-.9.9-.9c.2-.2.5-.2.7-.1.3.1.6.3.8.5.4.3.8.8,1.3,1.5,0,0,.1.6,0,1-.2.4.4-.6.4-.6.5-.8,1.1-1.5,1.6-1.8.2-.2.5-.3.8-.4.2,0,.5,0,.7.1l.9.9h-.3c-.5,0-1.1.1-1.6.6-.4.3-.8,1-1.4,1.9h0Z"/>
  <path class="st0" d="M58.5,20c0,.2,0,.4-.1.5-.2.3-.4.4-.8.4h-2.7c-.3,0-.5,0-.7-.2-.2-.2-.2-.4-.2-.7v-4.9h-1.3v4.9c0,.5.2,1,.5,1.4.4.5,1,.8,1.8.8h2.7c.8,0,1.4-.3,1.8-.8.3-.4.4-.9.4-1.4v-4.9h-1.3v4.9Z"/>
  <path class="st0" d="M91.8,15.9h0c-.4-.6-1-.8-1.8-.8h-2.7c-.8,0-1.4.3-1.8.8-.3.4-.4.9-.4,1.4v4.9h1.3v-4.9c0-.3,0-.5.2-.7.2-.2.4-.2.7-.2h2.7c.3,0,.5,0,.7.2.2.2.2.4.2.7v4.9h1.3v-4.9c0-.5-.2-1-.5-1.4Z"/>
  <path class="st0" d="M63.3,15.1c-.8,0-1.4.3-1.8.8-.3.4-.4.9-.4,1.4v4.9h1.3v-4.9c0-.3,0-.5.2-.7.2-.2.4-.2.7-.2h2.7c.3,0,.5,0,.7.3l1-1c-.4-.4-.9-.7-1.6-.7h-2.7Z"/>
  <path class="st0" d="M81.9,15.1h-3.1c-.4,0-.8.1-1.1.4l.9,1h3.3c.4,0,.7.5.7,1h0c-.2,0-.5,0-.7,0h-3.1c-1.1,0-2,.9-2,2v.8c0,1.2,1,2.1,2.1,2.1h2.9c1.2,0,2.1-1,2.1-2.1v-2.8c0-1.1-.9-2.2-2-2.2ZM82.7,20.1c0,.5-.4.8-.8.8h-2.9c-.5,0-.8-.4-.8-.8v-.8c0-.4.3-.7.7-.7h3.1c.4,0,.7.3.7.7v.8Z"/>
  <path class="st0" d="M73.4,15.7h-2.7c-.3,0-.6,0-.9.1-.5.2-.9.8-.9,1.4,0-.7.3-1.3.9-1.7v-2.9h0l-1.3,1.3v6.1c0,.5.2,1,.5,1.4.4.5,1,.8,1.8.8h2.7c.8,0,1.4-.3,1.8-.8.3-.4.4-.9.4-1.4v-2c0-.5-.2-1-.5-1.4-.4-.5-1-.8-1.8-.8ZM74.3,20c0,.2,0,.4-.1.5-.2.3-.4.4-.8.4h-2.7c-.3,0-.5,0-.7-.2-.2-.2-.2-.4-.2-.7v-2c0-.3,0-.5.2-.7.2-.2.4-.2.7-.2h2.7c.3,0,.5,0,.7.2.2.2.2.4.2.7v2Z"/>
</svg>