<?xml version="1.0" encoding="UTF-8"?> <svg xmlns="http://www.w3.org/2000/svg" xmlns:xlink="http://www.w3.org/1999/xlink" version="1.1" id="Layer_1" x="0px" y="0px" viewBox="0 0 677.11 261.45" style="enable-background:new 0 0 677.11 261.45;" xml:space="preserve"> <style type="text/css"> .st0{fill:#D21219;} .st1{fill:#2579BE;} .st2{fill:#A3A7A7;} .st3{fill:#FFFFFF;} </style> <g> <path class="st0" d="M171.05,94.09c0.02,0.75-0.44,1.25-1.02,1.62c-4.83,3.12-9.58,6.34-14.35,9.55 c-4.67,3.14-9.44,6.13-14.14,9.22c-4.17,2.74-8.29,5.55-12.45,8.31c-3.8,2.52-7.62,4.99-11.43,7.5c-2.45,1.61-4.88,3.25-7.31,4.89 c-0.39,0.26-0.82,0.63-1.25,0.34c-0.39-0.27-0.19-0.79-0.02-1.17c0.72-1.73,1.48-3.45,2.18-5.19c0.77-1.89,1.65-3.72,2.34-5.65 c0.59-1.65,1.4-3.22,2.11-4.83c0.76-1.72,1.52-3.44,2.26-5.17c0.72-1.68,1.41-3.38,2.12-5.06c0.76-1.81,1.53-3.62,2.31-5.42 c1.04-2.41,2.11-4.81,3.15-7.22c0.73-1.69,1.42-3.39,2.14-5.09c0.99-2.35,1.98-4.7,2.98-7.05c1.06-2.51,2.13-5.01,3.19-7.51 c0.98-2.32,1.96-4.64,2.95-6.95c1.05-2.46,2.11-4.91,3.17-7.36c1.08-2.49,2.16-4.97,3.23-7.46c0.69-1.61,1.36-3.23,2.06-4.84 c1.08-2.49,2.18-4.96,3.25-7.45c0.71-1.65,1.38-3.32,2.06-4.99c0.7-1.7,1.4-3.4,2.11-5.1c0.78-1.83,1.57-3.66,2.37-5.49 c1.03-2.39,2.08-4.77,3.11-7.16c0.71-1.65,1.46-3.29,2.06-4.98c0.32-0.91,1.04-1.66,1.07-2.68c0.01-0.23,0.21-0.37,0.45-0.33 c0.35,0.05,0.47,0.33,0.52,0.63c0.25,1.41,0.65,2.81,0.71,4.23c0.19,5.02,0.91,9.99,1.44,14.96c0.41,3.88,0.52,7.8,1.32,11.64 c0.33,1.6-0.01,3.28,0.34,4.92c0.85,4.04,0.98,8.18,1.38,12.27c0.41,4.23,0.84,8.47,1.3,12.69c0.41,3.73,0.34,7.54,1.28,11.23 c0.33,1.28,0.21,2.69,0.23,4.04C170.29,90.05,170.98,92.03,171.05,94.09z"></path> <path class="st0" d="M255.76,12.12c0.15,1.2-0.63,1.95-0.93,2.85c-0.93,2.81-2.11,5.53-3.16,8.3c-0.73,1.92-1.38,3.86-2.09,5.78 c-0.64,1.72-1.23,3.48-2.02,5.13c-0.57,1.18-0.9,2.43-1.38,3.64c-1.16,2.91-2.3,5.83-3.35,8.78c-0.94,2.65-1.96,5.26-2.95,7.88 c-0.74,1.98-1.4,4-2.3,5.94c-0.83,1.78-1.37,3.69-2.06,5.54c-0.78,2.11-1.61,4.2-2.42,6.29c-0.71,1.83-1.35,3.69-2.03,5.54 c-1.03,2.78-2.15,5.53-3.21,8.3c-0.69,1.79-1.38,3.59-2.03,5.4c-0.73,2.05-1.46,4.09-2.31,6.1c-0.78,1.84-1.4,3.75-2.09,5.63 c-0.74,2-1.49,4-2.24,6c-0.76,2.02-1.52,4.05-2.29,6.06c-0.76,1.98-1.56,3.96-2.31,5.94c-0.7,1.87-1.34,3.76-2.05,5.63 c-0.74,1.95-1.52,3.88-2.29,5.82c-0.35,0.89-0.41,1.9-1.09,2.67c-0.45,0.51-0.73,0.72-1.22-0.02c-2.19-3.29-4.45-6.53-6.67-9.81 c-2.23-3.3-4.41-6.63-6.67-9.9c-2.81-4.08-5.77-8.05-8.47-12.2c-1.53-2.36-3.29-4.56-4.67-7.02c-1.05-1.88-1.03-1.8,0.44-3.39 c2.34-2.53,4.58-5.16,6.89-7.71c1.77-1.96,3.71-3.78,5.38-5.83c2.73-3.36,5.84-6.38,8.62-9.69c1.81-2.16,3.78-4.17,5.67-6.27 c3.94-4.39,7.86-8.78,11.79-13.17c1.12-1.25,2.27-2.48,3.4-3.72c4.97-5.48,9.9-11,14.86-16.49c5.3-5.87,10.48-11.84,15.86-17.63 c0.14-0.15,0.23-0.35,0.33-0.54c0.17-0.3,0.33-0.65,0.75-0.53C255.88,11.53,255.71,11.97,255.76,12.12z"></path> <path class="st1" d="M265.55,164.66c0-1.14-0.01-2.28,0-3.43c0.01-1.45,0.54-1.87,1.93-2.11c2.03-0.34,4.03-0.85,6.04-1.32 c1.68-0.39,3.34-0.83,5.01-1.24c2.9-0.71,5.76-1.51,8.61-2.42c1.96-0.62,3.93-1.17,5.87-1.87c3.03-1.09,6.03-2.26,8.99-3.52 c2.63-1.11,5.17-2.38,7.66-3.74c4.12-2.25,7.85-5.04,10.77-8.75c1.08-1.37,1.85-2.92,2.34-4.66c1.39-4.89-0.78-8.56-3.88-11.89 c-3.33-3.58-7.46-6.05-11.78-8.29c-3.54-1.83-7.22-3.34-10.9-4.84c-2.05-0.83-4.21-1.4-6.33-2.08c-2.51-0.8-5-1.69-7.55-2.33 c-1.5-0.38-2.95-0.92-4.5-1.19c-1.94-0.33-3.83-0.93-5.73-1.44c-1.5-0.41-3.05-0.66-4.56-0.96c-2.35-0.46-4.69-1.04-7.07-1.39 c-4.07-0.6-8.1-1.6-12.18-2.08c-3.01-0.36-5.96-1.18-9-1.18c-0.69,0-1.23-0.19-1.66-0.73c-0.35-0.45-0.41-0.95-0.23-1.44 c0.18-0.51,0.7-0.36,1.1-0.42c0.78-0.12,1.5,0.18,2.25,0.27c3.84,0.47,7.67,1.07,11.49,1.65c3.23,0.49,6.49,1,9.67,1.76 c3.35,0.8,6.74,1.42,10.09,2.21c2.94,0.69,5.87,1.45,8.81,2.13c2.55,0.59,5.08,1.42,7.61,2.18c2.28,0.68,4.5,1.51,6.81,2.13 c2.04,0.55,3.98,1.48,5.96,2.27c1.67,0.66,3.34,1.32,4.99,2.04c3.37,1.47,6.68,3.06,9.85,4.94c2.47,1.45,4.85,3.01,7.08,4.8 c3.65,2.94,6.67,6.42,8.24,10.89c0.66,1.87,0.57,3.91,0.39,5.9c-0.43,4.86-3.33,8.31-6.64,11.5c-2.98,2.88-6.44,5.08-10.02,7.16 c-3.19,1.85-6.52,3.41-9.89,4.88c-1.82,0.8-3.71,1.53-5.6,2.21c-1.91,0.69-3.88,1.28-5.74,2.12c-1.04,0.47-2.18,0.67-3.26,0.98 c-2.42,0.7-4.84,1.39-7.24,2.11c-2.78,0.84-5.61,1.47-8.41,2.2c-1.89,0.49-3.79,1.15-5.79,1.22c-0.64,0.02-1.22,0.31-1.81,0.53 c-1.19,0.44-1.78,0.03-1.8-1.23C265.54,167.03,265.55,165.84,265.55,164.66z"></path> <path class="st1" d="M11.24,133.27c0.03-4.32,1.62-7.46,3.81-10.36c2.75-3.64,6.35-6.29,10.13-8.77c2.81-1.84,5.77-3.41,8.78-4.84 c2.41-1.14,4.92-2.12,7.4-3.14c2.83-1.17,5.73-2.14,8.61-3.12c2.33-0.8,4.67-1.63,7.12-2.14c1.26-0.26,2.49-0.71,3.75-1.05 c3.41-0.91,6.84-1.72,10.27-2.55c3.32-0.8,6.66-1.52,9.99-2.17c2.47-0.48,4.96-0.94,7.46-1.33c2.99-0.46,5.98-1.04,8.98-1.46 c2.29-0.32,4.56-0.82,6.88-0.98c0.63-0.04,1.34-0.2,1.37,0.8c0.03,0.93-0.15,1.73-1.31,1.76c-1.27,0.03-2.55,0-3.78,0.32 c-2.46,0.64-5,0.64-7.48,1.17c-2.63,0.56-5.33,0.83-7.98,1.3c-2.11,0.38-4.19,0.87-6.29,1.31c-2.02,0.42-4.04,0.86-6.07,1.23 c-2.03,0.36-4.03,0.83-5.99,1.46c-1.32,0.43-2.7,0.67-4.03,0.98c-3.57,0.82-7.04,1.98-10.52,3.05c-2.77,0.85-5.49,1.94-8.19,3.05 c-2.4,0.99-4.82,1.94-7.12,3.11c-3.13,1.6-6.19,3.33-9,5.5c-2.61,2-4.9,4.23-6.52,7.1c-1.63,2.92-1.88,5.94-0.73,9.1 c1.57,4.35,4.94,7.11,8.48,9.72c2.77,2.04,5.81,3.71,8.91,5.14c3.14,1.45,6.37,2.75,9.64,3.92c2.11,0.75,4.24,1.53,6.36,2.22 c2.33,0.77,4.68,1.63,7.13,2.03c1.29,0.21,2.54,0.67,3.76,1.07c1.77,0.59,3.63,0.7,5.39,1.32c1.73,0.61,3.6,0.87,5.43,1.1 c1.21,0.15,1.73,0.62,1.71,1.84c-0.04,2.49,0,4.99-0.02,7.49c-0.01,1.18-0.38,1.4-1.52,1.03c-2.09-0.68-4.27-0.92-6.39-1.46 c-1.87-0.47-3.74-0.96-5.61-1.44c-1.67-0.43-3.35-0.83-5.01-1.29c-1.45-0.4-2.89-0.85-4.32-1.34c-1.26-0.43-2.57-0.71-3.84-1.14 c-2.18-0.73-4.35-1.48-6.52-2.24c-1.89-0.66-3.75-1.44-5.59-2.24c-3-1.3-5.99-2.58-8.86-4.16c-3.38-1.87-6.64-3.91-9.69-6.3 c-3.3-2.58-6.02-5.65-7.77-9.44C11.65,136.68,10.95,134.76,11.24,133.27z"></path> <path class="st1" d="M197.49,163.25c1.95,0,3.89,0.02,5.84-0.01c0.93-0.02,1.3,0.38,1.27,1.29c-0.04,1.39-0.02,2.79-0.01,4.19 c0.01,0.62-0.17,0.92-0.85,1.16c-5.14,1.84-10.46,2.08-15.83,1.95c-3.33-0.08-6.6-0.47-9.69-1.96c-2.79-1.35-4.47-4.36-3.58-7.26 c0.5-1.63,1.84-2.7,3.31-3.49c1.37-1.17,5.06-2.01,10.57-2.49c3.44-0.18,6.83,0.32,10.19,0.84c1.65,0.25,3.3,0.96,4.57,2.22 c0.35,0.34,0.64,0.69,0.5,1.21c-0.14,0.52-0.6,0.57-1.01,0.61c-2.52,0.28-5.07,0.59-7.58,0.31c-1.24-0.14-2.37-1.13-3.73-1.32 c-2.12-0.3-4.09,0.08-5.94,1.08c-1.66,0.89-1.67,2.38-1.29,3.95c0.36,1.46,1.53,2.15,2.83,2.38c2.5,0.45,5.04,0.39,7.56,0.01 c0.5-0.08,1.26-0.09,1.18-0.86c-0.08-0.68-0.76-0.53-1.24-0.53c-1.06-0.02-2.12-0.04-3.17,0.01c-1.13,0.06-1.09-0.68-1.05-1.43 c0.04-0.79-0.32-1.84,1.06-1.85C193.43,163.24,195.46,163.25,197.49,163.25z"></path> <path class="st1" d="M98.9,164.38c0-1.9,0.05-3.81-0.02-5.71c-0.04-1.12,0.45-1.54,1.48-1.54c2.33,0,4.65,0.02,6.98-0.01 c0.76-0.01,1.09,0.31,1.07,1.05c-0.02,0.89,0.01,1.78-0.01,2.66c-0.02,0.76,0.23,1.18,1.09,1.17c2.33-0.03,4.65-0.03,6.98-0.01 c0.9,0.01,1.35-0.37,1.28-1.29c0-0.04,0-0.08,0-0.13c-0.05-4.12-0.15-3.39,3.46-3.44c1.61-0.02,3.22,0.01,4.82-0.01 c1.07-0.01,1.61,0.37,1.59,1.57c-0.06,3.8-0.06,7.61,0,11.41c0.02,1.15-0.48,1.5-1.5,1.49c-2.37-0.01-4.74-0.02-7.11,0.01 c-0.91,0.01-1.32-0.34-1.28-1.28c0.05-1.01,0-2.03,0.02-3.04c0.02-0.83-0.3-1.27-1.18-1.27c-2.37,0.01-4.74,0.01-7.11-0.01 c-0.79-0.01-1.05,0.41-1.06,1.09c-0.01,1.1-0.04,2.2,0.01,3.3c0.04,0.85-0.22,1.23-1.14,1.22c-2.33-0.04-4.65-0.02-6.98-0.01 c-1.03,0-1.49-0.38-1.43-1.52C98.97,168.18,98.9,166.28,98.9,164.38z"></path> <path class="st1" d="M226.26,171.6c-2.62,0-5.24-0.04-7.86,0.02c-1.06,0.02-1.5-0.25-1.48-1.42c0.07-3.89,0.05-7.77,0.01-11.66 c-0.01-1.02,0.3-1.43,1.37-1.42c4.69,0.04,9.39-0.06,14.08,0.05c2.93,0.07,5.86,0.28,8.52,1.81c2.82,1.63,4.17,4.35,3.24,7.43 c-0.48,1.61-1.86,2.69-3.35,3.42c-2.69,1.32-5.57,1.84-8.57,1.78C230.23,171.57,228.24,171.6,226.26,171.6z M226.48,164.46 c0,0.84,0,1.69,0,2.53c0,0.44,0.02,0.97,0.59,0.93c2.02-0.16,4.11,0.58,6.06-0.62c1.15-0.71,1.95-1.88,1.8-3.13 c-0.19-1.58-1.13-2.8-2.5-3.1c-0.74-0.16-1.51-0.23-2.26-0.25C226.49,160.75,226.49,160.76,226.48,164.46z"></path> <path class="st1" d="M152.12,157.13c4.06,0,8.12,0,12.18,0c1.56,0,1.68,0.12,1.68,1.64c0.01,2.22,0.01,2.22-2.16,2.22 c-1.82,0-3.64,0.07-5.45-0.02c-1.26-0.06-1.59,0.42-1.55,1.61c0.08,2.58-0.01,5.16,0.05,7.73c0.02,0.95-0.33,1.29-1.24,1.28 c-2.41-0.02-4.82-0.03-7.23,0c-0.94,0.01-1.24-0.41-1.23-1.32c0.04-2.7-0.01-5.41,0.04-8.11c0.02-0.89-0.28-1.2-1.16-1.19 c-2.16,0.04-4.31-0.03-6.47,0.03c-1.15,0.03-1.68-0.37-1.54-1.54c0.03-0.29,0.02-0.59,0-0.89c-0.05-1.07,0.42-1.49,1.52-1.48 C143.75,157.15,147.94,157.13,152.12,157.13z"></path> <g> <g> <polygon class="st1" points="378.71,90.23 367.7,90.23 367.7,64.06 357.48,64.06 357.48,130.36 367.7,130.36 367.7,99.64 378.71,99.64 378.71,130.36 388.94,130.36 388.94,64.06 378.71,64.06 "></polygon> <polygon class="st1" points="411.28,100.07 425.86,100.07 425.86,90.67 411.28,90.67 411.28,73.55 426.67,73.55 426.67,64.06 401.06,64.06 401.06,130.36 426.79,130.36 428.08,120.95 411.28,120.95 "></polygon> <path class="st1" d="M458.4,81.27c0,10.89,0.02,20.22,0.5,28.38h-0.11c-0.7-3.51-8.61-36.24-11.26-45.59h-11.84v66.3h9.53v-18.13 c0-11.92,0.04-20.91-0.44-28.94h0.1c0.66,2.79,9.49,39.15,11.58,47.07h11.39v-66.3h-9.44V81.27z"></path> <path class="st1" d="M493,102.07h5.8v9.68c0,6.82-1.08,10.53-5.51,10.53c-3.7,0-5.23-2.77-5.23-8.08V80.27 c0-5.29,1.59-7.87,5.32-7.87c4.67,0,5.18,4.04,5.18,7.54v2.65h10.23v-2.15c0-7.12-1.47-17.35-15.39-17.35 c-11.52,0-15.74,7.97-15.74,18.8v31.14c0,11.24,3.14,18.3,12.9,18.3c4.28,0,8.13-1.54,9.97-5.95c0.09,1.41,0.29,3.81,0.56,4.98 h7.97V93.28H493V102.07z"></path> <polygon class="st1" points="514.08,73.55 524.73,73.55 524.73,130.36 534.95,130.36 534.95,73.55 545.66,73.55 545.66,64.06 514.08,64.06 "></polygon> <path class="st1" d="M565.37,63.09c-9.88,0-16.28,5.79-16.28,18.49v31.21c0,12.38,4.85,18.54,15.63,18.54 c11.23,0,16.62-6.01,16.62-18.71V81.65C581.35,68.9,575.42,63.09,565.37,63.09z M570.94,113.85c0,5.83-1.78,8.24-5.75,8.24 c-3.69,0-5.68-2.59-5.68-8.1V80.65c0-5.61,1.98-8.25,5.66-8.25c4.15,0,5.76,2.91,5.76,8.17V113.85z"></path> <path class="st1" d="M613.91,81.27c0,10.89,0.02,20.22,0.5,28.38h-0.11c-0.7-3.51-8.61-36.24-11.26-45.59H591.2v66.3h9.53v-18.13 c0-11.92,0.04-20.91-0.44-28.94h0.1c0.66,2.79,9.49,39.15,11.58,47.07h11.39v-66.3h-9.44V81.27z"></path> <path class="st1" d="M648.51,93.28v8.79h5.8v9.68c0,6.82-1.08,10.53-5.51,10.53c-3.7,0-5.23-2.77-5.23-8.08V80.27 c0-5.29,1.59-7.87,5.32-7.87c4.67,0,5.18,4.04,5.18,7.54v2.65h10.23v-2.15c0-7.12-1.47-17.35-15.39-17.35 c-11.52,0-15.74,7.97-15.74,18.8v31.14c0,11.24,3.14,18.3,12.9,18.3c4.28,0,8.13-1.54,9.97-5.95c0.09,1.41,0.29,3.81,0.56,4.98 h7.97V93.28H648.51z"></path> </g> <g> <polygon class="st2" points="361.92,146.64 359.2,146.64 359.2,186.57 361.92,186.57 364.8,186.57 384.85,186.57 384.85,181.25 364.8,181.25 364.8,169.41 381.83,169.41 381.83,164.08 364.8,164.08 364.8,151.97 384.85,151.97 384.85,146.64 364.8,146.64 "></polygon> <path class="st2" d="M405.6,170.43h8.1v1.73c0,2.95-0.75,5.25-2.25,6.89c-1.5,1.65-3.5,2.47-5.99,2.47 c-2.53,0-4.56-0.78-6.1-2.35c-1.54-1.57-2.31-3.65-2.31-6.25v-11.78c0-2.84,0.75-5.12,2.25-6.85c1.5-1.73,3.5-2.59,5.99-2.59 c1.68,0,3.27,0.55,4.75,1.65c1.48,1.1,2.48,2.68,2.99,4.75h6.07c-0.46-2.38-1.34-4.46-2.64-6.23c-1.3-1.78-2.91-3.16-4.82-4.15 c-1.91-0.99-4.03-1.48-6.36-1.48c-2.82,0-5.27,0.62-7.36,1.85c-2.09,1.24-3.71,2.97-4.87,5.2c-1.16,2.23-1.74,4.85-1.74,7.85 v11.78c0,2.82,0.59,5.29,1.76,7.4c1.17,2.11,2.82,3.75,4.94,4.91c2.12,1.16,4.6,1.75,7.44,1.75c2.82,0,5.27-0.62,7.36-1.85 c2.09-1.24,3.71-2.98,4.87-5.22c1.16-2.24,1.74-4.86,1.74-7.87v-6.98H405.6V170.43z"></path> <polygon class="st2" points="437.02,164.66 428.29,146.64 422.06,146.64 434.22,170.34 434.22,186.57 439.83,186.57 439.83,170.34 451.99,146.64 445.76,146.64 "></polygon> <path class="st2" d="M477.49,148.17c-1.79-1.02-3.9-1.52-6.32-1.52h-9.86h-2.72h-2.88v39.93h5.6v-15.49h9.86 c2.42,0,4.52-0.5,6.32-1.51c1.79-1.01,3.19-2.43,4.19-4.26c1-1.83,1.5-3.97,1.5-6.43c0-2.47-0.5-4.62-1.5-6.45 C480.68,150.61,479.28,149.18,477.49,148.17z M475.77,163.86c-1.11,1.26-2.58,1.9-4.41,1.9h-10.05v-13.79h10.05 c1.83,0,3.3,0.63,4.41,1.89c1.11,1.26,1.66,2.94,1.66,5.02C477.43,160.94,476.88,162.6,475.77,163.86z"></path> <polygon class="st2" points="516.03,146.64 487.85,146.64 487.85,151.97 499.14,151.97 499.14,186.57 504.74,186.57 504.74,151.97 516.03,151.97 "></polygon> </g> <g> <polygon class="st2" points="37,236.77 38.1,231.35 25.05,231.35 26.37,224.95 41.8,224.95 42.94,219.3 19.16,219.3 13.03,249.66 36.76,249.66 37.9,244.03 22.5,244.03 23.98,236.77 "></polygon> <polygon class="st2" points="67.36,219.3 63.49,238.46 55.04,219.3 46.92,219.3 40.78,249.66 49.11,249.66 53,230.49 61.47,249.66 69.52,249.66 75.68,219.3 "></polygon> <polygon class="st2" points="89.9,219.3 81.56,219.3 75.42,249.66 98.18,249.66 99.32,244.03 84.89,244.03 "></polygon> <polygon class="st2" points="102.88,249.66 111.21,249.66 117.34,219.3 109.04,219.3 "></polygon> <path class="st2" d="M131.8,226.75c1.46-1.58,3.31-2.33,5.55-2.26c1.51,0.04,2.67,0.44,3.49,1.18c0.82,0.75,1.29,1.93,1.4,3.55 l7.98,0.02c-0.24-3.34-1.43-5.89-3.55-7.65c-2.13-1.77-5.17-2.67-9.13-2.73c-4.53-0.07-8.35,1.27-11.47,4.02 c-3.12,2.75-5.06,6.48-5.8,11.2l-0.19,1.25c-0.41,2.81-0.17,5.33,0.71,7.57c0.88,2.24,2.34,3.98,4.38,5.23 c2.04,1.25,4.55,1.89,7.52,1.92c3.1,0.04,5.92-0.3,8.47-1.03c2.55-0.73,4.49-1.76,5.82-3.09l2.29-12.49h-14.09l-1.02,5.03h5.77 l-1.1,4.73c-1.49,0.85-3.23,1.26-5.21,1.23c-3.28-0.04-5.04-1.73-5.28-5.08c-0.13-1.39,0.03-3.33,0.49-5.83 C129.35,230.58,130.34,228.33,131.8,226.75z"></path> <polygon class="st2" points="175.42,231.35 163.26,231.35 165.71,219.3 157.37,219.3 151.24,249.66 159.56,249.66 162.14,236.98 174.28,236.98 171.73,249.66 180,249.66 186.16,219.3 177.86,219.3 "></polygon> <polygon class="st2" points="218.36,219.3 189.6,219.3 188.43,224.95 198.58,224.95 193.56,249.66 201.91,249.66 206.9,224.95 217.22,224.95 "></polygon> <polygon class="st2" points="240.32,236.77 241.42,231.35 228.37,231.35 229.69,224.95 245.12,224.95 246.26,219.3 222.49,219.3 216.35,249.66 240.08,249.66 241.22,244.03 225.82,244.03 227.3,236.77 "></polygon> <polygon class="st2" points="266.81,238.46 258.36,219.3 250.24,219.3 244.1,249.66 252.43,249.66 256.32,230.49 264.79,249.66 272.84,249.66 279,219.3 270.68,219.3 "></polygon> <polygon class="st2" points="279.3,249.66 287.63,249.66 293.76,219.3 285.46,219.3 "></polygon> <polygon class="st2" points="316.72,238.46 308.27,219.3 300.15,219.3 294.01,249.66 302.34,249.66 306.23,230.49 314.7,249.66 322.75,249.66 328.91,219.3 320.59,219.3 "></polygon> <path class="st2" d="M342.86,226.75c1.46-1.58,3.31-2.33,5.55-2.26c1.51,0.04,2.67,0.44,3.49,1.18c0.82,0.75,1.29,1.93,1.4,3.55 l7.98,0.02c-0.24-3.34-1.43-5.89-3.55-7.65c-2.13-1.77-5.17-2.67-9.13-2.73c-4.53-0.07-8.35,1.27-11.47,4.02 c-3.12,2.75-5.06,6.48-5.8,11.2l-0.19,1.25c-0.41,2.81-0.17,5.33,0.71,7.57c0.88,2.24,2.34,3.98,4.38,5.23 c2.04,1.25,4.55,1.89,7.52,1.92c3.1,0.04,5.92-0.3,8.47-1.03c2.55-0.73,4.49-1.76,5.82-3.09l2.29-12.49h-14.09l-1.02,5.03h5.77 l-1.1,4.73c-1.49,0.85-3.23,1.26-5.21,1.23c-3.28-0.04-5.04-1.73-5.28-5.08c-0.13-1.39,0.03-3.33,0.49-5.83 C340.41,230.58,341.4,228.33,342.86,226.75z"></path> <polygon class="st2" points="406.74,219.3 377.98,219.3 376.81,224.95 386.96,224.95 381.94,249.66 390.29,249.66 395.28,224.95 405.6,224.95 "></polygon> <polygon class="st2" points="431.35,219.3 428.92,231.35 416.75,231.35 419.21,219.3 410.86,219.3 404.73,249.66 413.05,249.66 415.63,236.98 427.78,236.98 425.22,249.66 433.5,249.66 439.65,219.3 "></polygon> <polygon class="st2" points="439.39,249.66 463.12,249.66 464.26,244.03 448.86,244.03 450.35,236.77 463.37,236.77 464.46,231.35 451.42,231.35 452.73,224.95 468.16,224.95 469.3,219.3 445.53,219.3 "></polygon> <polygon class="st2" points="479.88,249.66 488.21,249.66 490.67,237.56 504.03,237.56 505.17,231.93 491.81,231.93 493.22,224.95 507.92,224.95 509.06,219.3 486.02,219.3 "></polygon> <path class="st2" d="M527.98,239.14c-0.73,3.65-2.88,5.42-6.45,5.32c-1.23-0.04-2.19-0.35-2.86-0.92 c-0.67-0.57-1.05-1.37-1.13-2.4c-0.07-0.63-0.05-1.29,0.05-1.98l3.92-19.87h-8.37l-3.94,19.83c-0.29,2.13,0.01,4.02,0.91,5.68 c0.9,1.66,2.3,2.95,4.2,3.86c1.9,0.91,4.14,1.39,6.72,1.43c4.15,0.05,7.6-0.9,10.33-2.88c2.73-1.97,4.38-4.68,4.95-8.11 l3.94-19.81h-8.32L527.98,239.14z"></path> <polygon class="st2" points="543.06,224.95 553.2,224.95 548.19,249.66 556.54,249.66 561.53,224.95 571.84,224.95 572.99,219.3 544.22,219.3 "></polygon> <path class="st2" d="M595.9,219.3l-3.94,19.84c-0.73,3.65-2.88,5.42-6.45,5.32c-1.23-0.04-2.19-0.35-2.86-0.92 c-0.67-0.57-1.05-1.37-1.13-2.4c-0.07-0.63-0.05-1.29,0.05-1.98l3.92-19.87h-8.37l-3.94,19.83c-0.29,2.13,0.01,4.02,0.91,5.68 c0.9,1.66,2.3,2.95,4.2,3.86c1.9,0.91,4.14,1.39,6.72,1.43c4.15,0.05,7.6-0.9,10.33-2.88c2.73-1.97,4.38-4.68,4.95-8.11 l3.94-19.81H595.9z"></path> <path class="st2" d="M631.69,221.72c-2.17-1.6-5.25-2.41-9.26-2.41l-12.51-0.02l-6.13,30.36h8.32l2.19-10.74h4.62l3.89,10.74 h8.88v-0.35l-4.77-12.15c2.34-0.83,4.15-1.97,5.45-3.4c1.3-1.44,2.04-3.25,2.21-5.45C634.83,225.52,633.86,223.33,631.69,221.72z M625.86,230.21c-0.42,0.97-1.12,1.73-2.1,2.29c-0.98,0.56-2.14,0.83-3.47,0.83l-4.87-0.04l1.7-8.36l5.65,0.02 c1.98,0.08,3.13,0.9,3.46,2.45C626.41,228.3,626.29,229.24,625.86,230.21z"></path> <polygon class="st2" points="664.79,224.95 665.93,219.3 642.16,219.3 636.02,249.66 659.75,249.66 660.89,244.03 645.49,244.03 646.97,236.77 659.99,236.77 661.09,231.35 648.05,231.35 649.36,224.95 "></polygon> </g> </g> </g> </svg> 