<?xml version="1.0" encoding="UTF-8"?>
<svg id="Layer_1" data-name="Layer 1" xmlns="http://www.w3.org/2000/svg" width="46.1mm" height="13.2mm" viewBox="0 0 130.68 37.42">
  <path d="M60.47,16.72c-.39-.52-1-.81-1.65-.79-1.46,0-2.61,1.16-2.61,2.77s1.14,2.77,2.61,2.77c.64.03,1.25-.26,1.65-.77v.62h1.15v-5.24h-1.15v.63ZM58.95,20.4c-.99,0-1.59-.76-1.59-1.69s.64-1.69,1.59-1.69,1.59.73,1.59,1.69-.59,1.69-1.59,1.69Z" fill="#fff"/>
  <path d="M71.49,18.03v-.18c-.06-1.12-1.01-1.97-2.13-1.92-.65,0-1.46.19-1.92.94-.4-.61-1.08-.97-1.82-.95-.64-.03-1.24.27-1.61.79v-.63h-1.14v5.24h1.16v-3.05c.03-.72.64-1.28,1.36-1.25.77,0,1.22.5,1.22,1.38v2.92h1.15v-3.05c.03-.72.64-1.28,1.36-1.25.77,0,1.22.5,1.22,1.38v2.92h1.16v-3.29h-.02Z" fill="#fff"/>
  <path d="M81.88,15.96c-1.57-.05-2.87,1.18-2.92,2.74.05,1.49,1.25,2.7,2.74,2.74,1.57.05,2.87-1.18,2.92-2.74-.05-1.49-1.25-2.7-2.74-2.74ZM83.45,18.84c-.04.91-.81,1.62-1.71,1.59-.91-.04-1.62-.81-1.59-1.71h0v-.13c.04-.91.81-1.62,1.71-1.59.91.04,1.62.81,1.59,1.71v.13Z" fill="#fff"/>
  <path d="M90.18,16.79c-.5-.56-1.21-.87-1.97-.84h-.23c-1.46.06-2.6,1.31-2.54,2.77,0,1.58,1.09,2.77,2.77,2.77.75.02,1.46-.29,1.97-.84l-.71-.79c-.34.33-.81.53-1.29.55-.89,0-1.56-.7-1.56-1.69s.68-1.69,1.56-1.69c.47,0,.93.19,1.26.54l.73-.79h0s0,0,0,0Z" fill="#fff"/>
  <path d="M93.68,18.21l-.54-.08c-.48-.07-.87-.18-.87-.55s.36-.63.99-.63c.58,0,1.14.17,1.64.45h0s.48-.88.48-.88c-.65-.38-1.38-.57-2.13-.56-1.34,0-2.18.83-2.18,1.69s.62,1.39,1.79,1.55l.55.07c.62.09.91.19.91.58s-.41.64-1.2.64c-.62.04-1.24-.16-1.73-.54l-.52.86c.67.44,1.46.69,2.25.67,1.51,0,2.39-.83,2.39-1.72s-.69-1.39-1.84-1.56Z" fill="#fff"/>
  <path d="M76.77,16.72c-.39-.51-1.01-.81-1.65-.78-1.46,0-2.61,1.16-2.61,2.77s1.14,2.77,2.61,2.77c.64.03,1.25-.26,1.65-.77v.62h1.15v-6.95l-1.15.41v1.93ZM75.24,20.4c-.99,0-1.59-.76-1.59-1.69s.64-1.69,1.59-1.69,1.59.72,1.59,1.69-.59,1.69-1.59,1.69Z" fill="#fff"/>
  <path d="M44.35,12.15v.02h-7.7l.75,2.6h6.95c.72,0,1.3.59,1.31,1.31v1.31h-6.54c-2.18,0-3.95,1.77-3.95,3.95s1.77,3.95,3.95,3.95h5.24c2.18,0,3.95-1.77,3.95-3.96v-5.16c0-2.19-1.76-3.98-3.95-4ZM44.35,22.68h-5.26c-.72-.08-1.23-.72-1.16-1.45.06-.61.55-1.09,1.16-1.16h6.54l.02,1.3c0,.72-.59,1.3-1.31,1.31Z" fill="#fff"/>
  <polygon points="49.65 17.41 49.65 20.06 52.8 20.06 52.05 17.41 49.65 17.41" fill="#fff"/>
</svg>