<?xml version="1.0" encoding="UTF-8"?>
<svg id="Layer_1" data-name="Layer 1" xmlns="http://www.w3.org/2000/svg" width="46.1mm" height="13.2mm" viewBox="0 0 130.68 37.42">
  <path d="M34.05,17.6l.23-1.72,11.47-5.3-.09,1.44,10.98-3.59-.18,1.94,7.12-2.42-.18,1.53-11.43,5.92.12-1.59-11.04,5.53.63-4.22s-6.1,1.94-7.63,2.48" fill="#fff"/>
  <path d="M51.35,22.86h-3.34l-.64,1.54h-1.71l3.21-7.2h1.65l3.22,7.2h-1.75l-.64-1.54ZM50.83,21.6l-1.14-2.76-1.14,2.76h2.28ZM60.78,17.21v7.2h-1.37l-3.59-4.37v4.37h-1.65v-7.2h1.38l3.58,4.37v-4.37h1.65ZM62.07,17.21h2.83c2.35,0,3.97,1.42,3.97,3.6s-1.61,3.6-3.97,3.6h-2.83v-7.2ZM64.82,23.04c1.43,0,2.37-.85,2.37-2.23s-.94-2.23-2.37-2.23h-1.08v4.46h1.08ZM83.15,23.07v1.34h-5.57v-7.2h5.44v1.34h-3.78v1.56h3.34v1.3h-3.34v1.67h3.92ZM95.15,17.21l-2.35,7.2h-1.79l-1.58-4.87-1.63,4.87h-1.78l-2.36-7.2h1.73l1.62,5.06,1.7-5.06h1.54l1.65,5.1,1.68-5.1h1.59ZM76.6,24.38l-2.18-2.18c1.12-.26,1.95-1.26,1.95-2.46,0-1.4-1.13-2.53-2.53-2.53h-4.14v7.2h1.67v-5.84h1.36c1.02,0,1.87.46,1.87,1.25s-.85,1.25-1.87,1.25h-.55v1.19h.04l2.12,2.11h2.26Z" fill="#fff"/>
  <path d="M94.21,23.19c0-.67.54-1.21,1.22-1.21s1.21.54,1.21,1.21-.54,1.22-1.21,1.22-1.22-.54-1.22-1.22M96.44,23.19c0-.59-.43-1.05-1.02-1.05s-1.02.46-1.02,1.05.43,1.06,1.02,1.06,1.02-.46,1.02-1.06M96.03,23.87h-.2l-.39-.62h-.3v.62h-.17v-1.35h.59c.36,0,.48.13.48.36,0,.27-.19.36-.43.37l.41.62ZM95.39,23.11c.19,0,.47.03.47-.24,0-.21-.17-.24-.34-.24h-.39v.48h.25Z" fill="#fff"/>
  <g>
    <path d="M49.94,27.56v1.16h-.37v-1.12c0-.4-.2-.59-.54-.59-.39,0-.64.23-.64.67v1.04h-.37v-2.02h.35v.3c.15-.21.41-.32.73-.32.49,0,.84.28.84.87Z" fill="#fff"/>
    <path d="M53.58,28.05h-1.41l-.29.67h-.39l1.21-2.66h.38l1.21,2.66h-.4l-.29-.67ZM53.44,27.75l-.57-1.3-.57,1.3h1.15Z" fill="#fff"/>
    <path d="M58.05,27.56v1.16h-.37v-1.12c0-.4-.19-.59-.52-.59-.37,0-.6.23-.6.67v1.04h-.37v-1.12c0-.4-.19-.59-.52-.59-.37,0-.6.23-.6.67v1.04h-.37v-2.02h.35v.3c.14-.21.39-.32.7-.32s.57.12.7.37c.15-.23.43-.37.78-.37.49,0,.83.28.83.87Z" fill="#fff"/>
    <path d="M60.91,27.71c0,.62-.43,1.03-1.02,1.03-.29,0-.54-.11-.7-.33v1.04h-.37v-2.75h.35v.32c.16-.22.42-.34.72-.34.59,0,1.02.41,1.02,1.03ZM60.54,27.71c0-.43-.29-.71-.68-.71s-.68.28-.68.71.29.71.68.71.68-.28.68-.71Z" fill="#fff"/>
    <path d="M63.42,27.56v1.16h-.37v-1.12c0-.4-.2-.59-.54-.59-.39,0-.64.23-.64.67v1.04h-.37v-2.82h.37v1.09c.15-.19.4-.3.71-.3.49,0,.84.28.84.87Z" fill="#fff"/>
    <path d="M66.02,27.83h-1.64c.05.35.33.59.73.59.24,0,.43-.08.58-.24l.2.24c-.18.21-.46.33-.79.33-.65,0-1.08-.43-1.08-1.03s.43-1.03,1.01-1.03,1,.42,1,1.04c0,.03,0,.08,0,.11ZM64.38,27.57h1.29c-.04-.34-.29-.58-.65-.58s-.61.24-.65.58Z" fill="#fff"/>
    <path d="M68.54,27.56v1.16h-.37v-1.12c0-.4-.2-.59-.54-.59-.39,0-.64.23-.64.67v1.04h-.37v-2.02h.35v.3c.15-.21.41-.32.73-.32.49,0,.84.28.84.87Z" fill="#fff"/>
    <path d="M69.14,27.71c0-.6.44-1.03,1.05-1.03s1.05.43,1.05,1.03-.44,1.03-1.05,1.03-1.05-.43-1.05-1.03ZM70.86,27.71c0-.43-.29-.71-.68-.71s-.68.28-.68.71.29.71.68.71.68-.28.68-.71Z" fill="#fff"/>
    <path d="M71.83,25.89h.37v2.82h-.37v-2.82Z" fill="#fff"/>
    <path d="M73.92,27.71c0-.6.44-1.03,1.06-1.03.36,0,.66.15.82.43l-.28.18c-.13-.2-.33-.29-.55-.29-.4,0-.69.28-.69.71s.3.71.69.71c.22,0,.42-.09.55-.29l.28.18c-.16.28-.46.43-.82.43-.62,0-1.06-.43-1.06-1.03Z" fill="#fff"/>
    <path d="M76.16,27.71c0-.6.44-1.03,1.05-1.03s1.05.43,1.05,1.03-.44,1.03-1.05,1.03-1.05-.43-1.05-1.03ZM77.88,27.71c0-.43-.29-.71-.68-.71s-.68.28-.68.71.29.71.68.71.68-.28.68-.71Z" fill="#fff"/>
    <path d="M82.2,27.56v1.16h-.37v-1.12c0-.4-.19-.59-.52-.59-.37,0-.6.23-.6.67v1.04h-.37v-1.12c0-.4-.19-.59-.52-.59-.37,0-.6.23-.6.67v1.04h-.37v-2.02h.35v.3c.14-.21.39-.32.7-.32s.57.12.7.37c.15-.23.43-.37.78-.37.49,0,.83.28.83.87Z" fill="#fff"/>
    <path d="M85.05,27.71c0,.62-.43,1.03-1.02,1.03-.29,0-.54-.11-.7-.33v1.04h-.37v-2.75h.35v.32c.16-.22.42-.34.72-.34.59,0,1.02.41,1.02,1.03ZM84.69,27.71c0-.43-.29-.71-.68-.71s-.68.28-.68.71.29.71.68.71.68-.28.68-.71Z" fill="#fff"/>
    <path d="M87.23,27.5v1.22h-.35v-.27c-.12.18-.35.29-.66.29-.46,0-.75-.24-.75-.59,0-.32.21-.59.81-.59h.58v-.07c0-.31-.18-.49-.54-.49-.24,0-.48.08-.64.22l-.15-.27c.21-.17.51-.26.83-.26.55,0,.86.27.86.82ZM86.87,28.1v-.28h-.56c-.36,0-.46.14-.46.31,0,.2.17.33.44.33s.49-.13.58-.36Z" fill="#fff"/>
    <path d="M47.31,27.5v1.22h-.35v-.27c-.12.18-.35.29-.66.29-.46,0-.75-.24-.75-.59,0-.32.21-.59.81-.59h.58v-.07c0-.31-.18-.49-.54-.49-.24,0-.48.08-.64.22l-.15-.27c.21-.17.51-.26.83-.26.55,0,.86.27.86.82ZM46.95,28.1v-.28h-.56c-.36,0-.46.14-.46.31,0,.2.17.33.44.33s.49-.13.58-.36Z" fill="#fff"/>
    <path d="M89.92,27.56v1.16h-.37v-1.12c0-.4-.2-.59-.54-.59-.39,0-.64.23-.64.67v1.04h-.37v-2.02h.35v.3c.15-.21.41-.32.73-.32.49,0,.84.28.84.87Z" fill="#fff"/>
    <path d="M92.44,26.7l-.98,2.22c-.18.43-.41.56-.72.56-.19,0-.39-.06-.52-.19l.16-.27c.1.1.22.15.36.15.18,0,.29-.08.38-.31l.06-.14-.89-2.01h.38l.7,1.61.7-1.61h.36Z" fill="#fff"/>
  </g>
</svg>