<?xml version="1.0" encoding="UTF-8"?>
<svg id="Layer_1" data-name="Layer 1" xmlns="http://www.w3.org/2000/svg" width="46.1mm" height="13.2mm" viewBox="0 0 130.68 37.42">
  <path d="M34.87,16.48c1.05,0,1.86.27,2.39.66h.2s.05-.46.32-.74c-.82-.24-1.8-.37-2.86-.37-3.06,0-5.54.88-5.54,2.77,0,1.32,1.61,2.5,5.25,2.5,1,0,1.94-.11,2.76-.31.07-.34.29-.61.29-.61l-.16-.04c-.62.33-1.43.54-2.31.54-1.95,0-3.53-.59-3.53-2.19,0-1.21,1.25-2.19,3.2-2.19Z" fill="#fff"/>
  <polygon points="39.21 21.19 44.62 21.19 44.62 20.67 41.41 20.67 41.44 18.79 43.36 18.79 43.36 18.29 41.44 18.29 41.46 16.76 44.62 16.76 44.62 16.12 39.21 16.12 39.21 21.19" fill="#fff"/>
  <polygon points="57.92 16.09 53.94 21.19 55.29 21.19 57.92 17.51 60.58 21.19 62.86 21.19 58.98 16.08 57.92 16.09" fill="#fff"/>
  <path d="M52.86,17.35c0-.79-1.14-1.23-2.84-1.23-.74,0-1.37,0-1.85,0h0s-2.29,0-2.29,0v5.07h2.29v-4.64c.36,0,1.26,0,1.78.08.67.1.77.6.77.81s-.02.6-.49.88c-.47.28-1.08.25-1.08.25l2.73,2.62c1-.03,1.78,0,1.78,0l-2.98-2.48c1.25-.17,2.18-.57,2.18-1.36Z" fill="#fff"/>
  <path d="M70.31,20.72c-.41.1-.95.14-1.5.14-2.21,0-3.43-.88-3.43-2.09,0-1.4,1.55-2.29,3.54-2.29,1.24,0,2.12.28,2.73.74h.2c.16-.41.39-.75.39-.75-.94-.28-2.06-.45-3.28-.45-3.59,0-5.88,1.11-5.88,2.79,0,1.5,2.27,2.47,5.52,2.47,1.3,0,2.6-.12,3.74-.3,0,0,.04-1.56.07-2.05h-2.17c.05.74.06,1.79.06,1.79Z" fill="#fff"/>
  <path d="M86.9,19.63c0-.3.02-1.96.02-1.96,0,0,1.98,1.13,2.66,1.52.68.4,3.37,1.99,3.37,1.99h1.33v-1.56c0-.83.01-3.51.01-3.51h-1.16v3.51l-6.07-3.51h-1.26v5.07s.36,0,.52,0,.56,0,.56,0v-1.56Z" fill="#fff"/>
  <path d="M79.14,16.02c-2.94,0-5.33,1.04-5.33,2.78,0,1.56,2.39,2.53,5.33,2.53s5.33-1.1,5.33-2.78-2.39-2.53-5.33-2.53ZM79.14,20.86c-1.68,0-3.04-.5-3.04-2.08,0-1.46,1.36-2.34,3.04-2.34s3.04.73,3.04,2.15-1.36,2.28-3.04,2.28Z" fill="#fff"/>
  <path d="M95.18,12.38c-2.9,0-5.63,1.1-7.58,2.47,1.69-.87,4.04-1.59,6.38-1.59,3.61,0,6.04,1.64,6.04,4.01,0,3.58-5.52,7.37-11.14,7.37-.89,0-1.87-.13-2.19-.23.7.3,1.81.61,3.24.61,5.91,0,11.37-4.29,11.37-8.21,0-2.88-2.84-4.45-6.12-4.45Z" fill="#fff"/>
</svg>