<?xml version="1.0" encoding="UTF-8"?>
<svg id="Layer_1" xmlns="http://www.w3.org/2000/svg" version="1.1" viewBox="0 0 130.7 37.4">
  <!-- Generator: Adobe Illustrator 29.6.0, SVG Export Plug-In . SVG Version: 2.1.1 Build 207)  -->
  <defs>
    <style>
      .st0 {
        fill: #fff;
      }
    </style>
  </defs>
  <polygon class="st0" points="48.6 7.2 49.3 6.5 49.1 5.5 48.2 5.1 47.3 5.5 47.1 6.4 47.7 7.2 48.6 7.2"/>
  <path class="st0" d="M44.3,13.2h1.1c0,2.1,1.7,3.8,3.7,3.8v1.1c0,0,.2-1.1.2-1.1,2.1,0,3.7-1.7,3.8-3.7h1.1c0,0-1.1-.2-1.1-.2,0-2-1.7-3.7-3.8-3.7v-1.1c0,0-.2,1.1-.2,1.1-2,0-3.6,1.7-3.7,3.7h-1.1Z"/>
  <path class="st0" d="M51,19.6c-4.1.6-6.8-1.7-7.7-4.4-.9-2.8,0-5.9,2.5-7.5-.2-.3-.3-.6-.3-1-3.5,2.2-4.2,5.9-3,8.9,1.4,3.4,5,5.1,8.5,4.1Z"/>
  <path class="st0" d="M46.5,21.2c-3.5-1-6.5-4.4-5.9-9.6-1.2,4.5,1.2,9,5.5,10.6,3.8,1.4,8.5.5,11.1-4-.5,0-.9-.1-1.3-.4-2,3.1-5.8,4.4-9.4,3.4Z"/>
  <path class="st0" d="M89.1,5.9c-.2,0-.5.2-.6.3v-2.7s-.7.4-.7.4v10.4h.7v-5.8c0-.5,0-1.4.6-1.4.5,0,.5.9.5,1.2v6h.7v-6.2c0-1.1-.4-2.3-1.2-2.3Z"/>
  <path class="st0" d="M63.4,8c0-.8-.4-2.1-1.3-2.1-.8,0-1.3,1.2-1.3,2.2v4.1c0,.8.3,2.2,1.3,2.2s1.3-1.4,1.3-2.3v-4.1ZM62.6,11.7c0,.5,0,1.2-.4,1.3-.3,0-.4-.1-.5-.3-.1-.3-.1-.5-.1-.8v-3.5c0-.6,0-1.1.4-1.3.3-.1.4.1.5.3.1.2.1.5.1.8v3.5Z"/>
  <path class="st0" d="M85.2,12.6c0-.3,0-2,0-2.6,0-.5,0-2.4,0-2.5,0-.2.3-.4.4-.4.5,0,.6.6.6,1.2h.7c0-.8,0-1.3-.4-1.9-.3-.5-.9-.9-1.5-.3-.4.4-.6.9-.6,1.5v4.5c0,.5,0,.9.2,1.3.4,1,1.3,1.3,2,.3.3-.6.4-1.2.4-2l-.7.4c0,1.1-.8,1.3-1,.5Z"/>
  <path class="st0" d="M59.4,13.9c.4-.6.5-1.3.5-2.2l-.7.4c0,1.3-1.1,1.4-1.1,0,0-2.1,0-4.3,0-6.4,0-1.2.9-1.1,1-.5v.8c0,0,.8,0,.8,0,0-.9,0-1.5-.5-2.1-.4-.6-1.2-.5-1.6.2-.4.7-.4,1.4-.4,2.2v5.3c0,.9,0,1.5.4,2.2.5.7,1.2.7,1.6,0Z"/>
  <path class="st0" d="M66.5,6.6c-.2-.3-.4-.6-.7-.7-.5-.2-.6.1-.9.4l-.2-.4h-.5s0,8.5,0,8.5h.7c0-.2,0-5.1,0-5.8,0-.3,0-.6,0-.9.2-.7.7-.7,1,0,.1.4,0,2.4,0,2.9v3.9s.7,0,.7,0c0-.3,0-4.9,0-5.4,0-.8,0-1.7-.3-2.4Z"/>
  <path class="st0" d="M75.6,14.3v-6.3c0-.5.2-1,.5-1,.1,0,.2.1.4.3l.5-.7c-.1-.3-.4-.8-.9-.8-.3,0-.4.2-.6.5l-.2-.5h-.5s0,8.5,0,8.5h.8Z"/>
  <path class="st0" d="M81,12.6c.2,1.8,1.7,2.4,2.4.6.2-.5.2-1,.2-1.6l-.7.4c0,1.4-1.2,1.4-1.1-.3,0-.2.1-.2.3-.5.4-.4.9-.8,1.2-1.4.3-.7.4-2.1.2-2.9-.3-1.1-1.2-1.5-1.9-.7-.6.7-.5,1.8-.5,2.9s0,3,0,3.4ZM82.7,8.2c0,.5,0,1-.3,1.3-.1.2-.6.7-.7.8v-2.2c0-1.4,1.1-1.3,1.1.1Z"/>
  <polygon class="st0" points="69.4 14.3 70.4 5.9 69.6 5.9 69.1 11 68.6 5.9 67.9 5.9 68.8 14.3 69.4 14.3"/>
  <path class="st0" d="M72.4,11.3c.4-.4.9-.8,1.2-1.4.5-1,.5-3.4-.6-3.9-.5-.3-.9,0-1.2.3-.6.7-.5,1.8-.5,2.9s0,3,0,3.4c.2,1.9,1.8,2.4,2.4.6.2-.5.2-1,.2-1.6l-.7.4c0,1.4-1.2,1.4-1.1-.3,0-.2.1-.2.3-.5ZM72.1,8.1c0-1.4,1.1-1.3,1.1.1,0,.5,0,1-.3,1.3-.1.2-.6.7-.7.8v-2.2Z"/>
  <path class="st0" d="M79.4,12.1c0,.3,0,1-.3,1-.3,0-.4-.6-.4-1v-5.1h1.2v-1.2h-1.2v-2.4l-.7.4v2s-.5,0-.5,0v1.2h.5v5c0,.7.2,2.2,1.1,2.2.9,0,1.2-1.6,1.1-2.6l-.7.4Z"/>
  <path class="st0" d="M51.5,32.9c0-.1,0-.2,0-.2-.1,0-.3-.1-.4-.2,0,0-.2,0-.2,0-.9.2-2.3.7-3.2.9,0,0-.2,0-.1.2,0,0,.4.2.6.2,1,.2,2,0,2.8-.4.3-.1.5-.3.7-.5Z"/>
  <path class="st0" d="M49.8,30.6s0-.3,0-.5c0-.3,0-.6,0-.6,0-.2-.2-.2-.2-.2l-4.2-.3c-.2,0-.2.1-.3.3,0,.3,0,.5,0,.8s0,.5,0,.8c0,.2.1.3.3.3l4.2-.3s.2,0,.2-.2Z"/>
  <path class="st0" d="M50.4,32.2s.2,0,0-.2c-.1-.2-.3-.4-.4-.6,0-.1-.3,0-.3,0l-4,.5c-.2,0-.3,0-.2.3.2.4.5.7.9,1,0,0,.1,0,.3,0,.4,0,3.2-.8,3.6-.8h0Z"/>
  <path class="st0" d="M53.1,30.8c0,0-.1,0-.2.1,0,.2,0,.4-.2.6,0,0,0,.1,0,.1h0s.1,0,.2,0c.7-.2,1.5-.3,2.2-.5.2,0,.2-.1.2-.3,0-.1,0-.2,0-.1l-2.3.3Z"/>
  <path class="st0" d="M54.9,31.9c-1,.4-1.9.7-2.9,1.2,0,0-.2,0-.2.1-.3.3-.7.5-1.1.7,0,0,0,0,0,0,0,0,0,0,.3,0,1-.3,2.7-1.1,3.7-1.7.2-.1.3-.2.4-.3,0,0,0,0,0,0,0,0,0,0,0,0Z"/>
  <path class="st0" d="M55.3,31.2c-.8.3-1.7.5-2.5.7,0,0-.2,0-.3.2,0,.2-.1.3-.2.4,0,0,0,0,0,0,0,0,0,0,.1,0h0s2.6-1,2.6-1c.2,0,.3-.2.3-.4,0,0,0,0,0,0s0,0,0,0Z"/>
  <path class="st0" d="M46.5,27.1c-.4.3-.6.6-.9,1-.1.2,0,.2.2.3l4,.5s.2,0,.3,0c.1-.2.3-.4.4-.6.2-.2,0-.2,0-.2h0c-.4,0-3.2-.8-3.6-.9-.2,0-.3,0-.3,0Z"/>
  <path class="st0" d="M48.1,26.3c-.2,0-.5.1-.6.2-.1.1.1.2.1.2,1,.2,2.3.7,3.2.9,0,0,.1,0,.2,0,.1,0,.3-.1.4-.2,0,0,.1,0,0-.2-.2-.2-.4-.4-.7-.5-.8-.4-1.7-.7-2.8-.4Z"/>
  <path class="st0" d="M55.5,29.7l-2.2-.2h0c-.2,0-.2,0-.2.2h0c0,.2,0,.4,0,.5,0,.3,0,.3.2.2h0l2.2-.2c0,0,0,0,0-.1h0s0,0,0,0c0-.3,0-.4,0-.4,0,0,0,0,0,0Z"/>
  <path class="st0" d="M52.9,28.5h0c-.1,0,0,0,0,0,0,.2.1.4.2.6,0,.1,0,.1.2.1l2.3.3c.1,0,.1,0,0-.1,0-.2,0-.3-.2-.3-.7-.2-1.5-.3-2.2-.5,0,0-.1,0-.2,0Z"/>
  <path class="st0" d="M55,28.4l-2.6-1h0c0,0-.1,0-.1,0,0,0,0,0,0,0,0,.1.2.3.2.4,0,.1.2.1.3.2.8.3,1.7.5,2.5.7,0,0,0,0,0,0,0,0,0,0,0,0,0-.2-.1-.3-.3-.4Z"/>
  <path class="st0" d="M54.6,27.8c-1.1-.6-2.7-1.4-3.7-1.7-.2,0-.3,0-.3,0,0,0,0,0,0,0,.4.2.8.4,1.1.7,0,0,.2,0,.2.1,1,.4,1.9.7,2.9,1.2,0,0,0,0,0,0,0,0,0,0,0,0,0-.1-.2-.2-.4-.3Z"/>
  <path class="st0" d="M66.3,27.4h-2.9c0,0-.1,0-.1.1v5c0,0,0,.1.1.1h2.9c0,0,.1,0,.1-.1v-.2c0,0,0-.1-.1-.1h-2.5v-1.9h2.1c0,0,.1,0,.1-.1v-.2c0,0,0-.1-.1-.1h-2.1v-1.8h2.5c0,0,.1,0,.1-.1v-.2c0,0,0-.1-.1-.1Z"/>
  <path class="st0" d="M62.4,27.4h-.3c0,0-.1,0-.1,0l-1.8,4.2h0l-1.8-4.2s0,0-.1,0h-.3c-.1,0-.2.1-.1.2l2.2,5s0,0,.1,0h0c0,0,.1,0,.1,0l2.3-5c0-.1,0-.2-.1-.2Z"/>
  <path class="st0" d="M83.2,27.4h0c0,0-.1,0-.1,0l-2.3,5c0,0,0,.2.1.2h.3c0,0,.1,0,.1,0l.5-1.2h2.6l.5,1.2s0,0,.1,0h.3c.1,0,.2,0,.1-.2l-2.2-5s0,0-.1,0ZM82,31l1.1-2.4h0c.4.8.7,1.6,1.1,2.4h-2.2Z"/>
  <path class="st0" d="M78.9,27.4h-.1c0,0-.1,0-.1,0l-1.4,4.1h0l-1.5-4.1s0,0-.1,0h-.1c0,0-.1,0-.1.1l-.9,5c0,.1,0,.2.1.2h.3c0,0,.1,0,.1-.1l.6-3.8h0l1.4,3.9s0,0,.1,0h.1s.1,0,.1,0l1.4-3.9h0l.7,3.8c0,0,0,.1.1.1h.3c.1,0,.2,0,.1-.2l-1-5c0,0,0-.1-.1-.1Z"/>
  <rect class="st0" x="72.7" y="27.4" width=".6" height="5.2" rx=".1" ry=".1"/>
  <path class="st0" d="M69.8,27.9c.5,0,1,.2,1.4.6,0,0,.1,0,.2,0l.2-.2c0,0,0-.1,0-.2-.5-.4-1.1-.7-1.8-.7-1.5,0-2.7,1.2-2.7,2.7s1.2,2.7,2.7,2.7,1.3-.3,1.8-.7c0,0,0-.2,0-.2l-.2-.2c0,0-.1,0-.2,0-.4.3-.8.6-1.4.6-1.2,0-2.1-1-2.1-2.1s.9-2.1,2.1-2.1Z"/>
</svg>