<?xml version="1.0" encoding="UTF-8"?>
<svg id="Layer_1" data-name="Layer 1" xmlns="http://www.w3.org/2000/svg" width="46.1mm" height="13.2mm" viewBox="0 0 130.68 37.42">
  <path d="M78.68,16.61v6.62h16.59v-6.62h-16.59ZM94.67,18.99c-.42.36-.83.67-1.16.9.34.24.79.59,1.16.9v1.32c-.61-.58-1.47-1.24-2.05-1.63-1.76,1.14-3.87,1.79-5.93,1.79-2.42,0-4.84-.83-6.76-2.39,1.97-1.58,4.43-2.33,6.76-2.33,2.15,0,4.1.6,5.93,1.74.69-.47,1.3-.92,2.05-1.62v1.31Z" fill="#fff"/>
  <path d="M86.69,17.9c-2.87,0-5.12,1.16-6.2,2,.62.48,2.86,2.05,6.2,2.05,2.89,0,5.04-1.24,5.93-1.83.48.3,1.17.79,1.71,1.24v-.43c-.44-.36-.97-.74-1.38-1.02.32-.22.92-.64,1.36-1.01v-.43c-.54.44-1.26.94-1.69,1.21-.75-.49-2.81-1.78-5.93-1.78ZM86.69,21.59c-2.81,0-4.71-1.11-5.59-1.7.81-.58,2.85-1.65,5.59-1.65,3.16,0,5.08,1.33,5.58,1.65-.98.61-2.89,1.7-5.58,1.7Z" fill="#fff"/>
  <path d="M85.73,19.57s.03-.05.02-.09c0-.04-.04-.06-.08-.07-.06-.01-.12,0-.17.02-.06.02-.11.04-.16.07l-1.1.59s0-.02.01-.03c.02-.04.03-.08.05-.13,0-.02.02-.05.03-.07.01-.03.02-.05.03-.08.02-.04.02-.08,0-.11,0-.01-.01-.02-.03-.03-.03-.02-.06-.03-.09-.03-.01,0-.02,0-.04,0h-.28s-.09,0-.13,0h-.34s.01-.02.01-.02c0,0,0-.01.01-.02.03-.05.07-.09.1-.13.04-.04.08-.08.13-.11.04-.03.09-.05.14-.06.02,0,.04,0,.07,0,.02,0,.04,0,.07.01,0,0,.01,0,.02,0,.03,0,.06,0,.09-.03.02-.02.04-.05.05-.07.02-.04.03-.07.03-.11,0,0,0-.02,0-.03,0-.04-.01-.08-.05-.09-.03-.01-.06-.01-.1-.01-.08,0-.15,0-.23.02-.05.01-.11.03-.16.05-.05.02-.1.05-.15.08-.05.03-.09.06-.13.1-.04.04-.08.08-.12.12-.04.04-.08.09-.11.14-.02.02-.03.05-.05.08,0,.01-.02.03-.02.04,0,0,0,.01-.01.02,0,0,0,.02-.01.02h-.22c-.15,0-.24.17-.24.23,0,.05.03.08.1.08h.18l-.18.31s-.02.03-.02.04c0,0,0,0,0,0,0,.02-.02.03-.02.05,0,.02,0,.04,0,.06.02.03.05.03.08.04.03,0,.06,0,.09,0,.17,0,.19-.05.28-.2l.18-.31h.64l-.09.22c-.08.18.03.29.27.29.13,0,.24-.03.36-.09l.9-.5s.04.06.05.1c.01.07-.03.15-.1.17-.06.02-.11.01-.16-.02-.01,0-.03-.02-.04-.02-.01,0-.02-.02-.04-.02-.01,0-.03,0-.04,0-.02.01-.04.04-.06.06-.03.05-.05.11-.05.16,0,.15.15.18.26.18.24,0,.59-.15.59-.52,0-.18-.06-.25-.06-.32,0-.02.01-.04.02-.06Z" fill="#fff"/>
  <path d="M84.55,19.46c.13,0,.29-.09.29-.28,0-.11-.09-.2-.23-.2-.13,0-.29.09-.29.28,0,.11.09.2.23.2Z" fill="#fff"/>
  <path d="M86.55,19.55s-.07,0-.1.01c-.07.01-.14.04-.2.07-.06.03-.13.07-.18.11-.05.04-.1.1-.14.15-.03.06-.06.12-.07.19,0,.02,0,.03,0,.05,0,.19.19.33.38.33.24,0,.55-.18.78-.34,0,.03-.02.05-.03.08,0,.02-.01.04-.02.06,0,.02-.02.04-.01.07,0,.08.12.1.18.1.1,0,.18-.07.26-.13.08-.06.16-.11.25-.17.05-.03.09-.07.14-.1.04-.03.09-.06.11-.06s.03.03.04.08l.04.19c.03.13.1.19.24.19.09,0,.23-.03.54-.13.08.1.18.17.34.17.31,0,.73-.24,1.01-.43l-.1.19c-.03.05-.04.06-.04.1,0,.04.03.07.07.08.06.02.12.02.18,0,.09-.03.14-.11.19-.19.09-.14.27-.37.5-.37.09,0,.18.01.23-.05.04-.05.05-.12.05-.18,0-.03,0-.06-.03-.07-.01,0-.03,0-.04,0h-.03s-.06,0-.09,0c-.04,0-.08,0-.12.02,0,0-.01,0-.02,0-.09.02-.17.07-.24.12,0,0-.04.03-.04.03-.03-.06-.06-.17-.14-.17-.11,0-.76.47-.94.55-.07.03-.13.06-.2.08-.06.01-.13.02-.18-.03.23-.09.52-.28.52-.52,0-.14-.14-.2-.29-.2-.33,0-.62.29-.64.6-.13.04-.28.08-.32.08-.03,0-.06-.01-.08-.1l-.05-.29c-.01-.06-.05-.14-.14-.14-.1,0-.22.06-.28.1l-.28.18.33-.57s.04-.07.06-.1c.01-.03.03-.08.02-.11s-.05-.06-.08-.07c-.02,0-.05,0-.07,0-.02,0-.05,0-.07.02,0,0-.01,0-.02,0,0,0-.01,0-.01,0-.03.01-.05.03-.07.05-.02.02-.03.05-.05.07,0,0,0,.01,0,.02-.02.02-.03.05-.05.08-.05.07-.09.15-.14.23-.04.06-.09.11-.14.16-.05.05-.1.1-.15.14-.1.08-.2.16-.3.22-.08.05-.17.1-.26.14-.07.03-.14.06-.22.06-.01,0-.03,0-.04,0-.03-.01-.03-.04-.03-.07,0-.11.13-.22.25-.22.09,0,.17.01.22-.05.03-.03.05-.07.06-.12,0-.04.02-.09,0-.12-.01-.02-.04-.03-.06-.04-.05-.01-.11-.01-.16,0ZM89.24,19.68s.03.01.03.03c0,.05-.06.14-.26.22.03-.11.15-.24.23-.24Z" fill="#fff"/>
  <rect x="40.33" y="14.03" width="2.55" height="1.76" fill="#fff"/>
  <rect x="40.33" y="16.59" width="2.55" height="6.62" fill="#fff"/>
  <path d="M36.31,16.27v.31h-.9v1.87h.9v4.75h2.55v-4.75h1.12v-1.87h-1.12v-.3c0-.33.22-.49.6-.49h.52v-1.76c-.33-.03-.66-.04-1-.04-1.8,0-2.68.74-2.68,2.28Z" fill="#fff"/>
  <path d="M47.64,19l-1.27-.25c-.42-.08-.74-.18-.74-.48s.34-.38.7-.38.81.16.89.61h2.31c-.11-1.52-1.26-2.14-3.08-2.14-2.14,0-3.23,1.01-3.23,2.18s.75,1.75,1.99,1.99l1.27.25c.44.08.81.22.81.53s-.33.46-.74.46c-.5,0-1.01-.26-1.02-.79h-2.39c.07,1.83,1.68,2.43,3.43,2.43s3.23-.78,3.23-2.38c0-1.08-.78-1.79-2.14-2.05Z" fill="#fff"/>
  <path d="M68,16.37c-1.97,0-3.56,1.49-3.56,3.44,0,2.16,1.64,3.62,3.78,3.62,1.31,0,3.03-.79,3.43-2.31h-2.46c-.22.33-.55.49-1,.49-.68,0-1.19-.46-1.24-1.13h4.78c.04-2.47-1.47-4.11-3.73-4.11ZM66.98,19.11c.04-.49.45-.96,1.12-.96s1.05.45,1.05.96h-2.17Z" fill="#fff"/>
  <path d="M74.51,17.45v-.86h-2.51v6.62h2.55v-2.92c0-.97.59-1.58,1.71-1.58.07,0,.14,0,.26.01v-2.21c-.12-.01-.19-.01-.26-.01-.61,0-1.3.34-1.75.96Z" fill="#fff"/>
  <path d="M53.55,21.55c-.9,0-1.08-.93-1.08-1.67s.19-1.65,1.08-1.65c.52,0,.89.38,1,.85h2.36c-.16-1.79-1.71-2.72-3.34-2.72-2.25,0-3.67,1.73-3.67,3.52s1.41,3.54,3.67,3.54c1.64,0,3.33-.96,3.37-2.96h-2.36c-.08.72-.5,1.09-1.02,1.09Z" fill="#fff"/>
  <path d="M61.78,16.37c-.76,0-1.53.34-2.03.85v-3.18h-2.55v9.17h2.55v-3.58c0-.66.38-1.16,1.02-1.16.7,0,.85.53.85,1.15v3.59h2.55v-4.45c0-1.64-1.17-2.39-2.39-2.39Z" fill="#fff"/>
</svg>