<?xml version="1.0" encoding="UTF-8"?>
<svg id="Layer_1" data-name="Layer 1" xmlns="http://www.w3.org/2000/svg" width="46.1mm" height="13.2mm" viewBox="0 0 130.68 37.42">
  <polygon points="58.16 27.72 57.4 27.72 57.4 31.89 59.64 31.89 59.64 31.27 58.16 31.27 58.16 27.72" fill="#fff"/>
  <rect x="61.85" y="27.72" width=".76" height="4.17" fill="#fff"/>
  <path d="M67.07,29.98c-.13.34-.23.61-.31.85h-.01c-.09-.25-.18-.53-.3-.85l-.87-2.27h-.83l1.7,4.2h.61l1.7-4.2h-.82l-.87,2.26Z" fill="#fff"/>
  <polygon points="71.65 30.07 72.99 30.07 72.99 29.45 71.65 29.45 71.65 28.34 72.99 28.34 73.2 27.72 70.89 27.72 70.89 31.89 73.2 31.89 73.2 31.27 71.65 31.27 71.65 30.07" fill="#fff"/>
  <path d="M63.66,13.55s-.1-.04-.18-.05c-.08-.01-.17-.02-.29-.02s-.21,0-.29.02c-.08.01-.14.03-.18.05-.05.02-.08.05-.09.08-.02.03-.02.07-.02.11v10.17s0,.07.02.1c.02.03.05.05.09.07.04.02.11.04.18.05.08,0,.17.01.29.01.12,0,.22,0,.29-.01.08-.01.14-.03.18-.05.04-.02.07-.04.09-.07.02-.03.03-.06.03-.1v-10.17s-.01-.08-.03-.11c-.02-.03-.05-.06-.09-.08Z" fill="#fff"/>
  <path d="M71.91,22.06c.15-.46.23-.97.23-1.52s-.07-1.07-.21-1.52c-.14-.45-.36-.83-.64-1.15-.29-.31-.64-.55-1.07-.72-.43-.16-.93-.25-1.51-.25s-1.12.09-1.57.28c-.45.18-.82.44-1.12.78-.3.33-.52.73-.67,1.2-.15.46-.22.97-.22,1.52s.07,1.08.21,1.53c.14.45.35.83.64,1.15.29.31.64.55,1.07.72.43.16.93.25,1.51.25s1.11-.09,1.56-.28c.45-.19.82-.45,1.12-.78.3-.33.52-.73.67-1.2ZM70.68,21.69c-.08.32-.22.6-.39.84-.18.24-.41.42-.68.55-.28.13-.61.2-.98.2-.41,0-.76-.07-1.04-.21-.28-.14-.5-.33-.66-.58-.17-.24-.28-.53-.35-.85-.07-.32-.11-.67-.11-1.04s.04-.74.13-1.06c.09-.32.22-.61.4-.84.18-.24.41-.42.68-.55.27-.13.6-.19.99-.19.41,0,.76.07,1.04.21.28.14.5.34.66.58.16.24.28.53.35.85.07.32.11.67.11,1.03,0,.39-.04.75-.13,1.07Z" fill="#fff"/>
  <path d="M60.63,13.46c-1.29-.38-2.24.23-2.24.23h0c-.16.1-.3.21-.42.36-.18.22-.32.5-.41.84-.09.34-.13.75-.13,1.23v.71h-1.14s-.08,0-.11.03c-.03.02-.06.05-.08.09-.02.04-.03.1-.05.16-.01.07-.02.15-.02.24,0,.18.02.32.06.4.04.08.1.12.18.12h1.14v6.02s0,.08.03.1c.02.03.05.05.1.07.05.02.11.04.19.05.08,0,.18.01.3.01s.22,0,.3-.01c.08-.01.15-.03.19-.05.05-.02.08-.04.1-.07.02-.03.03-.06.03-.1v-6.02h1.97c.08,0,.14-.04.18-.12.05-.08.07-.21.07-.4,0-.1,0-.18-.02-.24-.01-.07-.03-.12-.05-.16-.02-.04-.05-.07-.08-.09-.03-.02-.06-.03-.1-.03h-1.97v-.75c0-.29.02-.55.05-.75.04-.21.09-.37.17-.5.08-.13.19-.23.32-.29.13-.06.29-.09.48-.09.14,0,.26.01.36.03.1.02.19.05.27.08.03.01.06.02.09.03l.21.09c.56.34.73.17.73.17l.39-.45c.11-.15-.03-.34-.03-.34-.49-.48-1.11-.61-1.11-.61Z" fill="#fff"/>
  <path d="M73.58,22.29c-.58,0-1.05.47-1.05,1.05s.47,1.05,1.05,1.05,1.05-.47,1.05-1.05-.47-1.05-1.05-1.05Z" fill="#fff"/>
  <polygon points="41.17 5.5 41.17 30.22 52.98 30.22 52.98 29.39 42 29.39 42 6.33 88.68 6.33 88.68 29.39 77.71 29.39 77.71 30.22 89.51 30.22 89.51 5.5 41.17 5.5" fill="#fff"/>
</svg>