<?xml version="1.0" encoding="UTF-8"?>
<svg id="Layer_1" data-name="Layer 1" xmlns="http://www.w3.org/2000/svg" width="46.1mm" height="13.2mm" viewBox="0 0 130.68 37.42">
  <path d="M13.26,21.85h1.08c.7,0,1.27-.57,1.27-1.27v-.24h-2.35v1.5Z" fill="#fff"/>
  <path d="M7.25,20.58c0,.7.57,1.27,1.27,1.27h1.08v-1.5h-2.35v.24Z" fill="#fff"/>
  <polygon points=".03 18.94 .03 21.85 1.45 21.85 1.45 19.78 5.65 19.78 5.65 18.53 1.45 18.53 1.45 17.28 6.35 17.28 6.35 16.03 .03 16.03 .03 18.94" fill="#fff"/>
  <path d="M21.57,16.03h-4.85v5.82h1.42v-2.07h3.17c.18,0,.32.14.32.32v1.75h1.42v-1.75c0-.32-.16-.59-.41-.76.3-.29.49-.69.49-1.13v-.62h0c0-.87-.7-1.57-1.57-1.57ZM21.71,18.21c0,.18-.14.32-.32.32h-3.25v-1.25h3.25c.18,0,.32.14.32.32v.61Z" fill="#fff"/>
  <path d="M37.61,16.03h-4.86v5.82h1.42v-4.57h3.26c.18,0,.32.14.32.32v4.25h1.42v-4.26c0-.87-.7-1.57-1.57-1.57Z" fill="#fff"/>
  <polygon points="10.25 16.03 10.25 17.53 12.6 17.53 12.6 16.03 11.43 16.03 10.25 16.03" fill="#fff"/>
  <polygon points="7.25 18.94 7.25 19.69 9.6 19.69 9.6 18.19 7.25 18.19 7.25 18.94" fill="#fff"/>
  <polygon points="13.26 19.69 15.61 19.69 15.61 18.94 15.61 18.19 13.26 18.19 13.26 19.69" fill="#fff"/>
  <polygon points="10.25 21.85 11.43 21.85 12.6 21.85 12.6 20.35 10.25 20.35 10.25 21.85" fill="#fff"/>
  <path d="M14.34,16.03h-1.08v1.5h2.35v-.24c0-.7-.57-1.27-1.27-1.27Z" fill="#fff"/>
  <path d="M7.25,17.3v.24h2.35v-1.5h-1.08c-.7,0-1.27.57-1.27,1.27Z" fill="#fff"/>
  <polygon points="30.23 16.03 30.23 18.94 30.23 21.85 30.94 21.85 31.65 21.85 31.65 18.94 31.65 16.03 30.94 16.03 30.23 16.03" fill="#fff"/>
  <polygon points="23.77 16.03 23.77 17.28 25.41 17.28 25.41 21.85 26.83 21.85 26.83 17.28 29.5 17.28 29.5 16.03 26.29 16.03 23.77 16.03" fill="#fff"/>
  <polygon points="46.74 17.28 48.38 17.28 48.38 21.85 49.8 21.85 49.8 17.28 52.48 17.28 52.48 16.03 46.74 16.03 46.74 17.28" fill="#fff"/>
  <polygon points="41.7 19.55 45.39 19.55 45.39 18.3 41.7 18.3 41.7 17.28 46.02 17.28 46.02 16.03 40.28 16.03 40.28 21.85 46.09 21.85 46.09 20.6 41.7 20.6 41.7 19.55" fill="#fff"/>
  <path d="M70.51,15.41c-.13,0-.24.07-.3.17l-.93,1.64s1.58.93,2.81,2.88c-.57-.56-1.33-.89-2.17-.89-2.07,0-3.46,2.88-3.46,2.88h1.85c.27-1.18,1.22-2.06,2.35-2.06.03,0,.07,0,.1,0,0,0,.02,0,.03,0,.02,0,.04,0,.07,0,.01,0,.02,0,.04,0,.02,0,.04,0,.06,0,.01,0,.02,0,.04,0,.02,0,.04,0,.06,0,.01,0,.02,0,.04,0,.02,0,.04,0,.06.01.01,0,.02,0,.04,0,.02,0,.04,0,.06.02,0,0,.02,0,.03,0,.03,0,.06.02.09.03,0,0,.02,0,.02,0,.02,0,.04.01.06.02.01,0,.02.01.04.01.02,0,.03.01.05.02.01,0,.02.01.04.02.01,0,.03.01.05.02.01,0,.03.01.04.02.01,0,.03.01.04.02.01,0,.03.01.04.02.01,0,.03.02.04.02.01,0,.02.01.04.02s.03.02.04.03.02.01.04.02c.02.02.05.03.07.05.01,0,.03.02.04.03.01,0,.02.02.03.03.01.01.03.02.04.03,0,0,.02.02.03.03.01.01.03.02.04.04,0,0,.02.02.03.03.01.01.03.02.04.04,0,0,.02.02.03.03.01.01.03.03.04.04,0,0,.02.02.02.03.01.01.03.03.04.04,0,0,0,.01.02.02.05.06.1.12.14.18,0,0,.01.02.02.02l.04.05s.01.02.02.03c.01.02.02.03.03.05,0,0,.01.02.02.03.01.02.02.04.03.05,0,0,0,.02.02.03,0,.02.02.04.03.06,0,0,0,.02.01.02.04.07.07.15.11.23,0,0,0,0,0,0,.05.13.1.27.13.41,0,.01,0,.02,0,.03h1.57s0,0,0,0l-3.76-6.5c-.06-.1-.17-.17-.3-.17Z" fill="#fff"/>
  <path d="M76.91,18.61c-.14-.05-.41-.1-.68-.1-1.03,0-1.6.78-1.6,1.82s.59,1.75,1.61,1.75h0c.42,0,.86-.12,1.05-.24v-4.89h-.38v1.66ZM76.91,21.63c-.11.07-.43.14-.67.14-.79,0-1.23-.57-1.23-1.44s.43-1.5,1.24-1.5c.24,0,.54.05.66.1h0v2.71Z" fill="#fff"/>
  <rect x="78.34" y="18.54" width=".38" height="3.47" fill="#fff"/>
  <path d="M78.53,17.24c-.15,0-.27.12-.27.26s.12.26.27.26.26-.12.26-.26-.11-.26-.26-.26Z" fill="#fff"/>
  <path d="M80.78,20.09c-.43-.16-.74-.3-.74-.72,0-.32.27-.59.74-.59.28,0,.58.1.74.21l.15-.28c-.22-.14-.55-.24-.92-.24-.7,0-1.1.39-1.1.9,0,.6.45.81.96,1.01.45.17.79.32.79.74,0,.39-.34.64-.85.64-.28,0-.64-.1-.84-.22l-.15.3c.25.14.65.24.99.24h0c.77,0,1.24-.38,1.24-.95,0-.63-.47-.83-1.01-1.04Z" fill="#fff"/>
  <path d="M83.25,17.54l-.37.14v.86h-.54v.29h.54v2.35c0,.59.37.87.88.87.12,0,.21-.01.27-.04v-.33s-.14.03-.21.03c-.31,0-.57-.16-.57-.55v-2.33h.79v-.29h-.79v-1.01Z" fill="#fff"/>
  <path d="M86.08,18.48c-.91,0-1.47.73-1.47,1.8,0,1.18.62,1.81,1.62,1.81.44,0,.85-.1,1.08-.24l-.13-.3c-.22.13-.59.22-.94.22-.74,0-1.21-.43-1.26-1.28l2.44-.36h0c0-.08,0-.14,0-.21,0-.91-.54-1.44-1.34-1.44ZM84.96,20.19c.02-.85.44-1.41,1.12-1.41.58,0,.97.35.97,1.11l-2.09.3Z" fill="#fff"/>
  <path d="M89.65,18.8c.25,0,.5.08.67.2l.14-.28c-.2-.14-.5-.24-.82-.24-.71,0-1.47.5-1.47,1.8s.76,1.81,1.47,1.81c.32,0,.61-.1.82-.23l-.14-.29c-.17.12-.42.2-.67.2-.52,0-1.1-.39-1.1-1.48s.58-1.48,1.1-1.48Z" fill="#fff"/>
  <path d="M130.62,20.4c-.04-.15-.11-.29-.21-.41-.14-.17-.31-.3-.5-.41-.3-.17-.62-.3-.93-.44-.19-.09-.37-.18-.52-.33-.09-.1-.15-.21-.14-.35.01-.16.12-.26.25-.34.17-.1.35-.14.54-.15.38-.02.74.05,1.1.15.04.01.06,0,.07-.04.03-.13.07-.26.12-.38.02-.06,0-.09-.06-.11-.49-.15-.99-.2-1.49-.14-.27.03-.52.1-.75.24-.55.31-.72,1.12-.13,1.6.22.18.47.31.72.44.27.13.55.25.81.42.13.08.26.18.34.31.15.23.09.46-.14.6-.03.02-.07.04-.11.05-.17.07-.34.09-.52.09-.45,0-.91,0-1.36,0-.07,0-.08.02-.08.09,0,.13,0,.26,0,.39,0,.06.01.07.07.07.49,0,.98,0,1.47,0,.24,0,.47-.03.7-.11.31-.11.56-.28.7-.59.03-.07.05-.14.07-.21h0s0-.37,0-.37c-.02-.01-.02-.04-.02-.06Z" fill="#fff"/>
  <path d="M111.97,19.35c-.08-.59-.39-1.04-.88-1.38-.5-.34-1.06-.48-1.65-.49-.7-.01-1.4,0-2.11,0-.06,0-.07.01-.07.07,0,.69,0,1.37,0,2.06s0,1.38,0,2.06c0,.07.02.08.08.08.66,0,1.32,0,1.97,0,.28,0,.55-.03.81-.1.56-.14,1.04-.4,1.41-.84.35-.42.5-.9.43-1.45ZM110.63,20.77h0c-.3.23-.66.34-1.03.39-.19.02-.37.03-.56.03-.32,0-.65,0-.97,0-.05,0-.07-.01-.07-.07,0-.51,0-1.01,0-1.52v-1.52s0-.06.06-.06c.44,0,.89-.01,1.33,0,.43.02.84.12,1.2.36.83.57.85,1.76.04,2.37Z" fill="#fff"/>
  <path d="M121.54,20.79c-.68.34-1.39.52-2.15.41-.35-.05-.69-.16-.98-.36-.66-.46-.85-1.3-.45-1.96.2-.33.5-.56.86-.71.55-.23,1.12-.23,1.7-.11.35.07.68.19,1,.35.04.02.05.02.05-.03,0-.19,0-.37,0-.56,0-.03,0-.05-.04-.06-.09-.03-.17-.06-.25-.08-.7-.22-1.41-.32-2.13-.2-.56.1-1.08.31-1.5.71-.38.36-.6.81-.64,1.33-.04.49.12.92.43,1.3.4.5.94.78,1.56.9.41.08.83.09,1.25.05.47-.04.91-.15,1.34-.34.02,0,.04-.01.04-.04v-.64h0s-.05.03-.08.04Z" fill="#fff"/>
  <path d="M114.66,17.49s-.04-.04-.07-.04c-.14,0-.28,0-.42,0-.04,0-.06.01-.08.05-.26.51-.52,1.02-.78,1.52-.38.74-.76,1.48-1.14,2.22-.08.16-.17.32-.25.49h.07c.21,0,.41,0,.62,0,.05,0,.07-.01.1-.06.48-.95.96-1.9,1.44-2.84.07-.14.15-.29.22-.43.03.01.03.04.04.06.2.38.41.76.61,1.14.38.7.75,1.39,1.13,2.09.01.03.03.05.07.05h.71s-.01-.03-.02-.04c-.75-1.4-1.5-2.8-2.25-4.21Z" fill="#fff"/>
  <path d="M126.63,20.73c-.58-1.08-1.15-2.15-1.73-3.23-.02-.04-.04-.05-.09-.05-.13,0-.27,0-.4,0-.04,0-.07,0-.09.05-.26.51-.53,1.03-.79,1.54-.4.78-.8,1.56-1.2,2.34-.06.12-.12.24-.18.36h.73s.04-.03.05-.05c.41-.81.82-1.62,1.23-2.43.15-.29.29-.57.44-.87.01.02.03.04.04.06.25.46.5.92.75,1.38.33.62.67,1.24,1,1.85.01.03.02.05.06.05h.72s-.02-.04-.02-.05c-.17-.32-.34-.64-.52-.96Z" fill="#fff"/>
  <path d="M99.08,16.86v-.02s-.11-.02-.11-.02c.03.02.07.04.11.04Z" fill="#fff"/>
  <path d="M106.17,20.43s-.02-.01-.03-.02c0,0,0,0,0,0,0,0,0,0,0,0-.16-.1-.32-.21-.48-.31-.04-.02-.03-.04,0-.06.14-.09.28-.18.41-.27.02-.01.05-.02.06-.05-.04-.02-.08,0-.11.03-.14.07-.28.14-.42.21-.05.03-.1.03-.16,0-.13-.08-.26-.15-.39-.22-.02-.01-.05-.02-.06-.04,0-.01.01-.02.02-.02.15-.08.29-.16.43-.25.05-.03.09-.03.14,0,.16.08.32.15.48.23.02.01.05.03.08.02-.11-.1-.24-.17-.37-.25-.05-.04-.11-.07-.17-.11.17-.11.34-.22.5-.33,0,0,0,0,0,0h0s.03-.01.03-.03c-.02,0-.03,0-.05.02,0,0,0,0,0,0-.18.09-.37.17-.55.26-.03.01-.05.01-.08,0-.67-.4-1.36-.75-2.07-1.08-.52-.24-1.05-.45-1.59-.62-.86-.28-1.75-.49-2.64-.67-.04,0-.05,0-.09,0,2.18.62,4.26,1.46,6.31,2.44-.21.1-.4.19-.6.28-.02.01-.04,0-.06-.01-.42-.23-.84-.43-1.27-.63-.45-.21-.91-.4-1.38-.56-.75-.25-1.51-.46-2.28-.62-.24-.05-.47-.11-.71-.15,0,0,0,0,0,0h0s-.08-.02-.12-.02c-.01-.01-.03-.02-.04,0,.01.01.03.02.04.02.04,0,.07.02.11.03,0,0,0,0,0,0,1.88.54,3.7,1.24,5.49,2.06-.02,0-.02.01-.03.02-.45.2-.9.4-1.35.59-.82.35-1.65.66-2.49.95-.53.18-1.07.35-1.6.5h0s0,0,0,0h0s-.04,0-.05.01h0s-.05.01-.08.02c.04,0,.06.01.08,0,.02,0,.04,0,.05-.01h0s0,0,0,0c.02,0,.04,0,.06,0,.66-.13,1.31-.28,1.95-.46.88-.24,1.73-.55,2.56-.95.36-.17.72-.35,1.07-.54.03-.02.06-.02.1,0,.12.06.25.12.37.18.06.03.12.05.18.1-.03.01-.05.02-.07.03-.69.33-1.39.64-2.09.94-.83.35-1.67.67-2.53.96-.52.18-1.05.34-1.59.5,0,0,0,0,0,0-.03,0-.06.02-.09.03h0s-.05,0-.07.02c.03,0,.05.01.07-.01.04,0,.08,0,.12-.02,0,0,0,0,0,0,0,0,0,0,0,0,.01,0,.02,0,.03,0,.86-.17,1.71-.38,2.54-.64.74-.23,1.45-.53,2.15-.87.55-.27,1.08-.55,1.61-.86.03-.02.05-.02.08,0,.18.09.37.18.56.27,0,0,0,0,0,0,0,0,0,0,0,0h0s.02.02.03.02c.03,0,0,.05.03.03.03-.03,0-.03-.02-.04Z" fill="#fff"/>
  <path d="M98.99,16.07s0,0,0,0c.04,0,.07.02.11.03,0,0,0,0,0,0,.32.09.63.18.94.28,1.01.32,2,.68,2.97,1.09,1.05.44,2.08.91,3.1,1.41.01.01.03.03.05.02,0-.02-.02-.03-.04-.03-.39-.27-.8-.51-1.22-.74-.46-.25-.92-.48-1.4-.71-.46-.22-.94-.41-1.42-.58-.73-.25-1.48-.44-2.24-.61-.24-.05-.48-.11-.72-.15,0,0,0,0,0,0h0s-.09-.03-.14-.03c0,0,0,0,0,0h0s-.03-.01-.06,0c.03,0,.04.01.06.02h0Z" fill="#fff"/>
  <path d="M106.1,20.52s-.01,0-.02,0c-.6.3-1.21.58-1.83.86-.5.22-.99.44-1.5.64-.97.39-1.95.74-2.95,1.05-.25.08-.49.15-.74.22,0,0,0,0,0,0,0,0,0,0,0,0h0s-.04,0-.06.02c.03,0,.05,0,.07,0,0,0,0,0,0,0,0,0,0,0,0,0,.04,0,.08-.01.12-.02.6-.12,1.2-.26,1.79-.42.54-.15,1.07-.31,1.59-.51.7-.27,1.36-.59,2.02-.94.52-.27,1.03-.56,1.51-.89h0s0,0,0,0c.01,0,.03-.01.03-.03-.02,0-.03,0-.05.02h0Z" fill="#fff"/>
  <rect x="59.37" y="13.77" width=".17" height="9.88" fill="#fff"/>
</svg>