<?xml version="1.0" encoding="UTF-8"?>
<svg id="Layer_1" xmlns="http://www.w3.org/2000/svg" version="1.1" viewBox="0 0 130.7 37.4">
  <!-- Generator: Adobe Illustrator 29.6.0, SVG Export Plug-In . SVG Version: 2.1.1 Build 207)  -->
  <defs>
    <style>
      .st0 {
        fill: #fff;
      }
    </style>
  </defs>
  <g>
    <path class="st0" d="M23.4,21.9h1.2c.8,0,1.4-.6,1.4-1.4v-.3h-2.6v1.6Z"/>
    <path class="st0" d="M16.8,20.5c0,.8.6,1.4,1.4,1.4h1.2v-1.6h-2.6v.3Z"/>
    <polygon class="st0" points="8.9 18.7 8.9 21.9 10.4 21.9 10.4 19.6 15 19.6 15 18.3 10.4 18.3 10.4 16.9 15.8 16.9 15.8 15.5 8.9 15.5 8.9 18.7"/>
    <path class="st0" d="M32.5,15.5h-5.3v6.4h1.6v-2.3h3.5c.2,0,.4.2.4.4v1.9h1.6v-1.9c0-.3-.2-.7-.4-.8.3-.3.5-.8.5-1.2v-.7h0c0-.9-.8-1.7-1.7-1.7ZM32.6,17.9c0,.2-.2.4-.4.4h-3.6v-1.4h3.6c.2,0,.4.2.4.4v.7Z"/>
    <path class="st0" d="M50,15.5h-5.3v6.4h1.6v-5h3.6c.2,0,.4.2.4.4v4.7h1.6v-4.7c0-.9-.8-1.7-1.7-1.7Z"/>
    <polygon class="st0" points="20.1 15.5 20.1 17.2 22.6 17.2 22.6 15.5 21.4 15.5 20.1 15.5"/>
    <polygon class="st0" points="16.8 18.7 16.8 19.5 19.3 19.5 19.3 17.9 16.8 17.9 16.8 18.7"/>
    <polygon class="st0" points="23.4 19.5 25.9 19.5 25.9 18.7 25.9 17.9 23.4 17.9 23.4 19.5"/>
    <polygon class="st0" points="20.1 21.9 21.4 21.9 22.6 21.9 22.6 20.2 20.1 20.2 20.1 21.9"/>
    <path class="st0" d="M24.5,15.5h-1.2v1.6h2.6v-.3c0-.8-.6-1.4-1.4-1.4Z"/>
    <path class="st0" d="M16.8,16.9v.3h2.6v-1.6h-1.2c-.8,0-1.4.6-1.4,1.4Z"/>
    <polygon class="st0" points="41.9 15.5 41.9 18.7 41.9 21.9 42.7 21.9 43.5 21.9 43.5 18.7 43.5 15.5 42.7 15.5 41.9 15.5"/>
    <polygon class="st0" points="34.9 15.5 34.9 16.9 36.7 16.9 36.7 21.9 38.2 21.9 38.2 16.9 41.1 16.9 41.1 15.5 37.6 15.5 34.9 15.5"/>
    <polygon class="st0" points="60 16.9 61.8 16.9 61.8 21.9 63.4 21.9 63.4 16.9 66.3 16.9 66.3 15.5 60 15.5 60 16.9"/>
    <polygon class="st0" points="54.5 19.4 58.5 19.4 58.5 18 54.5 18 54.5 16.9 59.2 16.9 59.2 15.5 52.9 15.5 52.9 21.9 59.3 21.9 59.3 20.5 54.5 20.5 54.5 19.4"/>
  </g>
  <g>
    <path class="st0" d="M121.8,19.6c0-.2-.1-.4-.3-.5-.2-.2-.4-.4-.6-.5-.4-.2-.8-.4-1.2-.6-.2-.1-.5-.2-.7-.4-.1-.1-.2-.3-.2-.4,0-.2.2-.3.3-.4.2-.1.5-.2.7-.2.5,0,1,0,1.4.2,0,0,0,0,0,0,0-.2,0-.3.2-.5,0,0,0-.1,0-.1-.6-.2-1.3-.3-1.9-.2-.3,0-.7.1-1,.3-.7.4-.9,1.4-.2,2.1.3.2.6.4.9.6.4.2.7.3,1,.5.2.1.3.2.4.4.2.3.1.6-.2.8,0,0,0,0-.1,0-.2,0-.4.1-.7.1-.6,0-1.2,0-1.8,0,0,0-.1,0-.1.1,0,.2,0,.3,0,.5,0,0,0,0,0,0,.6,0,1.3,0,1.9,0,.3,0,.6,0,.9-.1.4-.1.7-.4.9-.8,0,0,0-.2,0-.3h0s0-.5,0-.5c0,0,0,0,0,0Z"/>
    <path class="st0" d="M97.7,18.3c-.1-.8-.5-1.3-1.1-1.8-.6-.4-1.4-.6-2.1-.6-.9,0-1.8,0-2.7,0,0,0,0,0,0,0,0,.9,0,1.8,0,2.6s0,1.8,0,2.7c0,0,0,.1.1.1.8,0,1.7,0,2.5,0,.4,0,.7,0,1-.1.7-.2,1.3-.5,1.8-1.1.4-.5.6-1.2.5-1.9ZM96,20.1h0c-.4.3-.8.4-1.3.5-.2,0-.5,0-.7,0-.4,0-.8,0-1.3,0,0,0,0,0,0,0,0-.7,0-1.3,0-2v-2c0,0,0,0,0,0,.6,0,1.1,0,1.7,0,.6,0,1.1.2,1.5.5,1.1.7,1.1,2.3,0,3.1Z"/>
    <path class="st0" d="M110.1,20.1c-.9.4-1.8.7-2.8.5-.5,0-.9-.2-1.3-.5-.8-.6-1.1-1.7-.6-2.5.3-.4.6-.7,1.1-.9.7-.3,1.4-.3,2.2-.1.4,0,.9.3,1.3.4,0,0,0,0,0,0,0-.2,0-.5,0-.7,0,0,0,0,0,0-.1,0-.2,0-.3-.1-.9-.3-1.8-.4-2.7-.3-.7.1-1.4.4-1.9.9-.5.5-.8,1-.8,1.7,0,.6.2,1.2.5,1.7.5.6,1.2,1,2,1.2.5.1,1.1.1,1.6,0,.6,0,1.2-.2,1.7-.4,0,0,0,0,0,0v-.8h0s0,0,0,0Z"/>
    <path class="st0" d="M101.2,15.9s0,0,0,0c-.2,0-.4,0-.5,0,0,0,0,0-.1,0-.3.7-.7,1.3-1,2-.5,1-1,1.9-1.5,2.9-.1.2-.2.4-.3.6h0c.3,0,.5,0,.8,0,0,0,0,0,.1,0,.6-1.2,1.2-2.4,1.9-3.7,0-.2.2-.4.3-.6,0,0,0,0,0,0,.3.5.5,1,.8,1.5.5.9,1,1.8,1.5,2.7,0,0,0,0,0,0h.9s0,0,0,0c-1-1.8-1.9-3.6-2.9-5.4Z"/>
    <path class="st0" d="M116.6,20c-.7-1.4-1.5-2.8-2.2-4.2,0,0,0,0-.1,0-.2,0-.3,0-.5,0,0,0,0,0-.1,0-.3.7-.7,1.3-1,2-.5,1-1,2-1.6,3,0,.2-.2.3-.2.5h.9s0,0,0,0c.5-1,1.1-2.1,1.6-3.1.2-.4.4-.7.6-1.1,0,0,0,0,0,0,.3.6.6,1.2,1,1.8.4.8.9,1.6,1.3,2.4,0,0,0,0,0,0h.9s0,0,0,0c-.2-.4-.4-.8-.7-1.2Z"/>
    <path class="st0" d="M81.1,15.1h0s-.1,0-.1,0c0,0,0,0,.1,0Z"/>
    <path class="st0" d="M90.3,19.7s0,0,0,0c0,0,0,0,0,0,0,0,0,0,0,0-.2-.1-.4-.3-.6-.4,0,0,0,0,0,0,.2-.1.4-.2.5-.3,0,0,0,0,0,0,0,0-.1,0-.1,0-.2,0-.4.2-.5.3,0,0-.1,0-.2,0-.2,0-.3-.2-.5-.3,0,0,0,0,0,0,0,0,0,0,0,0,.2-.1.4-.2.6-.3,0,0,.1,0,.2,0,.2.1.4.2.6.3,0,0,0,0,.1,0-.1-.1-.3-.2-.5-.3,0,0-.1,0-.2-.1.2-.1.4-.3.6-.4,0,0,0,0,0,0h0s0,0,0,0c0,0,0,0,0,0,0,0,0,0,0,0-.2.1-.5.2-.7.3,0,0,0,0-.1,0-.9-.5-1.8-1-2.7-1.4-.7-.3-1.4-.6-2.1-.8-1.1-.4-2.2-.6-3.4-.9,0,0,0,0-.1,0,2.8.8,5.5,1.9,8.1,3.1-.3.1-.5.2-.8.4,0,0,0,0,0,0-.5-.3-1.1-.6-1.6-.8-.6-.3-1.2-.5-1.8-.7-1-.3-1.9-.6-2.9-.8-.3,0-.6-.1-.9-.2,0,0,0,0,0,0h0s-.1,0-.2,0c0,0,0,0,0,0,0,0,0,0,0,0,0,0,0,0,.1,0,0,0,0,0,0,0,2.4.7,4.8,1.6,7.1,2.7,0,0,0,0,0,0-.6.3-1.2.5-1.7.8-1.1.4-2.1.8-3.2,1.2-.7.2-1.4.4-2.1.6h0s0,0,0,0h0s0,0,0,0h0s0,0-.1,0c0,0,0,0,.1,0,0,0,0,0,0,0h0s0,0,0,0c0,0,0,0,0,0,.8-.2,1.7-.4,2.5-.6,1.1-.3,2.2-.7,3.3-1.2.5-.2.9-.5,1.4-.7,0,0,0,0,.1,0,.2,0,.3.2.5.2,0,0,.2,0,.2.1,0,0,0,0,0,0-.9.4-1.8.8-2.7,1.2-1.1.5-2.2.9-3.3,1.2-.7.2-1.4.4-2,.6,0,0,0,0,0,0,0,0,0,0-.1,0h0s0,0,0,0c0,0,0,0,0,0,0,0,.1,0,.2,0,0,0,0,0,0,0,0,0,0,0,0,0,0,0,0,0,0,0,1.1-.2,2.2-.5,3.3-.8,1-.3,1.9-.7,2.8-1.1.7-.3,1.4-.7,2.1-1.1,0,0,0,0,.1,0,.2.1.5.2.7.4,0,0,0,0,0,0,0,0,0,0,0,0h0s0,0,0,0c0,0,0,0,0,0,0,0,0,0,0,0Z"/>
    <path class="st0" d="M81,14s0,0,0,0c0,0,0,0,.1,0,0,0,0,0,0,0,.4.1.8.2,1.2.4,1.3.4,2.6.9,3.8,1.4,1.4.6,2.7,1.2,4,1.8,0,0,0,0,0,0,0,0,0,0,0,0-.5-.3-1-.7-1.6-.9-.6-.3-1.2-.6-1.8-.9-.6-.3-1.2-.5-1.8-.7-.9-.3-1.9-.6-2.9-.8-.3,0-.6-.1-.9-.2,0,0,0,0,0,0h0c0,0-.1,0-.2,0,0,0,0,0,0,0h0s0,0,0,0c0,0,0,0,0,0h0Z"/>
    <path class="st0" d="M90.2,19.8s0,0,0,0c-.8.4-1.6.7-2.4,1.1-.6.3-1.3.6-1.9.8-1.2.5-2.5,1-3.8,1.4-.3,0-.6.2-1,.3,0,0,0,0,0,0,0,0,0,0,0,0h0s0,0,0,0c0,0,0,0,0,0,0,0,0,0,0,0,0,0,0,0,0,0,0,0,.1,0,.2,0,.8-.2,1.5-.3,2.3-.5.7-.2,1.4-.4,2-.7.9-.3,1.8-.8,2.6-1.2.7-.3,1.3-.7,1.9-1.1h0s0,0,0,0c0,0,0,0,0,0,0,0,0,0,0,0h0Z"/>
  </g>
  <rect class="st0" x="73.5" y="13.3" width=".2" height="10.8"/>
</svg>