<?xml version="1.0" encoding="UTF-8"?>
<svg id="Layer_1" data-name="Layer 1" xmlns="http://www.w3.org/2000/svg" width="46.1mm" height="13.2mm" viewBox="0 0 130.68 37.42">
  <path d="M101.4,13.13v2.84l.05.86h-.05c-.2-.32-.49-.57-.86-.77-.37-.19-.79-.29-1.24-.29-.81,0-1.5.32-2.08.96-.57.65-.86,1.42-.86,2.33s.29,1.68.86,2.33c.58.64,1.27.96,2.08.96.45,0,.87-.1,1.24-.29s.66-.45.86-.77h.05v.86h1.11v-9.01h-1.16ZM100.89,20.66c-.36.41-.83.62-1.4.62s-1.02-.21-1.4-.63c-.38-.41-.57-.94-.57-1.6s.19-1.18.57-1.6c.38-.42.84-.63,1.4-.63s1.03.21,1.4.63c.38.42.57.95.57,1.6s-.19,1.2-.57,1.61Z" fill="#fff"/>
  <rect x="80.97" y="13.13" width="1.16" height="9.01" fill="#fff"/>
  <path d="M86.14,15.77c-.91,0-1.67.31-2.28.93-.6.62-.89,1.4-.89,2.35s.3,1.73.89,2.35c.6.62,1.36.93,2.28.93s1.67-.31,2.26-.93c.6-.61.91-1.4.91-2.35s-.3-1.73-.91-2.35c-.6-.62-1.35-.93-2.26-.93ZM87.57,20.66c-.39.41-.86.62-1.43.62s-1.05-.21-1.43-.62c-.39-.41-.58-.95-.58-1.61s.19-1.19.58-1.6c.39-.42.87-.63,1.43-.63s1.04.21,1.43.63c.39.41.58.94.58,1.6s-.19,1.2-.58,1.61Z" fill="#fff"/>
  <path d="M94.39,19.38c0,.52-.16.97-.47,1.34-.31.37-.7.56-1.16.56-.99,0-1.5-.5-1.52-1.51v-3.8h-1.16v3.87c0,.8.2,1.41.61,1.84.41.43.99.65,1.74.65.39,0,.77-.1,1.14-.3.36-.2.64-.45.81-.75h.05v.86h1.11v-6.16h-1.16v3.41Z" fill="#fff"/>
  <path d="M76.64,21.23c-1,0-1.83-.34-2.5-1.01-.66-.66-.99-1.53-.99-2.59s.33-1.93.99-2.59c.67-.67,1.51-1.01,2.5-1.01s1.83.39,2.48,1.17l.83-.81c-.85-.98-1.95-1.47-3.31-1.47s-2.46.45-3.35,1.36c-.89.89-1.33,2-1.33,3.35s.44,2.46,1.33,3.36c.9.9,2.01,1.35,3.35,1.35.71,0,1.38-.14,2-.42.62-.28,1.14-.68,1.57-1.19l-.84-.82c-.77.88-1.68,1.32-2.73,1.32Z" fill="#fff"/>
  <path d="M33.31,16.79v1.39h3.31c-.1.78-.36,1.34-.76,1.74-.48.49-1.24,1.02-2.57,1.02-2.05,0-3.66-1.65-3.66-3.71s1.6-3.71,3.66-3.71c1.11,0,1.91.44,2.51.99l.98-.98c-.83-.8-1.94-1.41-3.49-1.41-2.81,0-5.17,2.29-5.17,5.1s2.36,5.1,5.17,5.1c1.52,0,2.66-.5,3.56-1.43.92-.92,1.21-2.21,1.21-3.26,0-.32-.03-.61-.08-.85h-4.66Z" fill="#fff"/>
  <path d="M41.86,15.77c-1.82,0-3.29,1.38-3.29,3.28s1.48,3.28,3.29,3.28,3.29-1.39,3.29-3.28-1.48-3.28-3.29-3.28ZM41.86,21.04c-.99,0-1.85-.82-1.85-1.99s.86-1.99,1.85-1.99,1.85.81,1.85,1.99-.86,1.99-1.85,1.99Z" fill="#fff"/>
  <path d="M49.05,15.77c-1.82,0-3.29,1.38-3.29,3.28s1.48,3.28,3.29,3.28,3.29-1.39,3.29-3.28-1.48-3.28-3.29-3.28ZM49.05,21.04c-.99,0-1.85-.82-1.85-1.99s.86-1.99,1.85-1.99,1.85.81,1.85,1.99-.86,1.99-1.85,1.99Z" fill="#fff"/>
  <path d="M57.86,16.5h-.05c-.32-.39-.94-.73-1.73-.73-1.64,0-3.15,1.44-3.15,3.3s1.5,3.27,3.15,3.27c.78,0,1.4-.35,1.73-.75h.05v.47c0,1.26-.67,1.93-1.75,1.93-.88,0-1.43-.63-1.65-1.17l-1.26.52c.36.87,1.32,1.94,2.91,1.94,1.69,0,3.12-.99,3.12-3.42v-5.89h-1.37v.53ZM56.21,21.04c-.99,0-1.83-.83-1.83-1.98s.83-2,1.83-2,1.75.85,1.75,2-.77,1.98-1.75,1.98Z" fill="#fff"/>
  <rect x="60.23" y="12.52" width="1.44" height="9.62" fill="#fff"/>
  <path d="M68.27,17.86c-.27-.73-1.11-2.09-2.81-2.09s-3.1,1.33-3.1,3.28c0,1.84,1.39,3.28,3.26,3.28,1.5,0,2.37-.92,2.74-1.46l-1.12-.75c-.37.55-.88.91-1.62.91s-1.26-.34-1.59-1l4.39-1.82-.15-.37ZM63.8,18.95c-.04-1.27.98-1.92,1.72-1.92.57,0,1.06.29,1.22.7l-2.93,1.22Z" fill="#fff"/>
</svg>