<?xml version="1.0" encoding="UTF-8"?>
<svg id="Layer_1" data-name="Layer 1" xmlns="http://www.w3.org/2000/svg" width="46.1mm" height="13.2mm" viewBox="0 0 130.68 37.42">
  <path d="M36.75,15.75c-.92,0-1.7.32-2.31,1v-5.12h-1.2v10.24h1.2v-2.88c0-1.42.82-2.17,2.06-2.17s2,.73,2,2.17v8.07c0,1.05.76,1.29,1.14,1.29h.06v-9.57c0-1.85-1.1-3.04-2.95-3.04Z" fill="#fff"/>
  <path d="M72.9,15.75c-1,0-1.77.37-2.34.93-.84.85-1,2.01-1,3.27s.17,2.42,1,3.27c.57.57,1.34.94,2.34.94s1.79-.37,2.36-.94c.84-.85,1-2,1-3.27s-.17-2.42-1-3.27c-.57-.57-1.35-.93-2.36-.93ZM74.41,22.5c-.38.38-.92.6-1.51.6s-1.09-.22-1.47-.6c-.6-.6-.67-1.62-.67-2.54s.07-1.94.67-2.54c.38-.38.89-.6,1.47-.6s1.12.22,1.51.6c.6.6.65,1.62.65,2.54s-.05,1.94-.65,2.54Z" fill="#fff"/>
  <path d="M81.47,15.75h-.54c-.89,0-1.6.27-2.11.77-.59.57-.85,1.34-.85,2.29v5.29h1.2v-5.09c0-1.45.79-2.19,2.02-2.19s2.02.73,2.02,2.19v5.09h1.2v-5.29c0-.95-.27-1.72-.85-2.29-.5-.5-1.22-.77-2.11-.77Z" fill="#fff"/>
  <path d="M64.8,15.75h-.54c-.89,0-1.6.27-2.11.77-.09.09-.18.18-.25.28-.08-.1-.16-.19-.25-.28-.5-.5-1.22-.77-2.11-.77h-.54c-.89,0-1.6.27-2.11.77-.59.57-.85,1.34-.85,2.29v5.29h1.2v-5.09c0-1.45.79-2.19,2.02-2.19s2.02.73,2.02,2.19v5.09h1.21v-5.09c0-1.45.79-2.19,2.02-2.19s2.02.73,2.02,2.19v5.09h1.2v-5.29c0-.95-.27-1.72-.85-2.29-.5-.5-1.22-.77-2.11-.77Z" fill="#fff"/>
  <path d="M87.46,9.06c-1.42,0-2.58,1.15-2.58,2.58s1.15,2.58,2.58,2.58,2.58-1.15,2.58-2.58-1.15-2.58-2.58-2.58ZM86.66,12.76v-2.26l2.36,1.13-2.36,1.13Z" fill="#fff"/>
  <rect x="86.86" y="15.86" width="1.2" height="8.23" fill="#fff"/>
  <path d="M95.79,22.38h-.01c-.05.03-.12.08-.2.13-.46.29-.95.44-1.21.5-.08.02-.13.03-.16.03-.17.04-.34.06-.54.06-.8,0-1.47-.32-1.9-.94-.39-.54-.54-1.17-.54-2.21s.15-1.67.54-2.2c.43-.62,1.1-.94,1.9-.94.21,0,.4.02.57.06.25.04.74.16,1.2.43.15.09.25.17.32.24l.02-.02v-1.11c-.62-.49-1.25-.66-2.11-.66-2.07,0-3.64,1.4-3.64,4.21s1.57,4.21,3.64,4.21c.87,0,1.49-.18,2.11-.67v-1.12Z" fill="#fff"/>
  <path d="M44.54,15.75c-1.34,0-2.24.53-2.46.88v1.13c.48-.68,1.39-.97,2.45-.97,1.5,0,2.1.6,2.1,1.8v.93c-.35-.25-1.04-.71-2.19-.71-.89,0-1.74.2-2.33.78-.76.76-.67,2.15-.67,2.15,0,0,0,2.43,2.85,2.43,1.1,0,1.67-.18,2.34-.85l.04.76h1.2l-.04-5.6c0-1.79-1.09-2.74-3.29-2.74ZM46.63,21.17c0,.68-.13,1.15-.42,1.42-.52.5-1.14.55-1.84.55-1.43,0-1.8-.86-1.8-1.4s-.04-1.33.82-1.78c.79-.34,2.21-.37,3.24.56v.65Z" fill="#fff"/>
  <path d="M52.95,15.75c-.89,0-1.6.27-2.11.77-.59.57-.85,1.34-.85,2.29v5.28h1.2v-5.08c0-.95.34-1.59.91-1.92.82-.35,1.83-.3,2.6.27l.08-1.15c-.17-.12-.34-.21-.56-.29-.38-.14-.9-.18-1.28-.17Z" fill="#fff"/>
  <path d="M96.78,25.4h0c.09-.04.17-.1.17-.21,0-.08-.04-.15-.09-.18-.06-.04-.13-.07-.27-.07-.12,0-.21.01-.3.03v.87h.16v-.37h.1c.12,0,.18.04.2.14.02.12.04.2.07.23h.16s-.04-.09-.06-.22c-.03-.11-.07-.18-.15-.21ZM96.56,25.34h-.11v-.27s.06-.01.13-.01c.16,0,.21.06.21.14,0,.1-.11.14-.23.14Z" fill="#fff"/>
  <path d="M96.61,24.54h0c-.47,0-.84.36-.84.82s.37.84.84.84.84-.37.84-.84-.37-.82-.83-.82ZM96.61,26.05c-.38,0-.67-.3-.67-.69s.28-.68.66-.68h0c.38,0,.65.3.65.68s-.28.69-.65.68Z" fill="#fff"/>
</svg>