<?xml version="1.0" encoding="UTF-8"?>
<svg id="Layer_1" data-name="Layer 1" xmlns="http://www.w3.org/2000/svg" width="46.1mm" height="13.2mm" viewBox="0 0 130.68 37.42">
  <path d="M41.54,12.79c-1.02-.01-2.27.38-3.09.75-1.25.57-2.4,1.26-3.91,1.26-1.66,0-2.1-.58-2.09-1.03,0-.65.74-.95,1.31-.95.33,0,.76.08,1.24.38.58.36.95.63,1.34.63.35,0,.55-.11.66-.49-.3-.21-1.41-.81-2.82-.81-1.98,0-2.31,1.15-2.31,1.8,0,.29.09.6.28.9-.15.19-.28.47-.28.86-.01.96.83,2.09,3.07,2.11,1.02.01,2.27-.38,3.09-.75,1.25-.57,2.4-1.26,3.91-1.26,1.66,0,2.1.58,2.09,1.03,0,.65-.74.95-1.31.95-.35,0-.76-.08-1.24-.38-.58-.36-.95-.63-1.34-.63-.35,0-.55.11-.66.49.3.21,1.41.81,2.82.81,1.98,0,2.31-1.15,2.31-1.8,0-.3-.08-.61-.28-.9.15-.19.28-.47.28-.86.01-.96-.83-2.09-3.07-2.11ZM44.19,15.58c-.41-.48-1.15-.85-2.36-.86-1.61-.02-2.72.7-4.11,1.26-1.04.42-1.91.78-2.99.78-1.73-.01-2.48-.64-2.48-1.24,0-.04,0-.08.01-.11.41.47,1.15.84,2.36.85,1.61.02,2.72-.7,4.11-1.26,1.04-.42,1.91-.78,2.99-.77,1.73.01,2.48.64,2.48,1.24,0,.04,0,.08-.01.11Z" fill="#fff"/>
  <path d="M63.4,18.26c1.17,0,2.24-.46,2.89-.99v-2.17h-2.89v1.06h1.62v.6c-.32.2-.95.39-1.62.39-1.17,0-2.04-.71-2.04-1.64s.87-1.65,2.04-1.64c.79,0,1.44.2,2.17.78l.69-.85c-.67-.6-1.62-1.04-2.86-1.04-1.93,0-3.44,1.18-3.44,2.75s1.51,2.75,3.44,2.75Z" fill="#fff"/>
  <path d="M59.16,20.36c-.18,0-.31.13-.31.3s.13.29.31.29.31-.13.31-.3c0-.16-.13-.29-.31-.29Z" fill="#fff"/>
  <polygon points="51.68 17.03 48.35 17.03 48.35 12.84 46.99 12.84 46.99 18.13 51.68 18.13 51.68 17.03" fill="#fff"/>
  <rect x="90.36" y="12.84" width="1.36" height="5.3" fill="#fff"/>
  <path d="M54.1,21.81c.28,0,.52.11.68.36l.35-.22c-.2-.35-.57-.54-1.03-.54-.78,0-1.33.54-1.33,1.28s.56,1.28,1.33,1.28c.45,0,.83-.19,1.03-.54l-.35-.22c-.16.25-.41.36-.68.36-.49,0-.86-.35-.86-.88s.37-.88.86-.88Z" fill="#fff"/>
  <path d="M61.26,23.59c-.26,0-.39-.16-.39-.42v-1.36h.73v-.38h-.73v-.55h-.46v.55h-.42v.38h.42v1.38c0,.5.29.79.79.79.2,0,.41-.06.55-.18l-.13-.33c-.09.08-.22.12-.36.12Z" fill="#fff"/>
  <path d="M63.35,21.4c-.73,0-1.26.54-1.26,1.28s.54,1.28,1.35,1.28c.41,0,.76-.15.99-.41l-.26-.29c-.19.2-.44.3-.73.3-.5,0-.85-.29-.92-.74h2.04s.01-.1.01-.13c0-.77-.51-1.3-1.24-1.3ZM62.53,22.51c.04-.42.37-.73.8-.73s.76.3.8.73h-1.61Z" fill="#fff"/>
  <path d="M57.05,21.4c-.38,0-.69.13-.88.38v-1.36h-.46v3.52h.46v-1.3c0-.55.31-.84.79-.84.44,0,.68.25.68.74v1.4h.46v-1.44h0c0-.74-.44-1.09-1.05-1.09Z" fill="#fff"/>
  <path d="M51.46,21.85v-.42h-.44v2.51h.46v-1.25c0-.55.3-.85.79-.85h.1v-.44c-.45,0-.76.16-.92.45Z" fill="#fff"/>
  <rect x="58.92" y="21.43" width=".46" height="2.51" fill="#fff"/>
  <path d="M55.58,12.75c-1.93,0-3.44,1.17-3.44,2.75s1.51,2.75,3.44,2.75,3.44-1.18,3.44-2.75-1.51-2.75-3.44-2.75ZM55.58,17.15c-1.17,0-2.04-.73-2.04-1.65s.87-1.64,2.04-1.64c1.17-.01,2.04.71,2.04,1.64s-.87,1.65-2.04,1.65Z" fill="#fff"/>
  <path d="M48.5,20.62l-1.51,3.32h.49l.37-.83h1.76l.36.83h.5l-1.51-3.32h-.47ZM48.01,22.73l.71-1.63.71,1.63h-1.43Z" fill="#fff"/>
  <path d="M75.29,21.4c-.75,0-1.31.54-1.31,1.28s.56,1.28,1.31,1.28,1.31-.54,1.31-1.28-.55-1.28-1.31-1.28ZM75.29,23.57c-.48,0-.85-.35-.85-.88s.37-.88.85-.88.85.35.85.88-.36.88-.85.88Z" fill="#fff"/>
  <path d="M66.4,21.81c.28,0,.52.11.68.36l.35-.22c-.2-.35-.57-.54-1.03-.54-.77,0-1.33.54-1.33,1.28s.56,1.28,1.33,1.28c.45,0,.83-.19,1.03-.54l-.35-.22c-.16.25-.41.36-.68.36-.49,0-.86-.35-.86-.88s.37-.88.86-.88Z" fill="#fff"/>
  <polygon points="86 12.84 84.64 12.84 84.64 18.13 89.32 18.13 89.32 17.03 86 17.03 86 12.84" fill="#fff"/>
  <path d="M91.37,21.4c-.4,0-.73.15-.9.4v-.38h-.44v2.51h.46v-1.3c0-.55.31-.84.79-.84.44,0,.68.25.68.74v1.4h.46v-1.44h0c0-.74-.44-1.09-1.05-1.09Z" fill="#fff"/>
  <path d="M88.11,21.4c-.4,0-.78.11-1.04.32l.19.35c.19-.17.5-.27.79-.27.45,0,.67.22.67.6v.09h-.73c-.75,0-1.02.33-1.02.74,0,.44.36.74.93.74.39,0,.67-.13.83-.36v.33h.44v-1.53h.02c0-.69-.39-1.02-1.08-1.02ZM88.73,23.18c-.11.29-.38.45-.73.45s-.56-.16-.56-.41c0-.21.12-.39.58-.39h.7v.36Z" fill="#fff"/>
  <path d="M97.57,21.4c-.73,0-1.26.54-1.26,1.28s.54,1.28,1.35,1.28c.41,0,.76-.15.99-.41l-.26-.29c-.19.2-.44.3-.73.3-.5,0-.85-.29-.92-.74h2.04s.01-.1.01-.13c0-.77-.51-1.3-1.24-1.3ZM96.77,22.51c.04-.42.37-.73.8-.73s.76.3.8.73h-1.61Z" fill="#fff"/>
  <path d="M98.8,16.49c0-.92-.66-1.43-2.19-1.57l-.95-.1c-.83-.08-1.25-.2-1.25-.47s.45-.48,1.48-.48c1.31,0,1.91.44,2.22.66l.69-.84c-.17-.12-1.15-.94-2.9-.94s-2.86.81-2.87,1.71c-.02,1.09,1.19,1.43,2.19,1.53.37.03.78.08,1.22.12.6.06.96.13.96.5,0,.39-.71.54-1.55.54-1.08,0-1.79-.35-2.29-.71l-.73.89c.54.38,1.4.92,3.06.92,2.14,0,2.9-.97,2.9-1.75Z" fill="#fff"/>
  <path d="M85.32,21.4c-.38,0-.69.13-.88.38v-1.36h-.46v3.52h.46v-1.3c0-.55.31-.84.79-.84.44,0,.68.25.68.74v1.4h.46v-1.44c0-.74-.44-1.09-1.05-1.09Z" fill="#fff"/>
  <path d="M95.32,16c.28.03.7.08,1.06.11l-1.06-.11Z" fill="#fff"/>
  <path d="M95.25,21.43v.39c-.21-.28-.56-.41-.93-.41-.73,0-1.27.49-1.27,1.22s.55,1.22,1.27,1.22c.36,0,.69-.12.9-.39v.2c0,.57-.27.85-.86.85-.37,0-.74-.12-.97-.32l-.22.35c.28.25.74.38,1.21.38.86,0,1.31-.4,1.31-1.3v-2.18h-.44ZM94.37,23.45c-.5,0-.87-.33-.87-.83s.36-.81.87-.81.86.32.86.81-.36.83-.86.83Z" fill="#fff"/>
  <path d="M69.05,23.59c-.26,0-.39-.16-.39-.42v-1.36h.73v-.38h-.73v-.55h-.46v.55h-.42v.38h.42v1.38c0,.5.29.79.79.79.2,0,.41-.06.55-.18l-.13-.33c-.09.08-.22.12-.36.12Z" fill="#fff"/>
  <rect x="67.72" y="12.84" width="1.36" height="5.29" fill="#fff"/>
  <path d="M70.45,22.14c0-.2.19-.35.59-.35.25,0,.5.06.73.2l.19-.36c-.22-.15-.59-.22-.92-.22-.65,0-1.05.3-1.05.76,0,1,1.59.51,1.59,1.07,0,.21-.18.35-.6.35-.32,0-.67-.11-.88-.26l-.17.35c.21.17.63.29,1.04.29.67,0,1.08-.29,1.08-.75,0-.98-1.6-.49-1.6-1.08Z" fill="#fff"/>
  <path d="M73.75,13.86c.79,0,1.44.19,2.17.78l.69-.85c-.67-.6-1.62-1.04-2.86-1.04-1.93,0-3.44,1.18-3.44,2.75s1.51,2.76,3.44,2.76c1.23,0,2.19-.44,2.86-1.04l-.69-.85c-.73.58-1.38.77-2.17.77-1.17,0-2.04-.71-2.04-1.64s.87-1.65,2.04-1.64Z" fill="#fff"/>
  <path d="M82.11,21.01c.37,0,.68.12.94.39l.31-.3c-.3-.35-.75-.51-1.26-.51-1,0-1.75.71-1.75,1.7s.75,1.7,1.75,1.7c.51,0,.96-.18,1.26-.52l-.31-.3c-.26.27-.57.4-.94.4-.75,0-1.31-.54-1.31-1.27s.56-1.27,1.31-1.27Z" fill="#fff"/>
  <path d="M76.89,18.14h1.62l.39-.69h2.84l.4.69h1.64l-3.44-5.6-3.45,5.6ZM79.49,16.39l.84-1.48.83,1.48h-1.66Z" fill="#fff"/>
  <path d="M77.37,21.21v.22h-.42v.38h.42v2.14h.46v-2.14h.73v-.38h-.73v-.22h-.01c0-.29.13-.45.41-.45.13,0,.26.04.35.12l.13-.35c-.12-.1-.31-.15-.51-.15-.54,0-.83.32-.83.81Z" fill="#fff"/>
</svg>