<?xml version="1.0" encoding="UTF-8"?>
<svg id="Layer_1" data-name="Layer 1" xmlns="http://www.w3.org/2000/svg" width="46.1mm" height="13.2mm" viewBox="0 0 130.68 37.42">
  <path d="M50.5,18.67h0c.18.83.18.92.18,1.03,0,1.42-1.6,2.21-3.69,2.21-4.74,0-8.89-2.78-8.89-4.61,0-.26.05-.51.15-.74-1.71.09-3.91.39-3.91,2.34,0,3.19,7.56,7.13,13.55,7.13,4.59,0,5.75-2.08,5.75-3.72,0-1.29-1.12-2.75-3.13-3.63Z" fill="#fff"/>
  <path d="M47.2,19.82h0c1.27,0,3.1-.26,3.1-1.77,0-.12,0-.23-.03-.35l-.76-3.28c-.17-.72-.33-1.05-1.59-1.68-.98-.5-3.13-1.33-3.76-1.33-.59,0-.76.76-1.47.76s-1.18-.57-1.81-.57-1,.41-1.31,1.27c0,0-.85,2.4-.96,2.75-.02.06-.02.13-.02.2,0,.93,3.68,4,8.61,4Z" fill="#fff"/>
  <path d="M63.64,17.4c0-1.34-1.06-2.38-2.64-2.38h-3.82v7.46h1.83v-2.72h1.4l1.41,2.72h2.05l-1.64-2.99c.85-.35,1.41-1.18,1.41-2.1ZM60.83,18.27h-1.81v-1.69h1.81c.61,0,.95.38.95.84s-.34.84-.95.84Z" fill="#fff"/>
  <path d="M88.99,16.74c-.86,0-1.72.2-2.64.62l.62,1.27c.66-.28,1.22-.45,1.71-.45.71,0,1.08.28,1.08.84v.28c-.42-.11-.85-.16-1.28-.16-1.45,0-2.32.61-2.32,1.7,0,.99.79,1.75,2.05,1.75h0c.61,0,1.1-.13,1.56-.44v.34h1.71v-3.62c0-1.37-.93-2.13-2.47-2.13ZM89.64,21.1c-.33.18-.7.27-1.08.27-.55,0-.89-.21-.89-.56,0-.37.37-.55.94-.55.35,0,.69.04,1.02.13v.72Z" fill="#fff"/>
  <path d="M96.36,18.28v-1.44h-1.58v-1.83l-1.72.37v1.45h-1.14v1.44h1.14v2.48c0,1.21.72,1.79,2.05,1.79.41-.01.81-.07,1.21-.17v-1.4c-.25.08-.51.12-.78.12-.54,0-.75-.17-.75-.68v-2.14h1.58Z" fill="#fff"/>
  <path d="M74.53,17.14c-.44-.25-.94-.38-1.44-.37-1.64,0-2.93,1.27-2.93,2.89-.02,1.58,1.25,2.88,2.83,2.9.02,0,.03,0,.05,0,.54,0,1.07-.17,1.51-.49v.42s1.7,0,1.7,0v-7.84l-1.72.37v2.12ZM74.52,20.64c-.32.3-.75.47-1.19.45-.83,0-1.48-.62-1.48-1.43h0c0-.82.64-1.43,1.48-1.43.44,0,.86.15,1.19.44v1.97Z" fill="#fff"/>
  <polygon points="83.74 17.89 80.67 17.89 80.67 15.02 78.84 15.02 78.83 22.49 80.66 22.49 80.66 19.56 83.73 19.56 83.73 22.48 85.57 22.48 85.57 15.02 83.74 15.02 83.74 17.89" fill="#fff"/>
  <path d="M66.75,16.75c-1.6-.02-2.92,1.25-2.94,2.85,0,.02,0,.05,0,.07h0c0,1.65,1.34,2.93,3.07,2.93.95,0,1.64-.26,2.36-.85l-1.14-1.01c-.27.28-.66.43-1.13.43-.6.02-1.15-.34-1.39-.9h4.02v-.43c0-1.79-1.2-3.08-2.85-3.08ZM65.55,19.05c.17-.56.6-.9,1.17-.9s1,.35,1.18.9h-2.35Z" fill="#fff"/>
</svg>