<?xml version="1.0" encoding="UTF-8"?>
<svg id="Layer_1" data-name="Layer 1" xmlns="http://www.w3.org/2000/svg" width="46.1mm" height="13.2mm" viewBox="0 0 130.68 37.42">
  <path d="M38.52,16.47c-1.23-.14-2.17-.31-2.17-1.19,0-.78.59-1.15,1.82-1.15.91,0,1.45.31,1.83,1.05.15.29.27.33.54.21l.69-.3c.16-.08.25-.15.29-.24.03-.09.02-.19-.05-.33-.63-1.32-1.61-1.89-3.29-1.89-2.12,0-3.43,1.05-3.43,2.74,0,2.23,1.97,2.44,3.4,2.59,1,.11,1.98.29,1.98,1.17s-.65,1.3-1.99,1.3c-.96,0-1.63-.4-1.95-1.16-.08-.19-.16-.31-.32-.31-.06,0-.13.01-.22.05l-.68.25c-.16.05-.25.11-.29.2-.04.08-.03.19.02.35.55,1.44,1.61,2.09,3.44,2.09,2.2,0,3.57-1.07,3.57-2.8,0-1.99-1.53-2.43-3.18-2.62Z" fill="#fff"/>
  <path d="M59.11,14.98c-1.89,0-2.93.97-2.93,2.73v1.47c0,1.01.38,2.7,2.9,2.7,1.32,0,2.23-.41,2.72-1.21.1-.16.13-.29.1-.41-.03-.11-.12-.2-.26-.27l-.44-.24c-.31-.17-.47-.13-.69.17-.27.42-.75.64-1.44.64-.89,0-1.38-.43-1.38-1.21v-.42h3.73c.41,0,.6-.18.6-.57v-.76c0-1.64-1.09-2.62-2.92-2.62ZM60.5,17.75h-2.8v-.24c0-.8.5-1.23,1.41-1.23s1.4.43,1.4,1.23v.24Z" fill="#fff"/>
  <path d="M53.58,15.09h0c-.43-.07-1.02-.1-1.52-.1h-.01c-1.9,0-2.87.9-2.87,2.67v1.53c0,1.67.91,2.55,2.64,2.55.57,0,1.45-.11,1.82-.21h.02s0,.57,0,.57c0,.86-.45,1.31-1.29,1.31-.61,0-.99-.19-1.27-.63-.14-.18-.24-.25-.38-.25-.08,0-.18.03-.31.09l-.47.26c-.16.08-.24.18-.27.29-.03.11,0,.24.1.39.48.81,1.36,1.22,2.63,1.22,1.83,0,2.79-.96,2.79-2.77v-4.77c0-1.38-.99-2.06-1.61-2.17ZM52.82,20.32c-.14.01-.66.02-.79.02-.87,0-1.33-.41-1.33-1.19v-1.44c0-.88.47-1.31,1.44-1.31h.39s.04,0,.08,0c.59.02,1.05.49,1.05,1.08v1.91c0,.49-.36.89-.84.93Z" fill="#fff"/>
  <path d="M46.46,14.98h-1.3c-1.46,0-2.66,1.18-2.66,2.64v1.47c0,1.46,1.18,2.64,2.63,2.64,0,0,.72.02,1.63-.14,0,.08.06.14.14.14h1.02c.2,0,.37-.16.37-.37v-4.56c0-1.01-.82-1.83-1.83-1.83ZM46.37,20.33h-.88c-.81,0-1.47-.66-1.47-1.47v-1c0-.81.66-1.47,1.47-1.47h.51c.41,0,.74.33.74.74v2.82c0,.21-.17.38-.38.38Z" fill="#fff"/>
  <path d="M69.34,14.98h-.58c-.54,0-1.06.2-1.47.55-.41-.36-.93-.55-1.47-.55h-.58c-1.24,0-2.24,1.01-2.24,2.24v4.16c0,.21.17.39.39.39h.75c.21,0,.39-.17.39-.39v-4.02c0-.47.38-.86.86-.86h.29c.42,0,.78.3.84.71v4.16c0,.21.17.39.39.39h.76c.21,0,.39-.17.39-.39v-4.16c.07-.42.42-.72.84-.72h.29c.47,0,.86.38.86.86v4.02c0,.21.17.39.39.39h.75c.21,0,.39-.17.39-.39v-4.16c0-1.24-1.01-2.24-2.24-2.24Z" fill="#fff"/>
  <path d="M83.33,14.99c-1.95,0-3.47,1.53-3.47,3.47,0,1.29.66,2.43,1.77,3.05.2.11.42.21.64.28.03,0,.05.01.08.01.05,0,.11-.02.15-.05.07-.05.11-.13.11-.22v-1.29h-.02c-.72-.3-1.19-1-1.19-1.78,0-1.05.86-1.91,1.91-1.91s1.91.86,1.91,1.91c0,.79-.5,1.51-1.24,1.79h-.02v1.27c0,.08.04.16.11.21.07.05.15.07.23.04,1.48-.42,2.47-1.78,2.47-3.37,0-1.92-1.52-3.43-3.45-3.43Z" fill="#fff"/>
  <path d="M78.88,19.09h-1.27v.02c-.3.71-.98,1.17-1.75,1.17-1.04,0-1.88-.84-1.88-1.88s.84-1.88,1.88-1.88c.78,0,1.49.49,1.76,1.22v.02h1.25c.08,0,.16-.04.21-.11.05-.07.06-.15.04-.23-.42-1.45-1.75-2.43-3.32-2.43-1.89,0-3.37,1.49-3.37,3.4s1.5,3.42,3.42,3.42c1.27,0,2.39-.65,3-1.75.11-.2.2-.41.27-.63.03-.08.01-.16-.04-.23-.05-.07-.13-.11-.21-.11Z" fill="#fff"/>
  <path d="M93.79,14.98h-.58c-.54,0-1.06.2-1.47.55-.41-.36-.93-.55-1.47-.55h-.58c-1.24,0-2.24,1.01-2.24,2.24v4.16c0,.21.17.39.39.39h.75c.21,0,.39-.17.39-.39v-4.02c0-.47.38-.86.86-.86h.29c.42,0,.78.3.84.71v4.16c0,.21.17.39.39.39h.76c.21,0,.39-.17.39-.39v-4.16c.07-.42.42-.72.84-.72h.29c.47,0,.86.38.86.86v4.02c0,.21.17.39.39.39h.75c.21,0,.39-.17.39-.39v-4.16c0-1.24-1.01-2.24-2.24-2.24Z" fill="#fff"/>
</svg>