<?xml version="1.0" encoding="UTF-8"?>
<svg id="Layer_1" data-name="Layer 1" xmlns="http://www.w3.org/2000/svg" width="46.1mm" height="13.2mm" viewBox="0 0 130.68 37.42">
  <path d="M60.77,17.27c.34.12.61.15.9.15.49,0,.97-.08,1.36-.47.33-.33.43-.74.43-1.16,0-.32-.06-.57-.3-.82-.24-.26-.54-.37-.83-.46l-.36-.11c-.28-.08-.37-.17-.4-.21-.05-.06-.06-.12-.06-.21,0-.1.05-.18.12-.25.12-.11.28-.14.39-.14.16,0,.43.03.79.31l.47-.93c-.43-.23-.96-.37-1.42-.37-.56,0-.95.2-1.18.43-.2.2-.42.54-.42,1.11,0,.23.03.56.26.81.19.21.47.31.66.37l.31.1c.3.09.48.14.59.24.1.08.13.19.13.28,0,.12-.05.22-.12.29-.08.08-.22.16-.46.16-.41,0-.8-.23-1.06-.47h0s-.51.97-.51.97c.33.23.62.34.7.37Z" fill="#fff"/>
  <polygon points="69.73 12.71 68.25 12.71 66.79 14.61 66.79 14.61 66.79 12.71 65.59 12.71 65.59 17.31 66.79 17.31 66.79 15.32 68.35 17.31 69.89 17.31 67.9 14.89 69.73 12.71" fill="#fff"/>
  <polygon points="72.9 15.1 72.9 17.31 74.1 17.31 74.1 15.1 75.82 12.71 74.37 12.71 73.53 13.97 72.67 12.71 71.24 12.71 72.9 15.1 72.9 15.1" fill="#fff"/>
  <polygon points="80.23 16.3 78.79 16.3 78.79 12.71 77.6 12.71 77.6 17.31 80.23 17.31 80.23 16.3" fill="#fff"/>
  <path d="M83.36,16.54h1.67l.28.77h1.28l-1.73-4.6h-1.3l-1.77,4.6h1.26l.31-.77ZM84.19,14.14l.52,1.49h-1.02l.5-1.49Z" fill="#fff"/>
  <polygon points="89.69 14.5 91.89 17.31 93.09 17.31 93.09 12.71 91.89 12.71 91.89 15.52 89.69 12.71 88.5 12.71 88.5 17.31 89.69 17.31 89.69 14.5" fill="#fff"/>
  <polygon points="95.43 12.71 95.43 17.31 98.05 17.31 98.05 16.29 96.62 16.29 96.62 15.5 97.97 15.5 97.97 14.49 96.62 14.49 96.62 13.72 98.05 13.72 98.05 13.72 98.05 12.71 95.43 12.71" fill="#fff"/>
  <path d="M62.34,20.59c-1.2,0-2.11.88-2.11,2.08s.91,2.14,2.11,2.14,2.11-.97,2.11-2.14-.91-2.08-2.11-2.08ZM62.34,24.13c-.75,0-1.34-.66-1.34-1.46s.6-1.4,1.34-1.4,1.35.56,1.35,1.4-.6,1.46-1.35,1.46Z" fill="#fff"/>
  <path d="M68.37,20.66h-1.57v4.08h.74v-1.41h.83c.77,0,1.3-.55,1.3-1.35s-.53-1.33-1.3-1.33ZM68.23,22.69h-.7v-1.39h.71c.42,0,.67.26.67.69s-.25.7-.68.7Z" fill="#fff"/>
  <polygon points="73.5 24.74 73.5 21.3 74.84 21.3 74.84 20.66 71.42 20.66 71.42 21.3 72.75 21.3 72.75 24.74 73.5 24.74" fill="#fff"/>
  <rect x="76.96" y="20.66" width=".74" height="4.08" fill="#fff"/>
  <path d="M82.15,24.81c1.04,0,1.6-.66,1.6-.66l-.39-.53s-.48.52-1.19.52c-.85,0-1.37-.7-1.37-1.46s.51-1.4,1.37-1.4c.65,0,1.11.43,1.11.43l.36-.55s-.51-.56-1.51-.56h0c-1.2,0-2.1.89-2.1,2.09s.86,2.13,2.11,2.13Z" fill="#fff"/>
  <path d="M86.55,21.76c0-.29.27-.49.62-.49.51,0,.9.36.9.36l.32-.6s-.44-.44-1.22-.44-1.37.51-1.37,1.19c0,1.25,1.93,1.13,1.93,1.86,0,.33-.28.49-.59.49-.58,0-1.02-.43-1.02-.43h0s-.4.56-.4.56c0,0,.5.56,1.41.56.85,0,1.35-.55,1.35-1.2,0-1.31-1.92-1.13-1.92-1.85Z" fill="#fff"/>
  <path d="M91.88,20.04c-.66,0-1.2.55-1.2,1.23s.53,1.23,1.2,1.23,1.21-.55,1.21-1.23-.54-1.23-1.21-1.23ZM91.88,22.22c-.51,0-.9-.43-.9-.96s.38-.96.9-.96.91.42.91.96-.4.96-.91.96Z" fill="#fff"/>
  <path d="M92.16,21.36h0c.09-.03.22-.13.22-.32,0-.23-.16-.39-.4-.39h-.51v1.22h.28v-.45h.16l.21.45h.32l-.23-.44c-.03-.06-.04-.07-.04-.07ZM91.91,21.22h0s-.16,0-.16,0v-.37h.16c.11,0,.17.07.17.18s-.07.18-.18.18Z" fill="#fff"/>
  <path d="M41.7,17.71s.08,0,.12,0c.05,0,.1,0,.15,0,.05,0,.1,0,.15,0,.04,0,.08,0,.11,0h0s0-.01,0-.01v-7.3c-.09,0-.18-.01-.27-.01s-.18,0-.27.01v1.95l-.6-1.85c-.18.04-.35.1-.51.16l.6,1.86-1.14-1.57c-.15.09-.3.2-.44.32l1.14,1.58-1.58-1.14c-.12.14-.22.28-.32.44l1.57,1.14-1.86-.6c-.07.16-.12.34-.16.51l1.85.6h-1.95c0,.09-.01.18-.01.27s0,.18.01.27h1.95l-1.85.6c.04.18.1.35.16.51l1.86-.6-1.57,1.14c.09.15.2.3.32.44l1.58-1.14-1.14,1.58c.14.12.28.22.44.32l1.14-1.57-.6,1.86c.16.07.34.12.51.16l.59-1.82v1.93Z" fill="#fff"/>
  <path d="M42.25,9.86v-.94c-.09,0-.18-.01-.27-.01s-.18,0-.27.01v.94c.09,0,.18-.01.27-.01s.18,0,.27.01Z" fill="#fff"/>
  <path d="M42.25,5.77v-1.07h-.54v1.07c.09,0,.18,0,.27,0s.18,0,.27,0Z" fill="#fff"/>
  <path d="M42.25,8.38v-2.07c-.09,0-.18,0-.27,0s-.18,0-.27,0v2.07c.09,0,.18-.01.27-.01s.18,0,.27.01Z" fill="#fff"/>
  <polygon points="40.43 10.14 40.43 10.14 40.43 10.14 40.43 10.14" fill="#fff"/>
  <path d="M40.43,10.14c.17-.07.34-.12.51-.16l-.29-.9c-.17.05-.34.1-.51.17l.29.89Z" fill="#fff"/>
  <path d="M39.97,8.74c.17-.06.34-.12.51-.17l-.64-1.97c-.17.05-.34.1-.51.16l.64,1.97Z" fill="#fff"/>
  <path d="M39.68,6.09l-.33-1.01h0l-.51.17.33,1.01c.17-.06.34-.11.51-.16Z" fill="#fff"/>
  <polygon points="36.7 6.33 36.7 6.33 36.7 6.33 36.7 6.33" fill="#fff"/>
  <path d="M36.89,7.51c.14-.11.28-.22.43-.32l-.63-.86-.43.31.63.86Z" fill="#fff"/>
  <path d="M39.73,10.5h0l-.55-.76c-.15.1-.3.2-.44.32l.55.76c.14-.11.28-.22.44-.31Z" fill="#fff"/>
  <path d="M38.42,9.62c.14-.11.28-.22.44-.32l-1.22-1.67c-.15.1-.29.21-.43.32l1.21,1.67Z" fill="#fff"/>
  <path d="M35.44,8.96l-.86-.63h0s-.32.43-.32.43l.86.63c.1-.15.21-.29.32-.43Z" fill="#fff"/>
  <polygon points="38.74 11.36 38.74 11.36 38.74 11.36 38.74 11.36" fill="#fff"/>
  <path d="M38.74,11.36l-.76-.55c-.11.14-.22.28-.32.44l.76.55c.1-.15.2-.3.31-.44Z" fill="#fff"/>
  <path d="M37.55,10.49l-1.67-1.21c-.11.14-.22.28-.32.43l1.67,1.22c.1-.15.21-.29.32-.44Z" fill="#fff"/>
  <path d="M34.69,11.39c-.06.17-.11.34-.16.51l1.97.64c.05-.17.1-.34.17-.51l-1.97-.64Z" fill="#fff"/>
  <path d="M33.17,10.9l-.17.51,1.01.33c.05-.17.1-.34.16-.51l-1.01-.33h0Z" fill="#fff"/>
  <path d="M37.01,12.71l.9.29c.04-.18.1-.35.16-.51l-.89-.29c-.06.17-.12.34-.17.51Z" fill="#fff"/>
  <polygon points="38.08 12.49 38.08 12.49 38.07 12.49 38.08 12.49" fill="#fff"/>
  <path d="M36.3,14.05c0-.09,0-.18.01-.27h-2.07c0,.09,0,.18,0,.27s0,.18,0,.27h2.07c0-.09-.01-.18-.01-.27Z" fill="#fff"/>
  <path d="M33.69,14.05c0-.09,0-.18,0-.27h-1.07v.54h1.07c0-.09,0-.18,0-.27Z" fill="#fff"/>
  <path d="M36.85,13.78c0,.09-.01.18-.01.27s0,.18.01.27h.94c0-.09-.01-.18-.01-.27s0-.18.01-.27h-.94Z" fill="#fff"/>
  <path d="M38.08,15.59c-.07-.17-.12-.34-.16-.51h0s-.9.29-.9.29c.05.17.1.34.17.51l.89-.29Z" fill="#fff"/>
  <path d="M34.53,16.18c.05.17.1.34.16.51l1.97-.64c-.06-.17-.12-.34-.17-.51l-1.97.64Z" fill="#fff"/>
  <path d="M33.01,16.67h0s.17.51.17.51l1.01-.33c-.06-.17-.11-.34-.16-.51l-1.01.33Z" fill="#fff"/>
  <path d="M34.26,19.32l.31.43.86-.63c-.11-.14-.22-.28-.32-.43l-.86.63Z" fill="#fff"/>
  <polygon points="34.26 19.32 34.26 19.32 34.26 19.32 34.26 19.32" fill="#fff"/>
  <path d="M37.23,17.16l-1.67,1.22c.1.15.21.29.32.43l1.67-1.21c-.11-.14-.22-.28-.32-.44Z" fill="#fff"/>
  <path d="M38.43,16.29l-.76.55c.1.15.2.3.32.44l.76-.55c-.11-.14-.22-.28-.31-.44h0Z" fill="#fff"/>
  <path d="M36.27,21.44h0l.44.32.63-.86c-.15-.1-.29-.21-.43-.32l-.63.86Z" fill="#fff"/>
  <path d="M38.43,18.47l-1.21,1.67c.14.11.28.22.43.32l1.22-1.67c-.15-.1-.29-.21-.44-.32Z" fill="#fff"/>
  <polygon points="39.29 17.28 39.29 17.28 39.3 17.28 39.29 17.28" fill="#fff"/>
  <path d="M39.18,18.35l.55-.76c-.15-.1-.3-.2-.44-.31l-.55.76c.14.11.28.22.44.32Z" fill="#fff"/>
  <path d="M38.83,22.85h0l.51.17.33-1.01c-.17-.05-.34-.1-.51-.16l-.33,1.01Z" fill="#fff"/>
  <path d="M40.13,18.84c.17.06.34.12.51.17l.29-.89c-.18-.04-.35-.1-.51-.16l-.29.89Z" fill="#fff"/>
  <polygon points="40.42 17.95 40.42 17.95 40.43 17.94 40.42 17.95" fill="#fff"/>
  <path d="M39.33,21.32c.17.06.34.11.51.16l.64-1.97c-.17-.05-.34-.1-.51-.17l-.64,1.97Z" fill="#fff"/>
  <path d="M41.97,18.23c-.05,0-.11,0-.16,0-.03,0-.07,0-.1,0h0s0,.01,0,.01v.94s.07,0,.11,0c.06,0,.11,0,.17,0,.05,0,.11,0,.16,0,.03,0,.07,0,.1,0h0s0-.01,0-.01v-.94s-.07,0-.11,0c-.06,0-.11,0-.17,0Z" fill="#fff"/>
  <path d="M43.81,18.58c-.17-.06-.34-.12-.51-.17l-.29.9c.18.04.35.1.51.16l.29-.89Z" fill="#fff"/>
  <polygon points="43.52 19.47 43.51 19.47 43.51 19.47 43.52 19.47" fill="#fff"/>
  <path d="M44.62,16.09c-.17-.06-.34-.11-.51-.16l-.64,1.97c.17.05.34.1.51.17l.64-1.97Z" fill="#fff"/>
  <path d="M45.11,14.57l-.51-.17h0l-.33,1.01c.17.05.34.1.51.16l.33-1.01Z" fill="#fff"/>
  <polygon points="47.24 15.65 47.24 15.66 47.24 15.65 47.24 15.65" fill="#fff"/>
  <path d="M47.05,16.83l.63-.86-.43-.31-.63.86c.15.1.29.21.43.32Z" fill="#fff"/>
  <path d="M44.76,19.06l-.55.76h0c.15.1.3.2.44.31l.55-.76c-.14-.11-.28-.22-.44-.32Z" fill="#fff"/>
  <path d="M45.52,18.95l1.21-1.67c-.14-.11-.28-.22-.43-.32l-1.22,1.67c.15.1.3.21.44.32Z" fill="#fff"/>
  <path d="M49.68,18.1l-.32-.44h0s-.86.63-.86.63c.11.14.22.28.32.43l.86-.63Z" fill="#fff"/>
  <polygon points="45.2 20.69 45.2 20.69 45.2 20.69 45.2 20.69" fill="#fff"/>
  <path d="M46.28,20.58c-.1-.15-.2-.3-.32-.44l-.76.55c.11.14.22.29.31.44l.76-.55Z" fill="#fff"/>
  <path d="M46.71,20.26l1.67-1.22c-.1-.15-.21-.29-.32-.43l-1.67,1.21c.11.14.22.28.32.44Z" fill="#fff"/>
  <path d="M49.25,20.72l-1.97.64c.06.17.12.34.17.51l1.97-.64c-.05-.17-.1-.34-.16-.51Z" fill="#fff"/>
  <path d="M50.94,20.74l-.17-.51h0s-1.01.33-1.01.33c.06.17.11.34.16.51l1.01-.33Z" fill="#fff"/>
  <path d="M46.93,22.04c-.05-.17-.1-.34-.17-.51l-.89.29c.07.17.12.34.16.51l.9-.29Z" fill="#fff"/>
  <polygon points="45.87 21.82 45.87 21.82 45.87 21.82 45.87 21.82" fill="#fff"/>
  <path d="M47.64,23.1c0,.09.01.18.01.27s0,.18-.01.27h2.07c0-.09,0-.18,0-.27s0-.18,0-.27h-2.07Z" fill="#fff"/>
  <path d="M50.25,23.37c0,.09,0,.18,0,.27h1.07v-.54h-1.07c0,.09,0,.18,0,.27Z" fill="#fff"/>
  <path d="M47.11,23.37c0-.09,0-.18-.01-.27h-.94c0,.09.01.18.01.27s0,.18-.01.27h.94c0-.09.01-.18.01-.27Z" fill="#fff"/>
  <path d="M46.93,24.7l-.9-.29h0c-.04.17-.1.34-.16.51l.89.29c.06-.17.12-.34.17-.51Z" fill="#fff"/>
  <path d="M49.25,26.02c.06-.17.11-.34.16-.51l-1.97-.64c-.05.17-.1.34-.17.51l1.97.64Z" fill="#fff"/>
  <path d="M49.76,26.19l1.01.33.17-.51h0s-1.01-.33-1.01-.33c-.05.17-.1.34-.16.51Z" fill="#fff"/>
  <polygon points="49.68 28.65 49.68 28.65 49.68 28.65 49.68 28.65" fill="#fff"/>
  <path d="M48.5,28.46l.86.63.31-.43-.86-.63c-.1.15-.21.29-.32.43Z" fill="#fff"/>
  <path d="M46.39,26.92l1.67,1.21c.11-.14.22-.28.32-.43l-1.67-1.22c-.1.15-.21.3-.32.44Z" fill="#fff"/>
  <path d="M46.28,26.17l-.76-.55h0c-.1.15-.2.3-.31.44l.76.55c.11-.14.22-.28.32-.44Z" fill="#fff"/>
  <path d="M47.05,29.91c-.14.11-.28.22-.43.32l.63.86.44-.32h0l-.63-.86Z" fill="#fff"/>
  <path d="M45.52,27.8c-.14.11-.28.22-.44.32l1.22,1.67c.15-.1.29-.21.43-.32l-1.21-1.67Z" fill="#fff"/>
  <path d="M44.77,27.68c.15-.1.3-.2.44-.32l-.55-.76c-.14.11-.29.22-.44.31l.55.76Z" fill="#fff"/>
  <polygon points="44.65 26.61 44.65 26.61 44.65 26.61 44.65 26.61" fill="#fff"/>
  <path d="M44.27,31.33l.33,1.01.51-.17h0l-.33-1.01c-.17.06-.34.11-.51.16Z" fill="#fff"/>
  <polygon points="43.52 27.27 43.52 27.28 43.52 27.28 43.52 27.27" fill="#fff"/>
  <path d="M43.52,27.28c-.17.07-.34.12-.51.16l.29.89c.17-.05.34-.1.51-.17l-.29-.89Z" fill="#fff"/>
  <path d="M43.97,28.68c-.17.06-.34.12-.51.17l.64,1.97c.17-.05.34-.1.51-.16l-.64-1.97Z" fill="#fff"/>
  <path d="M41.7,31.65v1.07h.54v-1.07c-.09,0-.18,0-.27,0s-.18,0-.27,0Z" fill="#fff"/>
  <path d="M41.7,27.56v.94c.09,0,.18.01.27.01s.18,0,.27-.01v-.94c-.09,0-.18.01-.27.01s-.18,0-.27-.01Z" fill="#fff"/>
  <path d="M41.7,29.04v2.07c.09,0,.18,0,.27,0s.18,0,.27,0v-2.07c-.09,0-.18.01-.27.01s-.18,0-.27-.01Z" fill="#fff"/>
  <path d="M42.75,24.9l1.14,1.57c.15-.09.3-.2.44-.32l-1.15-1.58,1.58,1.14c.12-.14.22-.28.32-.44l-1.57-1.14,1.86.6c.07-.16.12-.34.16-.51l-1.85-.6h1.95c0-.09.01-.18.01-.27h0c0-.08,0-.17-.01-.26h-1.95l1.85-.6c-.04-.18-.1-.35-.16-.51l-1.86.6,1.57-1.14c-.09-.15-.2-.3-.32-.44l-1.58,1.14,1.14-1.58c-.14-.12-.28-.22-.44-.32l-1.14,1.57.6-1.86c-.16-.07-.34-.12-.51-.16l-.59,1.82v-1.93s-.08,0-.12,0c-.05,0-.1,0-.15,0-.05,0-.1,0-.15,0-.04,0-.08,0-.11,0h0s0,.01,0,.01v7.3c.09,0,.18.01.27.01s.18,0,.27-.01v-1.95l.6,1.85c.18-.04.35-.1.51-.16l-.6-1.86Z" fill="#fff"/>
  <path d="M72.44,28.14v-.66c0-.1-.02-.18-.06-.25s-.1-.11-.18-.15c-.08-.03-.16-.05-.26-.05-.08,0-.15,0-.21.03-.07.02-.12.05-.17.09s-.08.08-.11.13c-.03.05-.04.1-.04.15h.15c0-.05.02-.1.05-.14s.08-.07.13-.1c.05-.03.12-.04.19-.04.08,0,.14.01.19.04.05.03.09.06.12.11.03.05.04.1.04.17v.15h-.28c-.1,0-.18,0-.26.03s-.14.05-.2.09-.09.08-.12.14-.04.11-.04.18c0,.08.02.14.05.2.03.06.09.11.15.14.07.03.14.05.23.05.08,0,.15-.01.21-.04s.12-.05.16-.09c.04-.03.07-.06.09-.1,0,.03,0,.06,0,.09,0,.05.01.08.02.11h.16v-.02s-.02-.07-.03-.12c0-.05-.01-.1-.01-.15ZM72.22,28.15c-.04.05-.09.09-.16.12-.06.03-.14.05-.22.05-.06,0-.12-.01-.16-.03-.05-.02-.08-.05-.11-.09-.03-.04-.04-.09-.04-.13s0-.09.03-.13.05-.07.1-.09c.04-.03.09-.05.15-.06.06-.01.13-.02.21-.02h.26v.29s-.04.07-.06.1Z" fill="#fff"/>
  <path d="M73.75,27.15s-.09-.07-.14-.09c-.05-.02-.11-.03-.18-.03-.08,0-.15.01-.21.04s-.12.07-.17.13c-.02.03-.04.05-.06.08v-.23h-.15v1.37h.15v-.94c.02-.06.05-.11.08-.16.04-.05.08-.09.14-.12s.12-.05.19-.05c.07,0,.12.01.17.03s.09.06.11.11c.03.05.04.13.04.22v.89h.15v-.89c0-.09,0-.17-.03-.23-.02-.06-.05-.12-.09-.15Z" fill="#fff"/>
  <path d="M75.41,26.59l-.69,1.84h.33l.15-.43h.71l.15.43h.33l-.7-1.84h-.29ZM75.29,27.74l.27-.76.27.76h-.53Z" fill="#fff"/>
  <path d="M77.99,27.04c-.18,0-.32.07-.42.21-.07-.14-.19-.21-.37-.21-.17,0-.3.06-.39.17v-.14h-.3v1.37h.31v-.99c.05-.1.14-.15.26-.15.16,0,.24.08.25.24v.9h.31v-.94c.02-.06.05-.11.09-.15.04-.04.1-.06.17-.06.09,0,.15.02.19.06.04.04.06.1.06.19v.89h.31v-.9c0-.16-.04-.28-.11-.37-.07-.08-.19-.12-.34-.12Z" fill="#fff"/>
  <path d="M79.42,27.04c-.15,0-.28.06-.37.16v-.14h-.3v1.89h.31v-.65c.09.1.21.15.36.15.16,0,.29-.06.39-.19.09-.13.14-.29.14-.51h0v-.02c0-.22-.05-.39-.14-.52-.09-.12-.22-.19-.39-.19ZM79.56,28.09c-.05.08-.13.12-.23.12-.13,0-.22-.05-.27-.16v-.61c.05-.1.14-.15.27-.15.1,0,.18.04.23.12.05.08.08.19.08.32h0c0,.16-.03.28-.08.36Z" fill="#fff"/>
  <path d="M80.89,27.04c-.15,0-.28.06-.38.17h0v-.72h-.31v1.94h.31v-.97c.06-.11.15-.16.28-.16.08,0,.14.02.18.06.04.04.06.1.06.2v.88h.31v-.89c0-.33-.15-.5-.44-.5Z" fill="#fff"/>
  <polygon points="82.24 28.45 82.24 28.45 82.24 28.45 82.24 28.45" fill="#fff"/>
  <path d="M82.21,27.04c-.12,0-.22.03-.32.09-.09.06-.17.14-.22.25s-.08.23-.08.37v.04c0,.2.06.37.18.49.12.12.28.18.47.18.11,0,.22-.02.31-.07.09-.04.16-.11.22-.19l-.16-.16c-.09.11-.2.17-.34.17-.1,0-.18-.03-.25-.1s-.1-.15-.11-.27h.89v-.12c0-.22-.05-.39-.15-.5-.1-.12-.24-.18-.43-.18ZM82.49,27.62h-.59c.01-.1.05-.19.1-.25s.12-.09.2-.09h0c.09,0,.15.03.2.08.05.05.08.13.08.23v.02Z" fill="#fff"/>
  <path d="M83.72,27.04c-.16,0-.3.06-.4.18v-.16s0,0,0,0h-.29v1.37h.31v-.97c.06-.11.15-.17.28-.17.09,0,.15.02.18.06.04.04.06.1.06.19v.88h.31v-.9c0-.33-.15-.49-.43-.49Z" fill="#fff"/>
  <path d="M85.04,27.04c-.13,0-.24.03-.33.09-.09.06-.17.14-.22.25s-.08.23-.08.36h0c0,.23.06.4.17.53s.27.19.46.19c.13,0,.24-.03.33-.09.1-.06.17-.14.22-.25.05-.1.08-.23.08-.36v-.07c0-.2-.07-.35-.19-.47-.12-.12-.27-.18-.45-.18ZM85.29,28.09c-.06.08-.14.12-.24.12s-.18-.04-.24-.12-.09-.19-.09-.33h0c0-.16.03-.28.09-.36.06-.08.14-.12.24-.12s.18.04.24.12.09.19.09.33c0,.15-.03.27-.09.35Z" fill="#fff"/>
  <rect x="85.96" y="26.49" width=".31" height="1.94" fill="#fff"/>
  <path d="M88.1,28.18s-.08.08-.14.11-.11.04-.18.04h0c-.08,0-.15-.02-.2-.05-.05-.03-.1-.07-.13-.12-.03-.05-.06-.11-.07-.18-.02-.07-.02-.14-.02-.21v-.05c0-.07,0-.14.02-.21.02-.07.04-.12.07-.18.03-.05.08-.09.13-.12s.12-.04.2-.04c.07,0,.13.01.19.04.06.03.1.07.14.12.03.05.05.12.06.19h.15c0-.1-.03-.18-.08-.26-.05-.07-.11-.13-.19-.17-.08-.04-.17-.06-.26-.06s-.18.02-.25.05c-.07.03-.13.08-.18.15-.05.06-.09.14-.11.22-.03.08-.04.17-.04.27v.05c0,.09.01.18.04.27s.06.15.11.22c.05.06.11.11.18.15.07.03.16.05.25.05s.18-.02.26-.06c.08-.04.14-.09.19-.16.05-.07.08-.14.08-.23h-.15c0,.07-.03.13-.06.17Z" fill="#fff"/>
  <path d="M89.58,27.23c-.05-.06-.12-.11-.19-.14s-.16-.05-.25-.05-.17.02-.25.05c-.08.03-.14.08-.19.14s-.09.14-.12.22c-.03.08-.04.18-.04.28v.04c0,.1.01.19.04.28.03.09.07.16.12.22.05.06.12.11.19.14.08.03.16.05.25.05s.18-.02.25-.05c.07-.03.14-.08.19-.14.05-.06.09-.13.12-.22.03-.09.04-.18.04-.28v-.04c0-.1-.02-.19-.04-.28-.03-.09-.07-.16-.12-.22ZM89.6,27.77c0,.08,0,.15-.03.21s-.05.13-.09.18c-.04.05-.09.09-.14.12-.06.03-.12.04-.2.04s-.14-.02-.2-.04c-.06-.03-.1-.07-.15-.12s-.07-.11-.09-.18c-.02-.07-.03-.14-.03-.21v-.04h0c0-.07,0-.15.03-.21.02-.07.05-.13.09-.18.04-.05.09-.09.14-.12.06-.03.12-.04.2-.04s.14.01.2.04.1.07.15.12c.04.05.07.11.09.18.02.07.03.14.03.21v.04Z" fill="#fff"/>
  <path d="M91.85,27.16s-.09-.07-.14-.09-.12-.03-.19-.03c-.08,0-.15.01-.22.04s-.12.06-.17.11c-.03.03-.06.07-.08.11,0,0,0,0,0,0-.02-.06-.05-.11-.09-.15-.04-.04-.09-.07-.14-.09-.05-.02-.11-.03-.18-.03-.08,0-.15.01-.22.04-.07.03-.12.07-.17.13-.02.02-.04.05-.05.07v-.22h-.15v1.37h.15v-.94c.02-.05.04-.1.07-.15.03-.05.08-.09.13-.12.05-.03.12-.05.2-.05.07,0,.12,0,.17.03.05.02.09.06.12.11.03.05.04.12.04.21v.9h.15v-.89s.01-.08.03-.13c.02-.04.04-.08.08-.12.03-.04.08-.07.12-.09.05-.02.11-.04.17-.04s.13,0,.17.03c.05.02.09.06.12.11.03.05.04.13.04.22v.89h.15v-.89c0-.09-.01-.16-.03-.23-.02-.06-.05-.11-.09-.15Z" fill="#fff"/>
  <path d="M93.31,27.22c-.04-.06-.1-.11-.16-.14-.07-.03-.14-.05-.22-.05s-.15.01-.21.04c-.06.03-.12.06-.16.11-.02.02-.04.05-.05.07v-.2h-.15v1.89h.15v-.7s.03.04.05.06c.05.05.1.08.16.11s.14.04.22.04.16-.02.22-.05.12-.08.16-.14c.04-.06.08-.14.1-.22.02-.08.03-.18.03-.28v-.03h0c0-.11-.01-.21-.03-.29-.02-.09-.06-.16-.1-.22ZM93.27,27.98c-.02.07-.04.13-.07.18-.03.05-.08.09-.13.12s-.11.04-.18.04c-.09,0-.16-.02-.22-.05s-.1-.08-.14-.13c-.01-.02-.03-.04-.04-.07v-.64s0,0,0,0c.02-.05.05-.09.08-.13s.08-.07.13-.09.11-.04.18-.04.13.01.18.04c.05.03.09.07.13.12.03.05.06.11.07.18.02.07.03.14.03.22v.03h0c0,.08,0,.15-.03.22Z" fill="#fff"/>
  <path d="M94.77,28.14v-.66c0-.1-.02-.18-.06-.25s-.1-.11-.18-.15c-.08-.03-.16-.05-.26-.05-.08,0-.15,0-.21.03-.07.02-.12.05-.17.09s-.08.08-.11.13c-.03.05-.04.1-.04.15h.15c0-.05.02-.1.05-.14s.08-.07.13-.1c.05-.03.12-.04.19-.04.08,0,.14.01.19.04.05.03.09.06.12.11.03.05.04.1.04.17v.15h-.28c-.1,0-.18,0-.26.03-.08.02-.14.05-.2.09s-.09.08-.12.14c-.03.05-.04.11-.04.18,0,.08.02.14.05.2s.09.11.15.14c.07.03.14.05.23.05.08,0,.15-.01.21-.04s.12-.05.16-.09c.04-.03.06-.06.09-.09,0,.03,0,.06,0,.09,0,.05.01.08.02.11h.16v-.02s-.02-.07-.03-.12c0-.05-.01-.1-.01-.15ZM94.55,28.15c-.04.05-.09.09-.16.12-.06.03-.14.05-.22.05-.06,0-.12-.01-.16-.03-.05-.02-.08-.05-.11-.09s-.04-.09-.04-.13,0-.09.03-.13c.02-.04.05-.07.1-.09.04-.03.09-.05.15-.06.06-.01.13-.02.21-.02h.26v.3s-.03.07-.06.1Z" fill="#fff"/>
  <path d="M96.08,27.15s-.09-.07-.14-.09c-.05-.02-.11-.03-.18-.03-.08,0-.15.01-.21.04s-.12.07-.17.13c-.02.03-.04.05-.06.08v-.23h-.15v1.37h.15v-.94c.02-.06.05-.11.08-.16.04-.05.08-.09.14-.12s.12-.05.19-.05c.07,0,.12.01.17.03.05.02.09.06.11.11.03.05.04.13.04.22v.89h.15v-.89c0-.09,0-.17-.03-.23s-.05-.12-.09-.15Z" fill="#fff"/>
  <path d="M97.02,28.21l-.43-1.15h0s-.16,0-.16,0l.52,1.35-.07.18c-.02.05-.04.1-.07.14-.03.04-.06.07-.09.08-.04.02-.08.03-.14.03,0,0-.02,0-.04,0-.02,0-.04,0-.04,0v.13s.03,0,.05.01c.03,0,.05,0,.06,0,.06,0,.12-.01.16-.03.04-.02.08-.05.11-.09.03-.03.05-.07.07-.11.02-.04.03-.07.04-.1l.58-1.58h-.16l-.4,1.15Z" fill="#fff"/>
</svg>