<?xml version="1.0" encoding="UTF-8"?>
<svg id="Layer_1" data-name="Layer 1" xmlns="http://www.w3.org/2000/svg" width="46.1mm" height="13.2mm" viewBox="0 0 130.68 37.42">
  <path d="M72.97,21.55h0c.16,0,.3-.09.38-.23l7.42-13.95c.14-.26-.05-.58-.35-.58h-7.21c-.21,0-.4.11-.49.3l-3.85,7.23,3.72,7c.07.14.22.23.38.23Z" fill="#fff"/>
  <path d="M56.38,20.69l3.87-7.28-3.36-6.32c-.1-.18-.29-.3-.49-.3h-6.75c-.3,0-.49.32-.35.58l7.08,13.32Z" fill="#fff"/>
  <path d="M65.15,7.32c-.07-.14-.22-.23-.38-.23s-.3.09-.38.23l-7.56,14.22h7.86c.21,0,.4-.11.49-.3l3.68-6.93-3.72-7Z" fill="#fff"/>
  <path d="M74.59,24.66c-.28,0-.51.22-.51.49s.23.49.51.49.51-.22.51-.49-.23-.49-.51-.49Z" fill="#fff"/>
  <path d="M67.9,26.15c-.53,0-.9.11-1.26.26-.04.02-.05.06-.04.09l.17.5s.06.06.1.05c.28-.12.52-.2.88-.2.55,0,.85.3.85.78,0,0-.5-.03-.92-.04-.82,0-1.42.33-1.42,1.08h0c0,.71.6,1.07,1.25,1.07.53,0,.93-.19,1.12-.49v.35s.03.08.08.08h.64s.08-.03.08-.08v-1.98c0-.93-.5-1.47-1.53-1.47ZM68.6,28.42c0,.43-.34.72-.87.72-.37,0-.69-.16-.69-.49h0c0-.37.31-.47.81-.47h.75v.23Z" fill="#fff"/>
  <path d="M72.13,26.13c-.54,0-.89.25-1.09.51v-.36s-.03-.08-.08-.08h-.64s-.08.03-.08.08v3.32s.03.08.08.08h.64s.08-.03.08-.08v-1.88c0-.54.32-.86.78-.86s.74.31.74.85v1.9s.03.08.08.08h.64s.08-.03.08-.08v-2.13c0-.81-.45-1.33-1.24-1.33Z" fill="#fff"/>
  <rect x="74.25" y="26.21" width=".8" height="3.47" rx=".08" ry=".08" fill="#fff"/>
  <path d="M77.78,27.9l1.15-1.58s0-.11-.06-.11h-.6c-.07,0-.14.04-.18.09l-.74,1.05-.74-1.05c-.04-.06-.11-.09-.18-.09h-.62c-.06,0-.09.06-.06.11l1.15,1.6-1.2,1.65s0,.11.06.11h.6c.07,0,.14-.04.18-.09l.78-1.12.79,1.12c.04.06.11.09.18.09h.62c.06,0,.09-.06.06-.11l-1.2-1.67Z" fill="#fff"/>
  <path d="M81.5,26.21h-.86v-.88s-.03-.08-.08-.08h-.64s-.08.03-.08.08v.88h-.36s-.08.03-.08.08v.53s.03.08.08.08h.36v1.83c0,.76.41,1.02,1,1.02.24,0,.43-.04.6-.12.07-.03.11-.1.11-.17v-.48s-.03-.04-.05-.03c-.14.06-.28.09-.44.09-.27,0-.43-.12-.43-.43v-1.7h.86s.08-.03.08-.08v-.53s-.03-.08-.08-.08Z" fill="#fff"/>
  <path d="M87.98,26.14c-.58,0-1,.33-1.16.65v-.5s-.03-.08-.08-.08h-.64s-.08.03-.08.08v3.32s.03.08.08.08h.64s.08-.03.08-.08v-1.25c0-.88.41-1.34,1.14-1.37.05,0,.09-.04.09-.09v-.68s-.03-.07-.07-.07Z" fill="#fff"/>
  <rect x="64.1" y="25.15" width=".32" height="5.47" rx=".02" ry=".02" fill="#fff"/>
  <path d="M49.77,26.11c-.97,0-1.69.78-1.69,1.81s.75,1.8,1.78,1.8c.55,0,1.01-.2,1.36-.59.02-.02.02-.04.02-.07,0-.03-.01-.05-.03-.07l-.34-.3s-.09-.03-.13,0c-.27.25-.53.36-.87.36-.5,0-.95-.39-.98-.85h2.43s.09-.04.09-.09c0-.04,0-.09,0-.14,0-.51-.15-.98-.41-1.31-.29-.37-.72-.56-1.24-.56ZM48.88,27.62c0-.48.38-.84.88-.84.53,0,.86.43.86.84h-1.75Z" fill="#fff"/>
  <path d="M53.52,27.62l-.07-.02c-.38-.12-.7-.22-.7-.45h0c0-.22.19-.35.47-.35.26,0,.57.1.89.28.02.01.05.02.07,0,.02,0,.04-.02.06-.04l.23-.42s.01-.1-.03-.13c-.36-.22-.8-.35-1.2-.35-.73,0-1.24.44-1.24,1.06h0c0,.67.56.89,1.08,1.03l.08.02c.37.11.68.21.68.45h0c0,.24-.2.37-.52.37s-.71-.13-1.05-.37c-.02-.02-.05-.02-.07-.02-.03,0-.05.02-.06.04l-.26.4s-.02.1.02.13c.41.3.92.47,1.4.47.8,0,1.29-.42,1.29-1.09h0c0-.61-.52-.85-1.08-1.03Z" fill="#fff"/>
  <path d="M57.87,28.67s-.1-.04-.13,0c-.26.25-.53.37-.83.37-.58,0-1.02-.47-1.02-1.1s.43-1.09.98-1.09c.32,0,.57.11.83.37.02.02.04.03.07.03,0,0,0,0,0,0,.03,0,.05-.01.07-.03l.38-.41s.03-.09,0-.13c-.36-.37-.78-.54-1.33-.54-1.01,0-1.8.8-1.8,1.82s.79,1.8,1.79,1.8c.56,0,.97-.18,1.36-.59.03-.04.03-.1,0-.13l-.36-.35Z" fill="#fff"/>
  <path d="M60.41,26.11c-1.04,0-1.85.8-1.85,1.82s.81,1.8,1.84,1.8,1.86-.8,1.86-1.81c0-.49-.19-.94-.52-1.28-.34-.34-.81-.53-1.32-.53ZM60.41,29.02c-.59,0-1.04-.47-1.04-1.1s.43-1.09,1.03-1.09,1.05.47,1.05,1.1-.43,1.09-1.03,1.09Z" fill="#fff"/>
  <path d="M47.69,26.2h-.61s-.08.03-.09.07l-.68,2.28-1.03-2.2s-.04-.05-.08-.05-.06.02-.08.05l-1.02,2.2-.66-2.28s-.05-.07-.09-.07h-.63s-.06.01-.08.04-.02.06-.01.08l1.06,3.3s.05.07.09.07h.59s.07-.02.09-.06l.74-1.73.74,1.73s.05.06.09.06h.59s.08-.03.09-.07l1.07-3.3s0-.06-.01-.09c-.02-.02-.05-.04-.08-.04Z" fill="#fff"/>
  <path d="M83.66,26.12c-.97,0-1.69.78-1.69,1.81s.75,1.8,1.78,1.8c.55,0,1.01-.2,1.36-.59.02-.02.02-.04.02-.07,0-.03-.01-.05-.03-.07l-.34-.3s-.09-.03-.13,0c-.27.25-.53.36-.87.36-.5,0-.95-.39-.98-.85h2.43s.09-.04.09-.09c0-.04,0-.09,0-.14,0-.51-.15-.98-.41-1.31-.29-.37-.72-.56-1.24-.56ZM82.77,27.62c0-.48.38-.84.88-.84.53,0,.86.43.86.84h-1.75Z" fill="#fff"/>
</svg>