<?xml version="1.0" encoding="UTF-8"?>
<svg id="Layer_1" data-name="Layer 1" xmlns="http://www.w3.org/2000/svg" width="46.1mm" height="13.2mm" viewBox="0 0 130.68 37.42">
  <path d="M59.18,22.36c.28,1.66.78,2.55,2.43,2.75,1.53-.18,2.33-.85,2.49-2.57-.08-2.07-.85-3.39-4.04-2.64l.19-3.54c1.36.07,2.92-.4,3.01-1.77.09-1.59-.46-2.04-1.97-2.17-1.41.21-1.8,1.03-2.04,2.48l-4.67-.9c.75-3.15,2.74-4.72,7.22-4.86,4.11.06,5.95,1.7,6.38,4.28.14,2.18-.63,3.2-2.54,4.3,2.75.69,3.58,2.4,3.4,5.31-.39,2.9-2.81,5.28-7.15,5.21-4.71,0-6.4-1.59-7.61-5.25l4.92-.64h0ZM75.02,10.86h-3.95v1.65h3.95v1.46h1.39v-4.57h-1.39v1.46h0ZM74.12,16.61c-.04.4-.26.61-.67.65v-1.32c.45.02.67.24.67.68h0ZM75.08,16.56c-.08-1.3-.77-1.98-2.09-2.05-1.28.05-1.94.74-1.97,2.05.02,1.12.43,1.78,1.22,2v-1.35c-.21-.13-.32-.31-.32-.54.04-.45.29-.69.76-.73v2.76c1.53-.04,2.33-.75,2.41-2.13h0ZM75.08,21.32c-.06-1.33-.75-2.03-2.09-2.08-1.28.04-1.94.73-1.97,2.08.02,1.22.54,1.89,1.57,2v-1.46c-.39-.04-.58-.22-.58-.54.02-.43.35-.65.99-.65.7.02,1.05.23,1.05.65,0,.16-.05.29-.15.38-.1.09-.23.14-.41.14v1.46c1.03-.13,1.56-.78,1.6-1.97h0ZM71.07,25.53h1.97c.56-.02.83.16.81.54,0,.34-.24.51-.73.51h-2.06v1.43h2.32c1.12,0,1.68-.47,1.68-1.4,0-.45-.2-.81-.61-1.08h1.95v-1.46h-5.34v1.46h0Z" fill="#fff" fill-rule="evenodd"/>
</svg>