<?xml version="1.0" encoding="UTF-8"?>
<svg id="Layer_1" data-name="Layer 1" xmlns="http://www.w3.org/2000/svg" width="46.1mm" height="13.2mm" viewBox="0 0 130.68 37.42">
  <g id="f9b8dc1f-e59e-42f2-9fb3-bdefc9a03e27_1" data-name="f9b8dc1f-e59e-42f2-9fb3-bdefc9a03e27@1">
    <rect x="50.34" y="21.43" width="29.93" height=".64" fill="#fff"/>
    <path d="M75.66,8.08v4.73c-.19-1.53-.66-2.7-1.42-3.5-1.01-1.06-2.46-1.59-4.16-1.59s-3.12.53-4.13,1.59c-1.01,1.06-1.52,2.77-1.52,5.14,0,1.12.08,2.04.24,2.75l-4.06-9.17h-3.53l-5.7,12.88h6.7l1.61-3.62h-2.86l2.02-4.57,3.63,8.19h3.84l-.8-1.8c.12.17.26.33.41.48,1.03,1.08,2.47,1.62,4.16,1.62s3.15-.54,4.18-1.62c.57-.59.97-1.3,1.19-2.13.09-.33.16-.71.21-1.15v4.68h3.43v-12.91h-3.43ZM71.4,17.06c-.31.32-.81.47-1.32.47s-.99-.16-1.3-.47c-.41-.41-.61-1.28-.61-2.61s.2-2.18.61-2.59c.31-.31.8-.47,1.3-.47s1.01.16,1.32.47c.41.41.61,1.27.61,2.59s-.2,2.2-.61,2.61Z" fill="#fff"/>
    <g>
      <path d="M79.44,27.59c0-.25.17-.44.45-.44s.45.19.45.44-.17.44-.45.44-.45-.19-.45-.44ZM80.21,27.59c0-.2-.1-.33-.32-.33s-.32.13-.32.33.11.34.32.34.32-.13.32-.34ZM79.71,27.82v-.47h.21c.1,0,.17.05.17.14h0c0,.09-.04.14-.12.15l.12.17h-.12l-.12-.17h-.05v.17h-.1ZM79.81,27.56h.11s.06-.02.06-.05h0s-.02-.06-.06-.06h-.11v.11Z" fill="#fff"/>
      <g>
        <path d="M54.68,26c.26-.3.42-.7.42-1.13,0-.97-.79-1.75-1.75-1.75s-1.75.78-1.75,1.75.79,1.75,1.75,1.75h1.77v-.61h-.44ZM54.46,25.19c-.03.1-.07.19-.12.28-.05.09-.12.16-.19.24-.05.04-.09.08-.14.11-.04.02-.07.05-.12.07-.11.07-.23.11-.37.13,0,0-.01,0-.02,0-.05,0-.11.01-.16.01-.12,0-.24-.02-.35-.05-.11-.03-.21-.08-.3-.15-.06-.04-.12-.09-.17-.14-.02-.02-.05-.05-.07-.08-.05-.05-.09-.12-.13-.18-.03-.07-.07-.13-.09-.21-.03-.11-.05-.22-.05-.34,0-.64.52-1.15,1.15-1.15s1.15.51,1.15,1.15c0,.11-.02.22-.04.32Z" fill="#fff"/>
        <path d="M79,23.12v3.5h-.61v-2.27c-.22.17-.44.34-.66.51-.17.13-.34.25-.51.39-.17-.13-.34-.26-.51-.39-.22-.16-.43-.33-.65-.49v2.26h-.61v-3.5c.2.16.4.31.61.46.38.3.77.59,1.15.88.39-.3.78-.6,1.16-.89.2-.15.4-.3.6-.46h.01Z" fill="#fff"/>
        <polygon points="61.03 24.46 60.22 26.04 61.41 26.04 60.94 26.62 59.23 26.62 61.03 23.12 61.38 23.79 62.84 26.62 62.14 26.62 61.03 24.46" fill="#fff"/>
        <path d="M59.18,23.12v1.74c0,.53-.23,1-.6,1.33-.29.25-.66.41-1.07.43h-.18c-.41-.02-.78-.18-1.07-.43-.37-.32-.61-.8-.61-1.33v-1.74h.61v1.61s0,.08,0,.12,0,.08,0,.12c.06.58.56,1.04,1.16,1.04.64,0,1.16-.52,1.16-1.16v-1.73h.6Z" fill="#fff"/>
        <path d="M74.82,23.12v1.74c0,.53-.23,1-.6,1.33-.29.25-.66.41-1.07.43h-.18c-.41-.02-.78-.18-1.07-.43-.37-.32-.61-.8-.61-1.33v-1.74h.61v1.61s0,.08,0,.12,0,.08,0,.12c.06.58.56,1.04,1.16,1.04.64,0,1.16-.52,1.16-1.16v-1.73h.6Z" fill="#fff"/>
        <polygon points="70.75 23.12 70.75 23.72 69.29 23.72 69.29 26.62 68.68 26.62 68.68 23.72 67.23 23.72 67.23 23.12 70.75 23.12" fill="#fff"/>
        <polygon points="66.7 23.12 66.7 26.61 66.09 26.14 63.77 24.37 63.77 26.62 63.16 26.62 63.16 23.13 63.77 23.59 66.09 25.37 66.09 23.12 66.7 23.12" fill="#fff"/>
        <path d="M62.87,27.27h-1.46v2.42h1.46c.78,0,1.41-.54,1.41-1.21s-.63-1.21-1.41-1.21ZM62.88,29.29h-.97v-1.59h.97c.5,0,.9.36.9.8s-.4.8-.9.8Z" fill="#fff"/>
        <path d="M70.9,27.27h-1.46v2.42h1.46c.78,0,1.41-.54,1.41-1.21s-.63-1.21-1.41-1.21ZM70.91,29.29h-.97v-1.59h.97c.5,0,.9.36.9.8s-.4.8-.9.8Z" fill="#fff"/>
        <polygon points="60.97 27.27 60.97 29.68 60.46 29.36 58.58 28.14 58.58 29.7 58.08 29.7 58.08 27.29 58.58 27.62 60.46 28.84 60.46 27.27 60.97 27.27" fill="#fff"/>
        <polygon points="68.06 27.27 67.22 29.7 67.21 29.7 66.84 29.27 66.25 28.58 65.67 29.26 65.29 29.7 64.46 27.27 64.99 27.27 65.49 28.75 66.26 27.87 67.02 28.75 67.53 27.27 68.06 27.27" fill="#fff"/>
        <rect x="68.5" y="27.27" width=".5" height="2.42" fill="#fff"/>
        <polygon points="78.95 27.27 78.95 29.7 78.45 29.7 78.45 28.59 76.56 28.59 76.56 29.7 76.07 29.7 76.07 27.27 76.56 27.27 76.56 28.16 78.45 28.16 78.45 27.27 78.95 27.27" fill="#fff"/>
        <polygon points="75.63 27.27 75.63 27.69 74.44 27.69 74.44 29.7 73.94 29.7 73.94 27.69 72.75 27.69 72.75 27.27 75.63 27.27" fill="#fff"/>
        <polygon points="56.34 28.2 55.69 29.27 56.7 29.27 56.3 29.7 54.88 29.7 56.06 27.73 56.34 27.27 56.34 27.27 56.62 27.74 57.8 29.7 57.25 29.7 56.34 28.2" fill="#fff"/>
        <path d="M54.3,28.28s.05-.08.07-.12c.03-.07.05-.15.05-.23s-.02-.16-.05-.23c-.11-.25-.38-.42-.7-.42h-1.86v2.42h2.01c.49,0,.9-.35.9-.77,0-.27-.16-.51-.41-.65ZM52.33,27.69h1.32c.15,0,.27.1.27.23s-.12.23-.27.23h-1.32v-.46ZM53.79,29.28h-1.47v-.71h1.47c.23,0,.41.16.41.35s-.18.35-.41.35Z" fill="#fff"/>
      </g>
    </g>
  </g>
</svg>