<?xml version="1.0" encoding="UTF-8"?>
<svg id="Layer_1" data-name="Layer 1" xmlns="http://www.w3.org/2000/svg" width="46.1mm" height="13.2mm" viewBox="0 0 130.68 37.42">
  <path id="Fill-1" d="M97.09,15.35h-.11v-.28s.07-.01.12-.01c.14,0,.2.06.2.15,0,.1-.1.14-.22.14ZM97.36,15.42h0c.12-.05.2-.13.2-.25,0-.09-.04-.17-.09-.21-.07-.05-.15-.08-.33-.08-.16,0-.28.02-.37.04v.98h.22v-.39h.11c.12,0,.18.05.2.16.03.11.05.2.08.24h.24s-.04-.09-.07-.24c-.03-.13-.08-.21-.18-.24ZM97.14,16.18c-.43,0-.75-.35-.75-.79s.32-.79.74-.79h0c.43,0,.74.36.74.79s-.31.79-.73.79ZM97.14,14.4h0c-.55,0-.99.44-.99.99s.44.99.99.99.98-.43.98-.99-.43-.99-.98-.99ZM63.08,14.56l-1.41,3.93c-.35,1.03-.63,1.92-.83,2.74h-.03c-.2-.84-.47-1.74-.8-2.74l-1.35-3.93h-1.3l-.55,8.13h.97l.21-3.49c.07-1.22.13-2.58.15-3.6h.02c.22.97.54,2.02.92,3.16l1.28,3.87h.77l1.4-3.94c.4-1.11.73-2.14,1-3.09h.04c-.01,1.01.06,2.38.12,3.51l.2,3.57h1l-.49-8.13h-1.3ZM54.15,14.56l-1.41,3.93c-.35,1.03-.63,1.92-.83,2.74h-.04c-.2-.84-.47-1.74-.8-2.74l-1.35-3.93h-1.3l-.55,8.13h.97l.21-3.49c.07-1.22.13-2.58.15-3.6h.02c.22.97.54,2.02.92,3.16l1.28,3.87h.77l1.4-3.94c.4-1.11.73-2.14,1-3.09h.03c-.01,1.01.06,2.38.12,3.51l.2,3.57h1l-.49-8.13h-1.3ZM74.92,15.3c.75,0,1.52.28,2.09.8l.5-.76c-.7-.72-1.61-.97-2.5-.97-2.33,0-4.22,1.88-4.22,4.29s1.87,4.28,4.13,4.21c.79-.02,1.81-.28,2.58-.99l-.5-.78c-.59.54-1.34.84-2.11.84-1.77,0-3.11-1.53-3.11-3.31s1.36-3.33,3.13-3.33ZM91.24,22.7h4.26v-.93h-3.27v-3.08h3.18v-.93h-3.18v-2.28h3.27v-.93h-4.26v8.16ZM87.5,18.37h-.32v-2.92h.26c.98,0,2.16.15,2.16,1.43s-1.09,1.49-2.1,1.49ZM87.33,14.54h-1.13v8.16h.99v-3.42h.57c1.5,0,2.78-.66,2.78-2.38,0-1.49-.76-2.36-3.2-2.36ZM68.43,17.87l-.57-.23c-.49-.19-1.1-.53-1.1-1.17,0-.71.69-1.16,1.32-1.16.7,0,1.12.48,1.15,1.01h.91c-.14-1.42-1.16-1.97-2.04-1.97-1.2,0-2.33.79-2.33,2.11,0,1.14.82,1.67,1.72,2.07l.55.24c.68.29,1.37.67,1.37,1.55s-.61,1.59-1.46,1.59-1.55-.65-1.53-1.55l-1,.02c.12,1.55,1.17,2.48,2.45,2.48,1.42,0,2.53-1.06,2.53-2.54,0-1.36-.84-2-1.97-2.46ZM43.19,21.92c-1.71,0-3.17-1.44-3.17-3.3s1.3-3.3,3.17-3.3,3.16,1.5,3.16,3.3-1.45,3.3-3.16,3.3ZM43.19,14.37c-2.27,0-4.15,1.92-4.15,4.25s1.86,4.25,4.15,4.25,4.15-1.83,4.15-4.25-1.88-4.25-4.15-4.25ZM36.66,21.94c-1.77,0-3.11-1.53-3.11-3.31s1.36-3.33,3.13-3.33c.75,0,1.52.28,2.09.8l.5-.76c-.69-.72-1.61-.97-2.5-.97-2.33,0-4.22,1.88-4.22,4.29s1.87,4.28,4.13,4.21c.79-.02,1.81-.28,2.58-.99l-.5-.78c-.59.54-1.34.84-2.11.84h0Z" fill="#fff" fill-rule="evenodd"/>
  <path id="Fill-3" d="M83.29,14.78c-1.3-.48-3.02.17-3.2,1.47-.17,1.25.58,1.95,2.16,2.26,1.64.32,1.45,1.76,1.04,2.24-.66.77-1.68.85-2.48.57-1.63-.42-2.85-1.99-2.54-3.95.33-2,1.96-2.98,3.65-2.98-.16-.02-.32-.03-.48-.03-2.4,0-4.34,1.94-4.34,4.34s1.94,4.34,4.34,4.34,4.34-1.94,4.34-4.34c0-1.74-1.02-3.23-2.5-3.93" fill="#fff" fill-rule="evenodd"/>
</svg>