<?xml version="1.0" encoding="UTF-8"?>
<svg id="Layer_1" data-name="Layer 1" xmlns="http://www.w3.org/2000/svg" width="46.1mm" height="13.2mm" viewBox="0 0 130.68 37.42">
  <path d="M93.6,14c-.24-3.11-8.55-4.95-18.51-4.12-6.39.54-14.08,2.68-17.19,4.52,2.98-1.11,8.77-2.68,12.76-3.22,10.3-1.44,19.01.15,19.35,3.47.17,1.59-1.53,3.3-4.49,4.8,4.99-1.44,8.23-3.47,8.08-5.47Z" fill="#fff"/>
  <polygon points="45.67 18.97 45.67 18.93 45.69 18.91 45.67 18.91 45.33 18.91 44.07 18.91 43.1 23.88 42.73 25.72 42.37 27.55 42.73 27.55 43.1 27.55 43.96 27.55 45.33 20.66 45.67 18.97" fill="#fff"/>
  <path d="M49.58,18.71c-.24,0-.5.09-.73.24-.24.19-.45.45-.69.79l.82-4.14h-1.62l-1.69,8.53v.04l-.35,1.69-.32,1.67h1.49l.26-1.27c.09.54.22.9.35,1.09.19.26.43.36.69.36.13,0,.24-.02.37-.06.22-.06.43-.24.65-.45.32-.36.65-.9.93-1.63.3-.71.54-1.54.73-2.49.28-1.42.32-2.51.15-3.28-.19-.75-.54-1.11-1.04-1.11ZM48.85,23.17c-.15.77-.32,1.33-.52,1.65-.04.11-.13.19-.17.26-.13.17-.28.24-.41.24-.19,0-.32-.17-.41-.49-.06-.34-.02-.88.13-1.61.13-.69.3-1.2.5-1.54.07-.09.13-.17.19-.26.13-.15.28-.24.45-.24s.3.17.35.47c.06.32.04.84-.11,1.52Z" fill="#fff"/>
  <polygon points="40.29 20.26 40.7 18.18 42.73 18.18 43.1 18.18 43.32 18.18 43.83 15.6 43.1 15.6 42.73 15.6 39.43 15.6 37.07 27.55 38.87 27.55 39.82 22.68 42.04 22.68 42.52 20.26 40.29 20.26" fill="#fff"/>
  <polygon points="45.67 17.86 45.89 17.86 46.34 15.6 45.67 15.6 45.33 15.6 44.74 15.6 44.29 17.86 45.33 17.86 45.67 17.86" fill="#fff"/>
  <path d="M53.6,24.05h2.05l.09-.39c.04-.26.09-.51.13-.75.02-.19.07-.36.07-.56.09-.56.11-1.05.09-1.46-.02-.24-.04-.43-.09-.62,0-.11-.04-.21-.07-.32-.09-.28-.19-.49-.32-.69-.26-.39-.71-.56-1.3-.56-.24,0-.45.02-.65.11-.48.17-.93.56-1.34,1.14-.58.84-.99,1.93-1.25,3.28-.19.94-.26,1.78-.19,2.49.07.71.24,1.22.48,1.54.26.32.67.47,1.21.47.41,0,.78-.06,1.1-.24.17-.09.32-.19.47-.32.41-.37.82-.99,1.23-1.87l-1.51-.3c-.06.13-.13.24-.19.32-.07.09-.13.17-.17.21-.17.17-.34.26-.5.26-.26,0-.43-.19-.5-.56-.06-.28-.04-.67.02-1.2h1.15ZM53.19,21.29c.13-.24.28-.41.41-.51.11-.06.22-.11.32-.11.22,0,.37.13.45.41.06.28.06.75-.04,1.39h-1.56c.13-.54.26-.9.41-1.18Z" fill="#fff"/>
  <path d="M59.69,21.52l.32-.79.32-.79.3-.79c-.11-.13-.19-.24-.3-.32-.11-.06-.22-.11-.32-.11h-.04c-.11,0-.19.02-.28.04-.13.06-.24.15-.37.28-.19.24-.43.66-.69,1.29l.28-1.42h-1.49l-1.49,7.48-.07.39-.15.77h1.6l.58-2.89c.26-1.39.54-2.34.8-2.83.19-.36.39-.54.6-.54.11,0,.24.06.39.24Z" fill="#fff"/>
  <path d="M78.72,18.71c-.3,0-.58.09-.82.3-.26.19-.56.58-.93,1.14-.02-.47-.11-.84-.26-1.09-.13-.24-.37-.34-.71-.34-.3,0-.58.11-.84.32-.28.21-.56.6-.89,1.11l.26-1.24h-1.49l-1.51,7.59-.06.36-.07.34-.09.34h1.62l.86-4.42c.13-.66.28-1.11.45-1.42.19-.28.37-.43.54-.43.11,0,.19.06.26.19.04.13.09.32.06.54,0,.13-.04.39-.13.77l-.93,4.76h1.6l.89-4.46c.13-.62.28-1.07.43-1.37.17-.28.37-.41.54-.41s.28.15.32.45c.04.17,0,.47-.06.86l-.97,4.93h1.6l1.08-5.43c.22-1.18.28-2.04.13-2.59-.15-.56-.43-.81-.89-.81Z" fill="#fff"/>
  <path d="M84.55,19.27c-.26-.39-.69-.56-1.3-.56-.24,0-.43.02-.65.11-.48.17-.93.56-1.34,1.14-.58.84-.99,1.93-1.27,3.28-.17.94-.24,1.78-.17,2.49.06.71.24,1.22.47,1.54.26.32.65.47,1.21.47.41,0,.78-.06,1.1-.24.17-.09.32-.19.48-.32.41-.37.82-.99,1.23-1.87l-1.51-.3c-.06.13-.13.24-.19.32-.07.09-.13.17-.17.21-.19.17-.35.26-.52.26-.24,0-.41-.19-.47-.56-.07-.28-.07-.67.02-1.2h3.2l.06-.39c.24-1.14.32-2.06.3-2.77-.04-.71-.19-1.27-.47-1.63ZM83.36,22.46h-1.58c.13-.54.26-.9.41-1.18.13-.24.26-.41.41-.51.11-.06.22-.11.32-.11.22,0,.37.13.45.41.07.28.07.75-.02,1.39Z" fill="#fff"/>
  <path d="M71.39,23.22c.02-.11.04-.21.07-.32.02-.15.04-.32.06-.47.11-.73.09-1.37,0-1.95-.02-.09-.02-.17-.04-.26,0-.04-.02-.06-.02-.09-.02-.09-.04-.17-.07-.24-.26-.79-.76-1.18-1.51-1.18-.3,0-.61.06-.89.21-.39.21-.76.56-1.1,1.05-.45.66-.8,1.44-1.06,2.34-.09.28-.15.56-.22.86,0,.02,0,.04-.02.09-.26,1.33-.26,2.4.02,3.26.02.06.04.13.06.17.04.11.09.21.15.3.28.51.69.75,1.25.75.32,0,.63-.06.91-.21.41-.19.78-.56,1.12-1.05.58-.84,1.02-1.91,1.27-3.22v-.04ZM69.8,23.22c-.15.79-.34,1.39-.56,1.74-.09.13-.15.24-.24.32-.15.15-.28.24-.45.24-.22,0-.37-.19-.45-.56-.06-.36-.02-.94.11-1.71.17-.75.35-1.33.58-1.69.06-.13.15-.24.22-.32.15-.15.3-.24.48-.24.22,0,.35.19.43.54.09.39.04.94-.11,1.69Z" fill="#fff"/>
  <polygon points="66.84 17.68 67.25 15.6 66.84 15.6 66.62 15.6 65.46 15.6 64.63 19.79 62.69 19.79 63.51 15.6 61.74 15.6 60.34 22.72 60.01 24.33 59.69 25.94 59.36 27.55 59.69 27.55 60.01 27.55 60.34 27.55 61.14 27.55 62.11 22.72 64.05 22.72 63.1 27.55 64.87 27.55 66.62 18.73 66.84 17.68" fill="#fff"/>
</svg>