<?xml version="1.0" encoding="UTF-8"?>
<svg id="Layer_1" data-name="Layer 1" xmlns="http://www.w3.org/2000/svg" width="46.1mm" height="13.2mm" viewBox="0 0 130.68 37.42">
  <path d="M73.89,13.77v9.88h1.48v-9.88h-1.48ZM58.06,13.6c-2.89,0-5.12,2.1-5.12,5.11s2.24,5.11,5.12,5.11c2.89,0,5.13-1.96,5.12-5.11,0-2.85-2.24-5.11-5.12-5.11ZM61.71,18.71c0,2.23-1.63,3.7-3.65,3.7s-3.65-1.47-3.65-3.7,1.63-3.7,3.65-3.7,3.65,1.52,3.65,3.7ZM42.99,13.45v10.2h1.51v-6.74l7.85,7.06v-2.11l-9.37-8.4ZM64.3,18.71l5.5,4.94h2.2l-5.5-4.94,5.5-4.94h-2.2l-5.5,4.94ZM87.68,23.65h-1.63l-1.19-2.19h-5.4l-1.19,2.19h-1.63l1.97-3.64h5.47l-2.73-5.07.8-1.48h0s0,0,0,0l5.52,10.2Z" fill="#fff"/>
</svg>