<?xml version="1.0" encoding="UTF-8"?>
<svg id="Layer_1" data-name="Layer 1" xmlns="http://www.w3.org/2000/svg" width="46.1mm" height="13.2mm" viewBox="0 0 130.68 37.42">
  <path d="M43.65,24.93l-.39,1.36h-2.55c-1.13,0-1.88-.3-2.26-.9-.38-.6-.42-1.41-.13-2.41.29-1.01.71-1.75,1.28-2.22.56-.47,1.08-.77,1.54-.9.47-.13.96-.19,1.47-.19h2.55l-.39,1.36h-2.31c-.38,0-.68.03-.92.09-.24.06-.44.19-.62.38-.21.2-.36.47-.46.83h3.95l-.4,1.38h-3.95c-.1.34-.11.6-.04.78.07.18.21.3.42.37.2.05.5.08.9.08h2.33Z" fill="#fff"/>
  <path d="M48.39,24.86h2.06l-.41,1.43h-2.35c-.49,0-.94-.06-1.33-.17-.39-.11-.7-.32-.94-.63-.24-.31-.38-.69-.42-1.14-.04-.45,0-.9.14-1.36.09-.32.21-.62.36-.91.15-.29.35-.58.59-.87.24-.29.5-.55.76-.77.37-.29.73-.47,1.06-.55.33-.09.63-.14.91-.18.28-.03.53-.05.77-.05h2.35l-.41,1.43h-2.23c-.43,0-.86.11-1.29.33-.43.22-.77.74-1.01,1.56-.23.8-.18,1.32.14,1.54.32.22.74.33,1.26.33Z" fill="#fff"/>
  <path d="M53.01,26.29h-1.74l1.89-6.62h3.27c.61,0,1.1.07,1.46.21.36.14.6.39.71.75.11.36.08.85-.09,1.47l-1.2,4.2h-1.76l1.14-3.97c.04-.14.07-.26.09-.38.02-.12.03-.25.03-.39,0-.14-.07-.24-.22-.31-.14-.07-.37-.1-.71-.1h-1.4l-1.47,5.15Z" fill="#fff"/>
  <path d="M64.4,25.49c-.4.29-.79.5-1.16.62-.37.12-.68.2-.91.24-.23.04-.48.06-.72.06-.46,0-.9-.08-1.31-.24-.41-.16-.73-.39-.95-.68-.22-.29-.35-.62-.39-.96-.03-.35-.04-.63-.02-.85.02-.22.07-.46.14-.71.14-.48.32-.88.54-1.21.23-.33.42-.58.58-.76.16-.18.4-.38.7-.62.31-.24.71-.44,1.19-.6.49-.16.98-.25,1.48-.25.48,0,.92.08,1.31.23.4.15.68.35.86.59.18.24.3.45.37.63.07.18.12.43.15.75.03.32-.02.73-.16,1.24-.14.48-.35.93-.64,1.37-.29.44-.64.82-1.07,1.15ZM61.45,24.9c.06.03.14.06.23.08.1.02.2.03.3.03.36,0,.71-.11,1.06-.32.35-.21.62-.46.8-.77.18-.3.32-.61.41-.92.13-.45.16-.83.09-1.16-.07-.33-.26-.57-.58-.72-.21-.08-.41-.13-.6-.13-.22,0-.45.05-.72.14-.25.11-.48.25-.68.42-.2.17-.37.37-.52.62-.15.24-.27.52-.36.84-.12.43-.14.81-.06,1.16.08.34.29.59.62.74Z" fill="#fff"/>
  <path d="M72.23,19.67h1.74l-1.89,6.62h-3.29c-.59,0-1.07-.08-1.43-.23-.36-.15-.59-.41-.7-.77-.11-.36-.08-.83.09-1.43l1.2-4.2h1.74l-1.16,4.07c-.08.27-.11.49-.09.65.02.17.1.28.25.35.15.07.36.1.65.1h1.41l1.48-5.17Z" fill="#fff"/>
  <polygon points="32.72 19.67 32.35 20.98 34.34 20.98 32.82 26.3 34.58 26.3 36.1 20.98 38.14 20.98 38.51 19.67 32.72 19.67" fill="#fff"/>
  <path d="M77.8,26.29h-4.48l.39-1.36h3.67c.62,0,.99-.22,1.12-.67.12-.43-.12-.65-.74-.65h-1.52c-.22,0-.39,0-.51-.01-.13,0-.3-.03-.52-.07-.23-.04-.41-.12-.57-.25-.16-.13-.24-.32-.27-.58-.03-.26.01-.56.11-.92.4-1.41,1.38-2.11,2.94-2.11h3.74l-.39,1.36h-3.4c-.53,0-.87.15-1.01.45l-.06.22c-.11.38.12.56.67.56h1.6c.32,0,.6.04.84.11.24.07.44.19.6.34.16.15.26.35.3.59.04.24.02.51-.07.82-.11.38-.25.69-.44.95-.18.26-.34.45-.48.58-.14.13-.33.27-.58.42-.25.15-.57.22-.94.22Z" fill="#fff"/>
  <polygon points="90.96 18.97 95.09 17.81 90.94 16.64 94.85 11.04 89.04 15.11 87.92 12.48 86.79 15.1 79.26 9.17 84.5 16.23 33.77 16.23 33.5 17.14 86.15 17.14 82.11 12.08 87.06 16.14 87.91 14.05 88.84 16.15 92.95 12.95 89.79 17.01 93.15 17.81 89.81 18.62 94.31 24.21 88.81 19.7 87.93 21.71 87.04 19.7 84.26 21.65 85.58 19.51 84.81 19.51 82.42 23.47 86.8 20.71 87.92 23.35 89.05 20.86 98.33 28.25 90.96 18.97" fill="#fff"/>
</svg>