<?xml version="1.0" encoding="UTF-8"?>
<svg id="Layer_1" data-name="Layer 1" xmlns="http://www.w3.org/2000/svg" width="46.1mm" height="13.2mm" viewBox="0 0 130.68 37.42">
  <path d="M60.54,12.67h-6.47c-.46,0-.83.38-.83.83s.37.83.83.83h3.66c.32,0,.57.26.57.58,0,.12-.04.23-.1.32,0,0-5.21,8.19-5.21,8.19-.02.03-.05.08-.05.08-.05.09-.11.24-.11.41,0,.45.36.82.82.83h0s6.88,0,6.88,0h0c.45,0,.82-.38.82-.83s-.37-.83-.82-.83h-.01s-4.04,0-4.04,0c-.32,0-.58-.26-.58-.58,0-.1.02-.2.07-.27l5.28-8.29h0c.08-.13.12-.28.12-.44,0-.46-.37-.83-.83-.83" fill="#fff"/>
  <path d="M69.28,12.67h-6.45c-.46,0-.83.37-.83.83s.37.83.83.83h1.46c.46,0,.83.37.83.83v8.64h0c0,.52.42.94.94.94s.94-.42.94-.94v-8.64c0-.46.37-.83.83-.83h1.45c.46,0,.83-.37.83-.83s-.37-.83-.83-.83" fill="#fff"/>
  <path d="M77,23.08s-3.56,0-3.56,0c-.46,0-.83-.37-.83-.83v-1.88h0c0-.47.37-.84.83-.84h2.94c.46,0,.83-.37.83-.83s-.37-.83-.83-.83h-2.95c-.46,0-.83-.38-.83-.83v-1.88c0-.45.38-.82.83-.82h3.57c.46,0,.82-.38.82-.83s-.37-.83-.82-.83h-5.44c-.46,0-.83.37-.83.83,0,.01,0,.02,0,.04,0,0,0,10.37,0,10.38,0,.46.37.83.82.83h0s5.45,0,5.45,0c.46,0,.82-.38.82-.83s-.37-.83-.83-.83" fill="#fff"/>
</svg>