<?xml version="1.0" encoding="UTF-8"?>
<svg id="Capa_1" data-name="Capa 1" xmlns="http://www.w3.org/2000/svg" width="220" height="70" viewBox="0 0 220 70">
  <path d="M68.84,33.16c-2.26-.22-4.55-.22-6.81,0-6.09.59-11.94,2.77-16.93,6.31-4.01,2.85-7.43,6.57-9.94,10.79-2.51-4.23-5.93-7.95-9.94-10.79-4.99-3.55-10.85-5.73-16.93-6.31-2.26-.22-4.55-.22-6.81,0l-1.49.14v1.5c.01,2.28.24,4.56.68,6.78,1.48,7.4,5.23,14.01,10.84,19.12,5.66,5.14,12.65,8.24,20.23,8.97,1.12.11,2.27.16,3.4.16s2.28-.06,3.4-.16c7.58-.73,14.58-3.83,20.23-8.97,5.62-5.11,9.37-11.72,10.84-19.12.44-2.22.67-4.5.68-6.78v-1.5s-1.48-.14-1.48-.14h0ZM18.11,53.46c-2.99-2.71-5.3-6.11-6.71-9.86,3.9,1.03,7.54,3.01,10.55,5.74,2.99,2.71,5.3,6.11,6.71,9.86-3.9-1.03-7.54-3.01-10.55-5.74ZM52.22,53.46c-3.01,2.74-6.65,4.71-10.55,5.74,1.41-3.75,3.72-7.14,6.71-9.86,3.01-2.74,6.65-4.71,10.55-5.74-1.41,3.75-3.72,7.14-6.71,9.86Z" fill="#f5f5f5"/>
  <path d="M34.87,10.77h0c10.81,0,20.01,6.88,23.48,16.5h11.25C65.36,11.35,52.13.18,34.8.18,18.63.18,4.13,11.35.15,27.26h11.25c3.46-9.62,12.67-16.5,23.48-16.5Z" fill="#f5f5f5"/>
  <polygon points="94.95 28.09 85.81 28.09 85.81 22.76 93.73 22.76 93.73 20.51 85.81 20.51 85.81 15.01 94.95 15.01 94.95 12.56 83.16 12.56 83.16 30.54 94.95 30.54 94.95 28.09" fill="#f5f5f5"/>
  <polygon points="104.42 30.54 108.74 17.45 106.2 17.45 102.78 28.29 102.58 28.29 99.08 17.45 96.44 17.45 100.75 30.54 104.42 30.54" fill="#f5f5f5"/>
  <path d="M115.88,30.9c1.03,0,2.02-.22,2.98-.67.96-.45,1.77-1.1,2.42-1.94l-1.47-1.54c-.54.6-1.15,1.06-1.83,1.38s-1.38.48-2.08.48c-.98,0-1.84-.31-2.58-.92-.74-.61-1.21-1.48-1.41-2.6h9.56l.03-1.74c0-1.13-.24-2.16-.71-3.12-.47-.95-1.15-1.72-2.04-2.29s-1.91-.86-3.12-.86-2.29.3-3.26.89c-.97.6-1.72,1.42-2.26,2.47-.54,1.05-.81,2.24-.81,3.56,0,1.45.31,2.7.93,3.74.62,1.04,1.43,1.83,2.43,2.36h0c1,.53,2.07.8,3.22.8ZM113.18,20.33c.68-.63,1.45-.94,2.31-.94.59,0,1.14.15,1.66.44.52.29.95.71,1.27,1.26.33.55.5,1.19.51,1.94h0s-7.02,0-7.02,0c.16-1.17.58-2.07,1.26-2.7Z" fill="#f5f5f5"/>
  <path d="M135.45,30.54v-8.24c0-1.65-.38-2.93-1.13-3.84-.75-.91-1.83-1.37-3.25-1.37-1.03,0-1.97.28-2.82.83-.86.55-1.4,1.24-1.63,2.05h-.17v-2.52h-2.45,0v13.08h2.67v-6.58c0-1.4.32-2.51.97-3.34.64-.82,1.47-1.23,2.48-1.23.85,0,1.5.31,1.97.93.46.62.7,1.56.7,2.84v7.38h2.67Z" fill="#f5f5f5"/>
  <path d="M139.38,27.67h0c0,1.91.74,2.86,2.22,2.86h3.64v-2.37h-2.71c-.19,0-.33-.04-.4-.13-.07-.09-.11-.26-.11-.5v-7.95h3.23v-2.13h-3.25v-2.93h-2.47l-.17,2.93h-2.03v2.13h2.03l.03,8.09Z" fill="#f5f5f5"/>
  <path d="M149.69,30c.95.59,2.04.88,3.26.88s2.31-.31,3.28-.92c.96-.61,1.71-1.44,2.25-2.49.54-1.05.81-2.21.81-3.51s-.26-2.48-.78-3.52c-.52-1.04-1.25-1.86-2.2-2.46-.95-.59-2.01-.89-3.25-.89s-2.34.29-3.31.88-1.72,1.4-2.26,2.45c-.54,1.04-.81,2.25-.81,3.57s.27,2.51.8,3.56c.53,1.05,1.27,1.87,2.23,2.46h0ZM149.21,23.98c0-1.32.34-2.42,1.01-3.29.68-.87,1.63-1.31,2.8-1.31s2.09.44,2.74,1.31c.65.87.98,1.97.98,3.29s-.34,2.42-1.01,3.29-1.58,1.31-2.75,1.31-2.09-.44-2.76-1.31h0c-.67-.87-1-1.97-1-3.29Z" fill="#f5f5f5"/>
  <path d="M93.54,47.05c-.79-.37-1.83-.76-3.12-1.19-1.04-.34-1.87-.64-2.47-.91-.6-.26-1.1-.59-1.5-.99-.4-.4-.6-.89-.6-1.48,0-.72.33-1.32.99-1.8.66-.48,1.5-.72,2.53-.72,1.09,0,2.05.27,2.86.81.81.54,1.43,1.3,1.86,2.27l2.23-1.2c-.59-1.4-1.46-2.5-2.63-3.29-1.17-.79-2.56-1.19-4.17-1.19-1.17,0-2.24.21-3.2.62-.96.42-1.72,1.01-2.27,1.78-.55.78-.83,1.68-.83,2.7,0,1.16.31,2.11.92,2.86.61.75,1.34,1.33,2.19,1.75.85.42,1.94.84,3.28,1.28.96.33,1.71.6,2.25.83s.99.51,1.35.84c.36.33.54.75.54,1.23,0,.62-.34,1.15-1.03,1.58-.68.43-1.52.65-2.64.65s-2.18-.27-3.18-.81c-1-.54-1.86-1.34-2.59-2.4l-2,1.54c.8,1.4,1.87,2.46,3.2,3.18h0c1.34.72,2.78,1.08,4.33,1.08,1.16,0,2.24-.2,3.25-.6,1.01-.4,1.82-.98,2.43-1.74s.92-1.67.92-2.68-.28-1.85-.84-2.51c-.56-.66-1.24-1.17-2.03-1.54Z" fill="#f5f5f5"/>
  <path d="M107.25,49.48c0,1.14-.27,2.16-.82,3.04-.55.89-1.38,1.33-2.51,1.33-.88,0-1.54-.27-1.98-.81-.44-.54-.66-1.39-.66-2.57v-7.82h-2.67v8.24c0,1.63.38,2.91,1.14,3.84h0c.76.93,1.85,1.39,3.26,1.39,1.04,0,1.94-.29,2.68-.86.74-.57,1.31-1.3,1.7-2.18h.2v2.64h2.32v-13.08h-2.67v6.82Z" fill="#f5f5f5"/>
  <path d="M121.24,49.14c-.57-.28-1.27-.55-2.1-.83-.8-.26-1.39-.47-1.78-.64-.39-.16-.72-.37-.98-.61-.26-.24-.39-.55-.39-.93,0-.44.18-.8.54-1.09s.87-.43,1.49-.43,1.23.18,1.85.54c.61.36,1.07.86,1.38,1.52l2.05-1.05c-.39-.98-1.06-1.78-1.99-2.4-.94-.62-2.03-.93-3.29-.93-.77,0-1.5.17-2.2.5s-1.27.79-1.7,1.38c-.43.59-.65,1.24-.65,1.96,0,.88.23,1.59.68,2.14.46.55.99.96,1.59,1.23.6.28,1.38.57,2.35.88.96.31,1.69.61,2.18.89s.73.61.73,1.04-.22.77-.66,1.05c-.44.28-1.01.42-1.81.42s-1.55-.18-2.24-.55c-.69-.37-1.26-.94-1.7-1.72l-1.88,1.25c.54,1.12,1.33,1.96,2.37,2.49h0c1.04.54,2.18.81,3.42.81.88,0,1.7-.15,2.45-.44.75-.29,1.35-.72,1.8-1.27.45-.55.67-1.21.67-1.96,0-.83-.22-1.51-.66-2.04-.44-.53-.95-.93-1.52-1.21Z" fill="#f5f5f5"/>
  <path d="M129.5,39.72h-2.47l-.17,2.93h-2.03v2.13h2.03l.03,8.09h0c0,1.91.74,2.86,2.22,2.86h3.64v-2.37h-2.71c-.19,0-.33-.04-.4-.13-.07-.09-.11-.26-.11-.5v-7.95h3.23v-2.13h-3.25v-2.93Z" fill="#f5f5f5"/>
  <path d="M143.62,43.15c-.89-.57-1.91-.86-3.12-.86s-2.29.3-3.26.89-1.72,1.42-2.26,2.47c-.54,1.05-.81,2.24-.81,3.56,0,1.45.31,2.7.93,3.74.62,1.04,1.43,1.83,2.43,2.36h0c1,.53,2.07.8,3.22.8,1.03,0,2.02-.22,2.98-.67.96-.45,1.77-1.1,2.42-1.94l-1.47-1.54c-.54.6-1.15,1.06-1.83,1.38-.68.32-1.38.48-2.08.48-.98,0-1.84-.31-2.58-.92-.74-.61-1.21-1.48-1.41-2.6h9.56l.03-1.74c0-1.13-.24-2.16-.71-3.12-.47-.95-1.15-1.72-2.04-2.29ZM143.81,48.23h-7.02c.16-1.17.58-2.07,1.26-2.7.68-.63,1.45-.94,2.31-.94.59,0,1.14.15,1.66.44.52.29.95.71,1.27,1.26.33.55.5,1.19.51,1.94h0Z" fill="#f5f5f5"/>
  <path d="M155.94,42.29c-1.03,0-1.97.28-2.82.83-.86.55-1.4,1.24-1.63,2.05h-.17v-2.52h-2.45,0v13.08h2.67v-6.58c0-1.4.32-2.51.97-3.34.64-.82,1.47-1.23,2.48-1.23.85,0,1.5.31,1.97.93.46.62.7,1.56.7,2.84v7.38h2.67v-8.24c0-1.65-.38-2.93-1.13-3.84-.75-.91-1.83-1.37-3.25-1.37Z" fill="#f5f5f5"/>
  <path d="M166.87,39.72h-2.47l-.17,2.93h-2.03v2.13h2.03l.03,8.09h0c0,1.91.74,2.86,2.22,2.86h3.64v-2.37h-2.71c-.19,0-.33-.04-.4-.13-.07-.09-.11-.26-.11-.5v-7.95h3.23v-2.13h-3.25v-2.93Z" fill="#f5f5f5"/>
  <path d="M182.66,53.17v-5.94c0-1.55-.46-2.76-1.37-3.63s-2.14-1.31-3.67-1.31c-1.35,0-2.52.36-3.5,1.08-.98.72-1.68,1.73-2.1,3.03l2.2.93c.39-.98.85-1.68,1.37-2.1.52-.42,1.2-.64,2.03-.64.72,0,1.32.26,1.81.78.49.52.73,1.24.73,2.15v.81h-3.08c-.96,0-1.85.16-2.68.48-.82.32-1.48.79-1.98,1.41-.5.62-.75,1.35-.75,2.2,0,1.11.39,1.99,1.17,2.65h0c.78.66,1.76.99,2.93.99,1.08,0,2.03-.29,2.87-.86.84-.57,1.46-1.3,1.87-2.2h.22l-.03.83c0,1.27.59,1.91,1.76,1.91h1.52v-2.1h-1c-.23,0-.34-.15-.34-.46ZM179.5,51.92c-.38.54-.86.98-1.43,1.32-.57.34-1.16.51-1.76.51-.55,0-1.04-.14-1.46-.42h0c-.42-.28-.62-.66-.62-1.15,0-.62.35-1.1,1.05-1.43.7-.33,1.61-.5,2.71-.5h2.18c-.07.57-.29,1.13-.67,1.66Z" fill="#f5f5f5"/>
  <path d="M196.28,43.17c-.83-.59-1.75-.88-2.84-.88s-2.01.26-2.75.78c-.74.52-1.33,1.2-1.77,2.03h-.15v-7.34h-2.59v17.97h2.22v-2.52h.15c.36.88.93,1.58,1.71,2.1h0c.78.52,1.75.78,2.81.78s2.03-.29,2.91-.87c.88-.58,1.59-1.4,2.12-2.47.53-1.07.8-2.31.8-3.73,0-1.27-.23-2.42-.68-3.45-.46-1.03-1.1-1.83-1.93-2.42ZM195.73,51.51c-.3.68-.72,1.21-1.26,1.58-.54.37-1.14.55-1.81.55-1.19,0-2.12-.42-2.8-1.27h0c-.68-.85-1.01-1.91-1.01-3.18,0-.8.16-1.54.46-2.21.31-.68.75-1.22,1.33-1.61s1.26-.6,2.04-.6c1.06,0,1.91.39,2.54,1.17.64.78.95,1.84.95,3.18,0,.91-.15,1.71-.45,2.4Z" fill="#f5f5f5"/>
  <path d="M204.16,53.23c-.07-.09-.1-.26-.1-.5v-14.94h-2.67v15.09h0c0,1.91.75,2.86,2.25,2.86h2.67v-2.37h-1.76c-.19,0-.33-.04-.39-.13Z" fill="#f5f5f5"/>
  <path d="M220,48.55c0-1.13-.24-2.16-.71-3.12-.47-.95-1.15-1.72-2.04-2.29-.89-.57-1.91-.86-3.12-.86s-2.29.3-3.26.89-1.72,1.42-2.26,2.47c-.54,1.05-.81,2.24-.81,3.56,0,1.45.31,2.7.93,3.74.62,1.04,1.43,1.83,2.43,2.36h0c1,.53,2.07.8,3.22.8,1.03,0,2.02-.22,2.98-.67.96-.45,1.77-1.1,2.42-1.94l-1.47-1.54c-.54.6-1.15,1.06-1.83,1.38-.68.32-1.38.48-2.08.48-.98,0-1.84-.31-2.58-.92-.74-.61-1.21-1.48-1.41-2.6h9.56l.03-1.74ZM217.43,48.23h-7.02c.16-1.17.58-2.07,1.26-2.7.68-.63,1.45-.94,2.31-.94.59,0,1.14.15,1.66.44.52.29.95.71,1.27,1.26.33.55.5,1.19.51,1.94h0Z" fill="#f5f5f5"/>
</svg>