<?xml version="1.0" encoding="UTF-8"?>
<svg id="Layer_1" data-name="Layer 1" xmlns="http://www.w3.org/2000/svg" width="100" height="100" viewBox="0 0 100 100">
  <path d="M50,46.87h0c10.91,0,19.79-8.88,19.79-19.79S60.91,7.29,50,7.29s-19.79,8.88-19.79,19.79,8.88,19.79,19.79,19.79ZM50,13.54c7.47,0,13.54,6.07,13.54,13.54s-6.07,13.54-13.54,13.54-13.54-6.08-13.54-13.54,6.08-13.54,13.54-13.54Z" fill="#fff"/>
  <path d="M89.69,10.18h0c-1.43-1.41-3.82-1.11-4.86.61-.75,1.23-.56,2.82.47,3.82,2.03,1.99,4.98,6.01,4.98,12.47s-2.95,10.48-4.98,12.47c-1.03,1.01-1.21,2.6-.47,3.83,1.04,1.72,3.42,2.02,4.86.61,2.9-2.86,6.84-8.33,6.84-16.9s-3.94-14.04-6.84-16.9Z" fill="#fff"/>
  <path d="M76.39,19.3s-.04.07-.06.1c-.65,1.06-.58,2.4.15,3.41.66.92,1.31,2.33,1.31,4.27s-.64,3.35-1.31,4.27c-.72,1.01-.79,2.35-.15,3.41.02.03.04.07.06.1,1.14,1.88,3.84,1.98,5.12.19,1.37-1.91,2.52-4.58,2.52-7.97s-1.14-6.07-2.52-7.97c-1.29-1.79-3.98-1.69-5.12.19Z" fill="#fff"/>
  <path d="M72.17,58.42h0c-5.97-3.41-13.85-5.29-22.17-5.29s-16.2,1.88-22.18,5.29c-6.52,3.73-10.12,8.88-10.12,14.5s3.59,10.77,10.12,14.5c5.97,3.41,13.85,5.29,22.18,5.29,4.65,0,9.13-.58,13.32-1.71,1.67-.45,2.65-2.17,2.2-3.83-.45-1.67-2.17-2.65-3.83-2.2-3.65.99-7.58,1.5-11.68,1.5-7.25,0-14.03-1.59-19.07-4.47-2.6-1.49-6.97-4.64-6.97-9.07s4.37-7.58,6.97-9.07c5.04-2.88,11.82-4.47,19.07-4.47s14.03,1.59,19.07,4.47c2.6,1.49,6.97,4.64,6.97,9.07,0,.96-.22,1.93-.64,2.88-.71,1.57,0,3.42,1.57,4.13s3.42,0,4.13-1.57c.79-1.76,1.19-3.59,1.19-5.45,0-5.62-3.59-10.77-10.12-14.5Z" fill="#fff"/>
</svg>