<?xml version="1.0" encoding="UTF-8"?>
<svg id="Layer_1" data-name="Layer 1" xmlns="http://www.w3.org/2000/svg" width="100" height="100" viewBox="0 0 100 100">
  <path d="M94.15,30.25h0c-.73-5.43-2.32-9.12-5.16-11.96-2.84-2.84-6.53-4.43-11.96-5.16-.98-.13-2-.24-3.08-.32v-3.44c0-1.73-1.4-3.13-3.13-3.13s-3.13,1.4-3.13,3.13v3.18c-2.76-.05-5.86-.05-9.38-.05h-16.67c-3.52,0-6.61,0-9.38.05v-3.18c0-1.73-1.4-3.13-3.13-3.13s-3.13,1.4-3.13,3.13v3.44c-1.08.08-2.1.19-3.08.32-5.43.73-9.12,2.32-11.96,5.16-2.84,2.84-4.43,6.53-5.16,11.96-.64,4.75-.64,10.6-.64,18.7v8.33c0,8.1,0,13.96.64,18.7.73,5.43,2.32,9.12,5.16,11.96,2.84,2.84,6.52,4.43,11.96,5.16,4.75.64,10.6.64,18.7.64h16.67c1.73,0,3.13-1.4,3.13-3.13s-1.4-3.13-3.13-3.13h-16.67c-14.83,0-22.28,0-26.24-3.97s-3.97-11.41-3.97-26.24v-8.33c0-3.53,0-6.63.05-9.38h12.97c1.73,0,3.13-1.4,3.13-3.13s-1.4-3.13-3.13-3.13h-12.68c.43-5.09,1.41-8.4,3.63-10.62,3.97-3.97,11.41-3.97,26.24-3.97h16.67c14.83,0,22.28,0,26.24,3.97,2.22,2.22,3.2,5.53,3.63,10.62h-43.41c-1.73,0-3.13,1.4-3.13,3.13s1.4,3.13,3.13,3.13h43.7c.05,2.74.05,5.85.05,9.38v8.33c0,14.83,0,22.28-3.97,26.24-2.04,2.04-4.9,3.07-9.88,3.56-1.72.17-2.97,1.7-2.8,3.42.17,1.72,1.7,2.97,3.42,2.8,6.48-.64,10.57-2.24,13.69-5.36,2.84-2.84,4.43-6.53,5.16-11.96.64-4.75.64-10.6.64-18.7v-8.33c0-8.1,0-13.96-.64-18.7Z" fill="#fff"/>
  <circle cx="70.83" cy="69.79" r="4.17" fill="#fff"/>
  <circle cx="70.83" cy="53.12" r="4.17" transform="translate(13.73 120.78) rotate(-86.7)" fill="#fff"/>
  <circle cx="50" cy="69.79" r="4.17" fill="#fff"/>
  <circle cx="50" cy="53.12" r="4.17" fill="#fff"/>
  <circle cx="29.16" cy="69.79" r="4.17" fill="#fff"/>
  <circle cx="29.17" cy="53.13" r="4.17" fill="#fff"/>
</svg>