<?xml version="1.0" encoding="UTF-8"?>
<svg id="Layer_1" data-name="Layer 1" xmlns="http://www.w3.org/2000/svg" width="100" height="100" viewBox="0 0 100 100">
  <path d="M77.21,71.89h0c-1.71.17-2.97,1.69-2.81,3.4.66,7.06.9,11.68-.68,12.88-1.7,1.29-6.75-1.04-14.39-4.55l-2.49-1.14c-2.94-1.35-4.71-2.17-6.84-2.17s-3.9.82-6.84,2.17l-2.49,1.14c-7.64,3.52-12.69,5.84-14.39,4.55-1.8-1.37-1.24-7.18-.39-15.98l.27-2.82c.33-3.4.51-5.27-.12-7.31-.64-2.05-1.84-3.46-4.03-6.02l-1.81-2.11c-3.33-3.9-5.97-6.97-7.44-9.31-1.43-2.27-1.42-3.25-1.21-3.9.13-.41.39-1.26,3.07-2.32,2.49-.98,6.35-1.85,11.23-2.96,1.68-.38,2.74-2.05,2.36-3.74-.38-1.68-2.05-2.74-3.74-2.36-5.34,1.21-9.2,2.08-12.14,3.24-2.35.92-5.6,2.58-6.75,6.28-1.13,3.65.54,6.93,1.89,9.09,1.72,2.73,4.34,5.8,7.98,10.05l1.81,2.11c1.77,2.08,2.57,3.03,2.82,3.81.25.8.14,2.07-.13,4.85l-.27,2.82c-.55,5.67-.94,9.76-.8,13.01.13,2.8.65,6.3,3.63,8.56,1.63,1.23,3.4,1.63,5.06,1.63,1.5,0,2.92-.32,4.08-.65,3.03-.87,6.64-2.53,11.64-4.83l2.49-1.14c2.24-1.03,3.47-1.6,4.23-1.6s1.99.57,4.23,1.6l2.49,1.14c5,2.3,8.61,3.96,11.64,4.83,2.45.7,6.06,1.36,9.14-.98,2.98-2.26,3.5-5.76,3.63-8.56.12-2.62-.12-5.78-.5-9.88-.16-1.72-1.69-2.99-3.41-2.82h0Z" fill="#fff"/>
  <path d="M94.41,38.85c-1.15-3.7-4.4-5.35-6.75-6.28-2.94-1.16-6.8-2.03-12.14-3.24l-2.65-.6c-2.57-.58-3.73-.86-4.34-1.32-.65-.49-1.33-1.72-2.58-3.95l-1.37-2.45c-2.74-4.92-4.73-8.48-6.68-11.03-1.57-2.05-4.1-4.78-7.91-4.78s-6.34,2.72-7.91,4.78c-1.57,2.05-3.16,4.75-5.15,8.29-.85,1.51-.31,3.42,1.2,4.26h0c1.5.84,3.4.3,4.24-1.2,3.3-5.87,5.78-9.88,7.61-9.88,2.11,0,5.06,5.28,9.13,12.6l1.37,2.45c1.65,2.97,2.57,4.6,4.26,5.89,1.71,1.3,3.6,1.72,6.74,2.44l2.65.6c4.88,1.1,8.73,1.98,11.22,2.96,2.68,1.06,2.94,1.91,3.07,2.32.2.65.22,1.63-1.21,3.9-1.47,2.34-4.11,5.42-7.44,9.31-1.12,1.31-.97,3.28.34,4.41.59.5,1.31.75,2.03.75.88,0,1.76-.37,2.38-1.09,3.64-4.25,6.26-7.32,7.98-10.05,1.36-2.15,3.03-5.44,1.89-9.09h0Z" fill="#fff"/>
</svg>